<svg xmlns="http://www.w3.org/2000/svg" xmlns:xlink="http://www.w3.org/1999/xlink" width="500" zoomAndPan="magnify" viewBox="0 0 375 374.999991" height="500" preserveAspectRatio="xMidYMid meet" version="1.0"><defs><clipPath id="89a2cc6bdc"><path d="M 112.59375 126.9375 L 262.421875 126.9375 L 262.421875 248.078125 L 112.59375 248.078125 Z M 112.59375 126.9375 " clip-rule="nonzero"/></clipPath></defs><g clip-path="url(#89a2cc6bdc)"><path fill="#ffffff" d="M 257.316406 178.679688 C 257.316406 192.992188 228.410156 201.394531 198.046875 202.980469 L 198.046875 195.902344 C 198.046875 194.492188 196.902344 193.347656 195.492188 193.347656 L 179.523438 193.347656 C 178.113281 193.347656 176.972656 194.492188 176.972656 195.902344 L 176.972656 202.980469 C 146.605469 201.394531 117.699219 192.992188 117.699219 178.679688 L 117.699219 157.113281 C 117.699219 152.746094 121.257812 149.1875 125.628906 149.1875 L 249.390625 149.1875 C 253.761719 149.1875 257.316406 152.746094 257.316406 157.113281 Z M 182.078125 213.878906 L 182.078125 198.457031 L 192.941406 198.457031 L 192.941406 213.878906 Z M 257.316406 235.046875 C 257.316406 239.417969 253.761719 242.972656 249.390625 242.972656 L 125.628906 242.972656 C 121.257812 242.972656 117.699219 239.417969 117.699219 235.046875 L 117.699219 190.554688 C 121.769531 194.863281 128.226562 198.542969 136.953125 201.453125 C 147.851562 205.085938 161.789062 207.386719 176.972656 208.117188 L 176.972656 216.433594 C 176.972656 217.839844 178.113281 218.984375 179.523438 218.984375 L 195.492188 218.984375 C 196.902344 218.984375 198.046875 217.839844 198.046875 216.433594 L 198.046875 208.117188 C 223.386719 206.917969 247.203125 201.320312 257.316406 190.632812 Z M 164.738281 136.976562 C 164.738281 134.253906 166.949219 132.042969 169.671875 132.042969 L 205.351562 132.042969 C 208.070312 132.042969 210.28125 134.253906 210.28125 136.976562 L 210.28125 144.082031 L 164.738281 144.082031 Z M 249.390625 144.082031 L 215.386719 144.082031 L 215.386719 136.976562 C 215.386719 131.441406 210.882812 126.9375 205.351562 126.9375 L 169.671875 126.9375 C 164.136719 126.9375 159.632812 131.441406 159.632812 136.976562 L 159.632812 144.082031 L 125.628906 144.082031 C 118.441406 144.082031 112.59375 149.929688 112.59375 157.113281 L 112.59375 235.046875 C 112.59375 242.234375 118.441406 248.078125 125.628906 248.078125 L 249.390625 248.078125 C 256.574219 248.078125 262.421875 242.234375 262.421875 235.046875 L 262.421875 157.113281 C 262.421875 149.929688 256.574219 144.082031 249.390625 144.082031 " fill-opacity="1" fill-rule="nonzero"/></g></svg>