<svg xmlns="http://www.w3.org/2000/svg" xmlns:xlink="http://www.w3.org/1999/xlink" width="1920" zoomAndPan="magnify" viewBox="0 0 1440 809.999993" height="1080" preserveAspectRatio="xMidYMid meet" version="1.0"><defs><g/><clipPath id="a9eea2cad2"><path d="M 69 324.179688 L 258 324.179688 L 258 485.105469 L 69 485.105469 Z M 69 324.179688 " clip-rule="nonzero"/></clipPath></defs><g clip-path="url(#a9eea2cad2)"><path fill="#209d5c" d="M 244.441406 324.179688 C 238.167969 324.179688 231.894531 327.859375 228.023438 333.492188 C 226.5 335.710938 225.507812 338.039062 224.546875 340.347656 C 222.910156 344.300781 221.378906 348.203125 217.472656 351.425781 C 215.636719 352.945312 213.578125 354.179688 211.441406 355.066406 C 211.382812 355.089844 211.269531 355.132812 211.117188 355.179688 C 207.5625 356.34375 203.945312 356.34375 200.878906 355.179688 C 200.75 355.132812 200.652344 355.089844 200.605469 355.066406 C 198.84375 354.175781 197.3125 352.941406 196.121094 351.425781 C 193.589844 348.199219 193.714844 344.300781 193.753906 340.347656 C 193.777344 338.039062 193.773438 335.710938 193.191406 333.492188 C 191.722656 327.859375 187.015625 324.179688 180.738281 324.179688 C 180.640625 324.179688 180.542969 324.183594 180.445312 324.1875 C 180.347656 324.1875 180.253906 324.179688 180.160156 324.179688 C 173.882812 324.179688 167.605469 327.859375 163.742188 333.492188 C 162.21875 335.710938 161.222656 338.039062 160.265625 340.347656 C 158.625 344.300781 157.09375 348.203125 153.1875 351.425781 C 151.351562 352.945312 149.292969 354.179688 147.15625 355.066406 C 147.101562 355.089844 146.988281 355.132812 146.832031 355.179688 C 143.277344 356.34375 139.664062 356.34375 136.597656 355.179688 C 136.464844 355.132812 136.371094 355.089844 136.320312 355.066406 C 134.5625 354.175781 133.03125 352.941406 131.839844 351.425781 C 129.304688 348.199219 129.429688 344.300781 129.472656 340.347656 C 129.496094 338.039062 129.492188 335.710938 128.910156 333.492188 C 127.441406 327.859375 122.726562 324.179688 116.449219 324.179688 C 107.496094 324.179688 98.6875 331.441406 96.785156 340.394531 C 95.796875 345.050781 96.886719 349.550781 99.742188 352.613281 C 105.078125 358.335938 115.855469 355.183594 120.71875 361.773438 C 124.808594 367.320312 122.800781 377.097656 116.265625 382.722656 C 108.601562 389.3125 99.164062 386.160156 91.394531 391.882812 C 87.234375 394.945312 84.230469 399.445312 83.242188 404.101562 C 83.199219 404.308594 83.164062 404.515625 83.125 404.722656 C 83.074219 404.929688 83.019531 405.136719 82.980469 405.34375 C 81.992188 410 83.082031 414.503906 85.933594 417.5625 C 91.273438 423.285156 102.046875 420.136719 106.910156 426.726562 C 111.003906 432.269531 108.996094 442.046875 102.460938 447.671875 C 94.796875 454.261719 85.359375 451.109375 77.589844 456.832031 C 73.429688 459.894531 70.425781 464.394531 69.4375 469.050781 C 67.535156 478.007812 73.253906 485.265625 82.207031 485.265625 C 88.484375 485.265625 94.757812 481.585938 98.625 475.953125 C 100.148438 473.734375 101.144531 471.40625 102.101562 469.101562 C 103.742188 465.144531 105.273438 461.242188 109.175781 458.019531 C 111.015625 456.5 113.070312 455.269531 115.210938 454.378906 C 115.265625 454.355469 115.378906 454.316406 115.535156 454.265625 C 119.089844 453.105469 122.703125 453.105469 125.769531 454.265625 C 125.902344 454.316406 125.996094 454.355469 126.042969 454.378906 C 127.804688 455.273438 129.335938 456.503906 130.527344 458.019531 C 133.0625 461.246094 132.9375 465.144531 132.894531 469.101562 C 132.871094 471.40625 132.875 473.734375 133.457031 475.953125 C 134.925781 481.585938 139.640625 485.265625 145.917969 485.265625 C 146.015625 485.265625 146.109375 485.261719 146.207031 485.257812 C 146.304688 485.257812 146.398438 485.265625 146.492188 485.265625 C 152.769531 485.265625 159.042969 481.585938 162.914062 475.953125 C 164.433594 473.734375 165.429688 471.40625 166.386719 469.101562 C 168.027344 465.144531 169.558594 461.242188 173.464844 458.019531 C 175.300781 456.5 177.359375 455.269531 179.496094 454.378906 C 179.554688 454.355469 179.667969 454.316406 179.820312 454.265625 C 183.375 453.105469 186.992188 453.105469 190.054688 454.265625 C 190.1875 454.316406 190.28125 454.355469 190.332031 454.378906 C 192.09375 455.273438 193.621094 456.503906 194.8125 458.019531 C 197.347656 461.246094 197.222656 465.144531 197.183594 469.101562 C 197.160156 471.40625 197.164062 473.734375 197.742188 475.953125 C 199.214844 481.585938 203.925781 485.265625 210.203125 485.265625 C 219.15625 485.265625 227.964844 478.003906 229.867188 469.050781 C 230.855469 464.394531 229.765625 459.894531 226.914062 456.832031 C 221.574219 451.109375 210.800781 454.261719 205.9375 447.671875 C 201.859375 442.148438 203.882812 432.324219 210.386719 426.726562 C 218.054688 420.136719 227.488281 423.285156 235.257812 417.5625 C 239.417969 414.503906 242.421875 410 243.410156 405.34375 C 243.457031 405.136719 243.488281 404.929688 243.527344 404.722656 C 243.578125 404.515625 243.632812 404.308594 243.675781 404.101562 C 244.660156 399.445312 243.570312 394.945312 240.714844 391.882812 C 235.375 386.160156 224.601562 389.3125 219.738281 382.722656 C 215.664062 377.199219 217.683594 367.375 224.191406 361.773438 C 231.855469 355.183594 241.292969 358.335938 249.0625 352.613281 C 253.21875 349.550781 256.222656 345.050781 257.210938 340.394531 C 259.117188 331.441406 253.398438 324.179688 244.441406 324.179688 Z M 153.347656 372.25 C 155.328125 362.925781 164.496094 355.367188 173.820312 355.367188 C 183.140625 355.367188 189.09375 362.925781 187.113281 372.25 C 185.128906 381.570312 175.964844 389.128906 166.640625 389.128906 C 157.316406 389.128906 151.363281 381.570312 153.347656 372.25 Z M 127.59375 421.609375 C 118.269531 421.609375 112.316406 414.050781 114.300781 404.726562 C 116.285156 395.402344 125.449219 387.84375 134.773438 387.84375 C 144.097656 387.84375 150.046875 395.402344 148.066406 404.726562 C 146.082031 414.050781 136.921875 421.609375 127.59375 421.609375 Z M 173.304688 437.203125 C 171.328125 446.527344 162.15625 454.085938 152.835938 454.085938 C 143.511719 454.085938 137.558594 446.527344 139.542969 437.203125 C 141.523438 427.878906 150.691406 420.320312 160.011719 420.320312 C 169.335938 420.320312 175.289062 427.878906 173.304688 437.203125 Z M 212.351562 404.726562 C 210.371094 414.050781 201.203125 421.609375 191.882812 421.609375 C 182.558594 421.609375 176.605469 414.050781 178.589844 404.726562 C 180.570312 395.402344 189.734375 387.84375 199.058594 387.84375 C 208.382812 387.84375 214.335938 395.402344 212.351562 404.726562 Z M 212.351562 404.726562 " fill-opacity="1" fill-rule="nonzero"/></g><g fill="#209d5c" fill-opacity="1"><g transform="translate(370.200368, 433.189387)"><g><path d="M 48.5625 0 L 45.921875 -8.796875 L 24.046875 -8.796875 L 21.421875 0 L 0.90625 0 L 23.6875 -62.453125 L 47.015625 -62.453125 L 69.796875 0 Z M 28.234375 -22.78125 L 41.75 -22.78125 L 35.21875 -45.015625 L 34.859375 -45.015625 Z M 28.234375 -22.78125 "/></g></g></g><g fill="#209d5c" fill-opacity="1"><g transform="translate(438.986679, 433.189387)"><g><path d="M 38.484375 -49.015625 C 44.046875 -49.015625 48.21875 -47.46875 51 -44.375 C 53.789062 -41.289062 55.1875 -36.847656 55.1875 -31.046875 L 55.1875 0 L 37.125 0 L 37.125 -28.859375 C 37.125 -30.921875 36.59375 -32.570312 35.53125 -33.8125 C 34.476562 -35.050781 32.984375 -35.671875 31.046875 -35.671875 C 28.804688 -35.671875 26.988281 -34.941406 25.59375 -33.484375 C 24.207031 -32.035156 23.515625 -30.253906 23.515625 -28.140625 L 23.515625 0 L 5.453125 0 L 5.453125 -47.921875 L 20.234375 -47.921875 L 21.421875 -40.65625 C 23.296875 -43.195312 25.757812 -45.222656 28.8125 -46.734375 C 31.875 -48.253906 35.097656 -49.015625 38.484375 -49.015625 Z M 38.484375 -49.015625 "/></g></g></g><g fill="#209d5c" fill-opacity="1"><g transform="translate(497.699961, 433.189387)"><g><path d="M 40.296875 0 L 38.75 -6.8125 C 35.25 -1.539062 30.171875 1.09375 23.515625 1.09375 C 17.035156 1.09375 12.039062 -1.023438 8.53125 -5.265625 C 5.019531 -9.503906 3.265625 -15.765625 3.265625 -24.046875 C 3.265625 -32.273438 5.019531 -38.492188 8.53125 -42.703125 C 12.039062 -46.910156 17.035156 -49.015625 23.515625 -49.015625 C 29.015625 -49.015625 33.488281 -47.171875 36.9375 -43.484375 L 36.9375 -65.8125 L 55 -65.8125 L 55 0 Z M 29.140625 -35.671875 C 23.929688 -35.671875 21.328125 -32.554688 21.328125 -26.328125 L 21.328125 -21.515625 C 21.328125 -15.335938 23.929688 -12.25 29.140625 -12.25 C 31.796875 -12.25 33.789062 -13.1875 35.125 -15.0625 C 36.457031 -16.9375 37.125 -19.390625 37.125 -22.421875 L 37.125 -25.421875 C 37.125 -28.441406 36.457031 -30.90625 35.125 -32.8125 C 33.789062 -34.71875 31.796875 -35.671875 29.140625 -35.671875 Z M 29.140625 -35.671875 "/></g></g></g><g fill="#209d5c" fill-opacity="1"><g transform="translate(556.413237, 433.189387)"><g><path d="M 34.578125 -49.109375 C 35.972656 -49.109375 37.210938 -48.941406 38.296875 -48.609375 C 39.390625 -48.273438 39.9375 -48.078125 39.9375 -48.015625 L 39.9375 -32.859375 L 34.125 -32.859375 C 30.375 -32.859375 27.664062 -31.890625 26 -29.953125 C 24.34375 -28.015625 23.515625 -25.140625 23.515625 -21.328125 L 23.515625 0 L 5.453125 0 L 5.453125 -47.921875 L 20.234375 -47.921875 L 21.421875 -40.65625 C 22.503906 -43.445312 24.226562 -45.550781 26.59375 -46.96875 C 28.957031 -48.394531 31.617188 -49.109375 34.578125 -49.109375 Z M 34.578125 -49.109375 "/></g></g></g><g fill="#209d5c" fill-opacity="1"><g transform="translate(594.889692, 433.189387)"><g><path d="M 21.515625 -53.734375 L 29.953125 -65.8125 L 47.375 -65.8125 L 47.5625 -65.4375 L 33.125 -53.734375 Z M 30.21875 -49.015625 C 39 -49.015625 45.703125 -46.957031 50.328125 -42.84375 C 54.953125 -38.726562 57.265625 -32.4375 57.265625 -23.96875 L 57.265625 -20.875 L 21.328125 -20.875 C 21.328125 -17.425781 22.097656 -14.820312 23.640625 -13.0625 C 25.179688 -11.3125 27.617188 -10.4375 30.953125 -10.4375 C 33.972656 -10.4375 36.191406 -11.070312 37.609375 -12.34375 C 39.035156 -13.613281 39.75 -15.304688 39.75 -17.421875 L 57.265625 -17.421875 C 57.265625 -11.617188 55.054688 -7.082031 50.640625 -3.8125 C 46.222656 -0.539062 39.78125 1.09375 31.3125 1.09375 C 22.414062 1.09375 15.515625 -0.976562 10.609375 -5.125 C 5.710938 -9.269531 3.265625 -15.550781 3.265625 -23.96875 C 3.265625 -32.195312 5.65625 -38.425781 10.4375 -42.65625 C 15.21875 -46.894531 21.8125 -49.015625 30.21875 -49.015625 Z M 30.953125 -37.484375 C 25.265625 -37.484375 22.085938 -34.789062 21.421875 -29.40625 L 39.03125 -29.40625 C 39.03125 -31.882812 38.316406 -33.847656 36.890625 -35.296875 C 35.472656 -36.753906 33.492188 -37.484375 30.953125 -37.484375 Z M 30.953125 -37.484375 "/></g></g></g><g fill="#209d5c" fill-opacity="1"><g transform="translate(653.602967, 433.189387)"><g><path d="M 28.234375 -49.015625 C 34.640625 -49.015625 40.066406 -47.757812 44.515625 -45.25 C 48.960938 -42.738281 51.1875 -38.847656 51.1875 -33.578125 L 34.40625 -33.578125 C 34.40625 -35.335938 33.617188 -36.582031 32.046875 -37.3125 C 30.953125 -37.914062 29.585938 -38.21875 27.953125 -38.21875 C 23.597656 -38.21875 21.421875 -37.1875 21.421875 -35.125 C 21.421875 -33.976562 22.175781 -33.160156 23.6875 -32.671875 C 25.195312 -32.191406 27.675781 -31.675781 31.125 -31.125 C 35.363281 -30.519531 38.90625 -29.8125 41.75 -29 C 44.59375 -28.1875 47.070312 -26.734375 49.1875 -24.640625 C 51.3125 -22.554688 52.375 -19.640625 52.375 -15.890625 C 52.375 -9.773438 50.085938 -5.414062 45.515625 -2.8125 C 40.953125 -0.207031 34.976562 1.09375 27.59375 1.09375 C 23.351562 1.09375 19.359375 0.503906 15.609375 -0.671875 C 11.859375 -1.859375 8.800781 -3.691406 6.4375 -6.171875 C 4.082031 -8.648438 2.90625 -11.796875 2.90625 -15.609375 L 19.703125 -15.609375 L 19.703125 -15.25 C 19.753906 -13.1875 20.613281 -11.75 22.28125 -10.9375 C 23.945312 -10.125 25.71875 -9.71875 27.59375 -9.71875 C 32.613281 -9.71875 35.125 -10.894531 35.125 -13.25 C 35.125 -14.457031 34.335938 -15.332031 32.765625 -15.875 C 31.191406 -16.425781 28.617188 -17.003906 25.046875 -17.609375 C 20.753906 -18.335938 17.226562 -19.125 14.46875 -19.96875 C 11.71875 -20.8125 9.3125 -22.25 7.25 -24.28125 C 5.195312 -26.3125 4.171875 -29.140625 4.171875 -32.765625 C 4.171875 -38.640625 6.394531 -42.816406 10.84375 -45.296875 C 15.289062 -47.773438 21.085938 -49.015625 28.234375 -49.015625 Z M 28.234375 -49.015625 "/></g></g></g><g fill="#209d5c" fill-opacity="1"><g transform="translate(707.234346, 433.189387)"><g/></g></g><g fill="#209d5c" fill-opacity="1"><g transform="translate(735.637787, 433.189387)"><g><path d="M 33.765625 -62.453125 C 55.609375 -62.453125 66.53125 -52.039062 66.53125 -31.21875 C 66.53125 -10.40625 55.609375 0 33.765625 0 L 6.71875 0 L 6.71875 -62.453125 Z M 26.78125 -14.96875 L 33.40625 -14.96875 C 41.8125 -14.96875 46.015625 -19.476562 46.015625 -28.5 L 46.015625 -33.953125 C 46.015625 -42.960938 41.8125 -47.46875 33.40625 -47.46875 L 26.78125 -47.46875 Z M 26.78125 -14.96875 "/></g></g></g><g fill="#209d5c" fill-opacity="1"><g transform="translate(804.424105, 433.189387)"><g><path d="M 29.140625 -49.015625 C 36.460938 -49.015625 42.421875 -47.785156 47.015625 -45.328125 C 51.617188 -42.878906 53.921875 -38.90625 53.921875 -33.40625 L 53.921875 -14.703125 C 53.921875 -13.671875 54.160156 -12.820312 54.640625 -12.15625 C 55.117188 -11.5 55.84375 -11.171875 56.8125 -11.171875 L 60.09375 -11.171875 L 60.09375 -0.71875 C 59.90625 -0.601562 59.429688 -0.410156 58.671875 -0.140625 C 57.921875 0.128906 56.847656 0.398438 55.453125 0.671875 C 54.066406 0.953125 52.460938 1.09375 50.640625 1.09375 C 47.140625 1.09375 44.253906 0.5625 41.984375 -0.5 C 39.710938 -1.5625 38.15625 -3.03125 37.3125 -4.90625 C 35.007812 -3.082031 32.4375 -1.625 29.59375 -0.53125 C 26.75 0.550781 23.421875 1.09375 19.609375 1.09375 C 8.347656 1.09375 2.71875 -3.382812 2.71875 -12.34375 C 2.71875 -17 3.972656 -20.550781 6.484375 -23 C 8.992188 -25.457031 12.609375 -27.140625 17.328125 -28.046875 C 22.054688 -28.953125 28.234375 -29.40625 35.859375 -29.40625 L 35.859375 -31.765625 C 35.859375 -33.640625 35.207031 -35.0625 33.90625 -36.03125 C 32.601562 -37 30.921875 -37.484375 28.859375 -37.484375 C 26.984375 -37.484375 25.363281 -37.148438 24 -36.484375 C 22.644531 -35.816406 21.96875 -34.757812 21.96875 -33.3125 L 21.96875 -32.953125 L 4.171875 -32.953125 C 4.109375 -33.253906 4.078125 -33.675781 4.078125 -34.21875 C 4.078125 -38.757812 6.238281 -42.359375 10.5625 -45.015625 C 14.894531 -47.679688 21.085938 -49.015625 29.140625 -49.015625 Z M 35.859375 -20.875 C 30.710938 -20.875 26.910156 -20.3125 24.453125 -19.1875 C 22.003906 -18.070312 20.78125 -16.578125 20.78125 -14.703125 C 20.78125 -11.679688 22.835938 -10.171875 26.953125 -10.171875 C 29.316406 -10.171875 31.390625 -10.804688 33.171875 -12.078125 C 34.960938 -13.347656 35.859375 -14.921875 35.859375 -16.796875 Z M 35.859375 -20.875 "/></g></g></g><g fill="#209d5c" fill-opacity="1"><g transform="translate(863.137365, 433.189387)"><g><path d="M 6.078125 0 L 6.078125 -65.8125 L 24.140625 -65.8125 L 24.140625 0 Z M 6.078125 0 "/></g></g></g><g fill="#209d5c" fill-opacity="1"><g transform="translate(891.540777, 433.189387)"><g><path d="M 6.078125 0 L 6.078125 -65.8125 L 24.140625 -65.8125 L 24.140625 0 Z M 6.078125 0 "/></g></g></g><g fill="#209d5c" fill-opacity="1"><g transform="translate(919.944189, 433.189387)"><g><path d="M 29.140625 -49.015625 C 36.460938 -49.015625 42.421875 -47.785156 47.015625 -45.328125 C 51.617188 -42.878906 53.921875 -38.90625 53.921875 -33.40625 L 53.921875 -14.703125 C 53.921875 -13.671875 54.160156 -12.820312 54.640625 -12.15625 C 55.117188 -11.5 55.84375 -11.171875 56.8125 -11.171875 L 60.09375 -11.171875 L 60.09375 -0.71875 C 59.90625 -0.601562 59.429688 -0.410156 58.671875 -0.140625 C 57.921875 0.128906 56.847656 0.398438 55.453125 0.671875 C 54.066406 0.953125 52.460938 1.09375 50.640625 1.09375 C 47.140625 1.09375 44.253906 0.5625 41.984375 -0.5 C 39.710938 -1.5625 38.15625 -3.03125 37.3125 -4.90625 C 35.007812 -3.082031 32.4375 -1.625 29.59375 -0.53125 C 26.75 0.550781 23.421875 1.09375 19.609375 1.09375 C 8.347656 1.09375 2.71875 -3.382812 2.71875 -12.34375 C 2.71875 -17 3.972656 -20.550781 6.484375 -23 C 8.992188 -25.457031 12.609375 -27.140625 17.328125 -28.046875 C 22.054688 -28.953125 28.234375 -29.40625 35.859375 -29.40625 L 35.859375 -31.765625 C 35.859375 -33.640625 35.207031 -35.0625 33.90625 -36.03125 C 32.601562 -37 30.921875 -37.484375 28.859375 -37.484375 C 26.984375 -37.484375 25.363281 -37.148438 24 -36.484375 C 22.644531 -35.816406 21.96875 -34.757812 21.96875 -33.3125 L 21.96875 -32.953125 L 4.171875 -32.953125 C 4.109375 -33.253906 4.078125 -33.675781 4.078125 -34.21875 C 4.078125 -38.757812 6.238281 -42.359375 10.5625 -45.015625 C 14.894531 -47.679688 21.085938 -49.015625 29.140625 -49.015625 Z M 35.859375 -20.875 C 30.710938 -20.875 26.910156 -20.3125 24.453125 -19.1875 C 22.003906 -18.070312 20.78125 -16.578125 20.78125 -14.703125 C 20.78125 -11.679688 22.835938 -10.171875 26.953125 -10.171875 C 29.316406 -10.171875 31.390625 -10.804688 33.171875 -12.078125 C 34.960938 -13.347656 35.859375 -14.921875 35.859375 -16.796875 Z M 35.859375 -20.875 "/></g></g></g><g fill="#209d5c" fill-opacity="1"><g transform="translate(978.65748, 433.189387)"><g/></g></g><g fill="#209d5c" fill-opacity="1"><g transform="translate(1007.060892, 433.189387)"><g><path d="M 65.984375 -43.296875 C 65.984375 -39.484375 64.953125 -36.03125 62.890625 -32.9375 C 60.835938 -29.851562 57.847656 -27.585938 53.921875 -26.140625 L 67.796875 0 L 45.296875 0 L 34.21875 -22.78125 L 26.78125 -22.78125 L 26.78125 0 L 6.71875 0 L 6.71875 -62.453125 L 44.921875 -62.453125 C 49.398438 -62.453125 53.226562 -61.585938 56.40625 -59.859375 C 59.582031 -58.128906 61.972656 -55.796875 63.578125 -52.859375 C 65.179688 -49.929688 65.984375 -46.742188 65.984375 -43.296875 Z M 45.5625 -42.484375 C 45.5625 -44.109375 45.015625 -45.46875 43.921875 -46.5625 C 42.835938 -47.65625 41.507812 -48.203125 39.9375 -48.203125 L 26.78125 -48.203125 L 26.78125 -36.671875 L 39.9375 -36.671875 C 41.507812 -36.671875 42.835938 -37.226562 43.921875 -38.34375 C 45.015625 -39.46875 45.5625 -40.847656 45.5625 -42.484375 Z M 45.5625 -42.484375 "/></g></g></g><g fill="#209d5c" fill-opacity="1"><g transform="translate(1075.84721, 433.189387)"><g><path d="M 6.078125 -53.546875 L 6.078125 -65.8125 L 24.140625 -65.8125 L 24.140625 -53.546875 Z M 6.078125 0 L 6.078125 -47.921875 L 24.140625 -47.921875 L 24.140625 0 Z M 6.078125 0 "/></g></g></g><g fill="#209d5c" fill-opacity="1"><g transform="translate(1104.250622, 433.189387)"><g><path d="M 27.40625 -12.25 L 48.5625 -12.25 L 48.5625 0 L 1.8125 0 L 1.8125 -5.90625 L 21.96875 -35.671875 L 2.90625 -35.671875 L 2.90625 -47.921875 L 47.75 -47.921875 L 47.75 -42.296875 Z M 27.40625 -12.25 "/></g></g></g><g fill="#209d5c" fill-opacity="1"><g transform="translate(1152.890883, 433.189387)"><g><path d="M 27.40625 -12.25 L 48.5625 -12.25 L 48.5625 0 L 1.8125 0 L 1.8125 -5.90625 L 21.96875 -35.671875 L 2.90625 -35.671875 L 2.90625 -47.921875 L 47.75 -47.921875 L 47.75 -42.296875 Z M 27.40625 -12.25 "/></g></g></g><g fill="#209d5c" fill-opacity="1"><g transform="translate(1201.531144, 433.189387)"><g><path d="M 29.140625 -49.015625 C 36.460938 -49.015625 42.421875 -47.785156 47.015625 -45.328125 C 51.617188 -42.878906 53.921875 -38.90625 53.921875 -33.40625 L 53.921875 -14.703125 C 53.921875 -13.671875 54.160156 -12.820312 54.640625 -12.15625 C 55.117188 -11.5 55.84375 -11.171875 56.8125 -11.171875 L 60.09375 -11.171875 L 60.09375 -0.71875 C 59.90625 -0.601562 59.429688 -0.410156 58.671875 -0.140625 C 57.921875 0.128906 56.847656 0.398438 55.453125 0.671875 C 54.066406 0.953125 52.460938 1.09375 50.640625 1.09375 C 47.140625 1.09375 44.253906 0.5625 41.984375 -0.5 C 39.710938 -1.5625 38.15625 -3.03125 37.3125 -4.90625 C 35.007812 -3.082031 32.4375 -1.625 29.59375 -0.53125 C 26.75 0.550781 23.421875 1.09375 19.609375 1.09375 C 8.347656 1.09375 2.71875 -3.382812 2.71875 -12.34375 C 2.71875 -17 3.972656 -20.550781 6.484375 -23 C 8.992188 -25.457031 12.609375 -27.140625 17.328125 -28.046875 C 22.054688 -28.953125 28.234375 -29.40625 35.859375 -29.40625 L 35.859375 -31.765625 C 35.859375 -33.640625 35.207031 -35.0625 33.90625 -36.03125 C 32.601562 -37 30.921875 -37.484375 28.859375 -37.484375 C 26.984375 -37.484375 25.363281 -37.148438 24 -36.484375 C 22.644531 -35.816406 21.96875 -34.757812 21.96875 -33.3125 L 21.96875 -32.953125 L 4.171875 -32.953125 C 4.109375 -33.253906 4.078125 -33.675781 4.078125 -34.21875 C 4.078125 -38.757812 6.238281 -42.359375 10.5625 -45.015625 C 14.894531 -47.679688 21.085938 -49.015625 29.140625 -49.015625 Z M 35.859375 -20.875 C 30.710938 -20.875 26.910156 -20.3125 24.453125 -19.1875 C 22.003906 -18.070312 20.78125 -16.578125 20.78125 -14.703125 C 20.78125 -11.679688 22.835938 -10.171875 26.953125 -10.171875 C 29.316406 -10.171875 31.390625 -10.804688 33.171875 -12.078125 C 34.960938 -13.347656 35.859375 -14.921875 35.859375 -16.796875 Z M 35.859375 -20.875 "/></g></g></g></svg>