<svg xmlns="http://www.w3.org/2000/svg" xmlns:xlink="http://www.w3.org/1999/xlink" width="500" zoomAndPan="magnify" viewBox="0 0 375 374.999991" height="500" preserveAspectRatio="xMidYMid meet" version="1.0"><defs><g/></defs><rect x="-37.5" width="450" fill="#ffffff" y="-37.499999" height="449.999989" fill-opacity="1"/><rect x="-37.5" width="450" fill="#ffffff" y="-37.499999" height="449.999989" fill-opacity="1"/><g fill="#000000" fill-opacity="1"><g transform="translate(3.421879, 196.025027)"><g><path d="M 22.71875 -4.125 C 22.203125 -5.609375 16.1875 -21.703125 16.1875 -21.703125 L 7.21875 -21.703125 L 7.21875 -19.53125 C 8.859375 -19.53125 9.296875 -18.84375 8.890625 -17.671875 C 8.5625 -16.703125 4.46875 -5.640625 3.53125 -4.28125 C 2.578125 -2.890625 1.578125 -2.171875 0.3125 -2.171875 L 0.3125 0 L 9.515625 0 L 9.515625 -2.171875 C 7.0625 -2.171875 5.390625 -3.09375 6.265625 -5.234375 C 6.421875 -5.609375 6.734375 -6.390625 7.09375 -7.40625 L 14.96875 -7.40625 C 15.71875 -5.359375 16.28125 -3.84375 16.34375 -3.65625 C 16.703125 -2.734375 16.21875 -2.171875 15.03125 -2.171875 L 15.03125 0 L 25.234375 0 L 25.234375 -2.171875 C 24.09375 -2.171875 23.28125 -2.578125 22.71875 -4.125 Z M 7.96875 -9.640625 C 8.953125 -12.1875 10.171875 -15.34375 11.09375 -17.765625 C 11.75 -15.96875 13.015625 -12.609375 14.140625 -9.640625 Z M 7.96875 -9.640625 "/></g></g></g><g fill="#000000" fill-opacity="1"><g transform="translate(28.962699, 196.025027)"><g><path d="M 15.375 -21.703125 L 15.375 -19.53125 C 16.640625 -19.53125 17.203125 -18.96875 17.203125 -18.078125 L 17.203125 -10.75 L 8.953125 -21.703125 L 1.234375 -21.703125 L 1.234375 -19.53125 C 2.453125 -19.53125 3.03125 -19.03125 3.09375 -18.234375 L 3.09375 -3.625 C 3.09375 -2.734375 2.515625 -2.171875 1.234375 -2.171875 L 1.234375 0 L 2.578125 0 C 3.375 0 3.9375 -0.40625 4.21875 -0.96875 C 4.5 -0.40625 5.046875 0 5.859375 0 L 7.1875 0 L 7.1875 -2.171875 C 5.921875 -2.171875 5.328125 -2.734375 5.328125 -3.625 L 5.328125 -16.828125 L 17.703125 0 L 19.4375 0 L 19.4375 -18.078125 C 19.4375 -18.96875 20.03125 -19.53125 21.296875 -19.53125 L 21.296875 -21.703125 Z M 15.375 -21.703125 "/></g></g></g><g fill="#000000" fill-opacity="1"><g transform="translate(51.186929, 196.025027)"><g><path d="M 13.078125 -21.703125 L 1.234375 -21.703125 L 1.234375 -19.53125 C 2.515625 -19.53125 3.0625 -18.96875 3.0625 -18.078125 L 3.0625 -3.625 C 3.0625 -2.734375 2.515625 -2.171875 1.234375 -2.171875 L 1.234375 0 L 13.078125 0 C 21.296875 0 23.46875 -6.078125 23.46875 -10.8125 C 23.46875 -15.5625 21.296875 -21.703125 13.078125 -21.703125 Z M 11.375 -2.171875 L 9.546875 -2.171875 L 9.546875 -19.53125 L 11.375 -19.53125 C 15.625 -19.53125 16.671875 -13.640625 16.671875 -10.8125 C 16.671875 -7.96875 15.625 -2.171875 11.375 -2.171875 Z M 11.375 -2.171875 "/></g></g></g><g fill="#000000" fill-opacity="1"><g transform="translate(75.58089, 196.025027)"><g><path d="M 20.125 -4 C 19.65625 -4.921875 18.46875 -8.15625 16.46875 -9.453125 C 18.46875 -10.609375 19.625 -12.59375 19.625 -15.09375 C 19.625 -19.25 16.890625 -21.703125 12.53125 -21.703125 L 1.234375 -21.703125 L 1.234375 -19.5625 C 2.515625 -19.5625 3.09375 -18.96875 3.09375 -18.078125 L 3.09375 -3.65625 C 3.09375 -2.734375 2.515625 -2.171875 1.234375 -2.171875 L 1.234375 0 L 4.6875 0 C 5.484375 0 6.078125 -0.40625 6.359375 -0.96875 C 6.609375 -0.40625 7.1875 0 8 0 L 11.4375 0 L 11.4375 -2.171875 C 10.171875 -2.171875 9.578125 -2.734375 9.578125 -3.65625 L 9.578125 -8.5 L 10.328125 -8.5 C 12.671875 -8.5 13.640625 -3.40625 14.9375 -1.265625 C 16.703125 1.640625 22.9375 0 22.9375 0 L 22.9375 -2.171875 C 21.453125 -2.171875 20.859375 -2.578125 20.125 -4 Z M 9.578125 -10.75 L 9.578125 -19.53125 C 12.0625 -19.28125 13.515625 -17.921875 13.515625 -15.09375 C 13.515625 -12.3125 12.0625 -10.96875 9.578125 -10.75 Z M 9.578125 -10.75 "/></g></g></g><g fill="#000000" fill-opacity="1"><g transform="translate(98.982981, 196.025027)"><g><path d="M 13.609375 -19.53125 C 16 -19.53125 16.984375 -17.078125 16.984375 -15.0625 L 18.296875 -15.0625 L 18.296875 -21.703125 L 1.234375 -21.703125 L 1.234375 -19.53125 C 2.515625 -19.53125 3.09375 -18.96875 3.09375 -18.078125 L 3.09375 -3.625 C 3.09375 -2.734375 2.515625 -2.171875 1.234375 -2.171875 L 1.234375 0 L 18.296875 0 L 18.296875 -6.640625 L 16.984375 -6.640625 C 16.984375 -4.625 16 -2.171875 13.609375 -2.171875 L 9.578125 -2.171875 L 9.578125 -9.984375 C 9.890625 -9.984375 10.265625 -9.921875 10.65625 -9.890625 C 12.921875 -9.609375 13.453125 -7.5 13.453125 -5.953125 L 14.75 -5.953125 L 14.75 -15.75 L 13.453125 -15.75 C 13.453125 -14.234375 12.921875 -12.125 10.65625 -11.8125 C 10.265625 -11.78125 9.890625 -11.75 9.578125 -11.71875 L 9.578125 -19.53125 Z M 15 -27.625 L 15 -29.296875 L 11.21875 -29.296875 L 8.859375 -24.609375 L 10.65625 -24.609375 Z M 15 -27.625 "/></g></g></g><g fill="#000000" fill-opacity="1"><g transform="translate(118.510548, 196.025027)"><g><path d="M 16.375 -5.578125 C 16.21875 -11.78125 8.984375 -12.703125 7.625 -16.515625 C 7.0625 -18.109375 7.9375 -20 9.984375 -20 C 13.546875 -20 14.171875 -18.078125 14.171875 -14.75 L 15.46875 -14.75 L 15.46875 -20.609375 C 12.4375 -21.703125 10.015625 -22.109375 8.28125 -22.109375 C 3.6875 -22.109375 1.046875 -19.6875 1.015625 -16.46875 C 0.9375 -9.078125 8.4375 -9.546875 9.359375 -4.71875 C 9.765625 -2.609375 8.5 -1.546875 6.359375 -1.640625 C 2.796875 -1.765625 2.234375 -3.53125 2.234375 -6.84375 L 0.9375 -6.84375 L 0.9375 -1.015625 C 4.1875 0.46875 7.625 0.46875 9.359375 0.46875 C 13.359375 0.46875 16.46875 -1.296875 16.375 -5.578125 Z M 16.375 -5.578125 "/></g></g></g><g fill="#000000" fill-opacity="1"><g transform="translate(135.837394, 196.025027)"><g/></g></g><g fill="#000000" fill-opacity="1"><g transform="translate(145.725169, 196.025027)"><g><path d="M 13.078125 -21.703125 L 1.234375 -21.703125 L 1.234375 -19.53125 C 2.515625 -19.53125 3.0625 -18.96875 3.0625 -18.078125 L 3.0625 -3.625 C 3.0625 -2.734375 2.515625 -2.171875 1.234375 -2.171875 L 1.234375 0 L 13.078125 0 C 21.296875 0 23.46875 -6.078125 23.46875 -10.8125 C 23.46875 -15.5625 21.296875 -21.703125 13.078125 -21.703125 Z M 11.375 -2.171875 L 9.546875 -2.171875 L 9.546875 -19.53125 L 11.375 -19.53125 C 15.625 -19.53125 16.671875 -13.640625 16.671875 -10.8125 C 16.671875 -7.96875 15.625 -2.171875 11.375 -2.171875 Z M 11.375 -2.171875 "/></g></g></g><g fill="#000000" fill-opacity="1"><g transform="translate(170.11913, 196.025027)"><g><path d="M 22.71875 -4.125 C 22.203125 -5.609375 16.1875 -21.703125 16.1875 -21.703125 L 7.21875 -21.703125 L 7.21875 -19.53125 C 8.859375 -19.53125 9.296875 -18.84375 8.890625 -17.671875 C 8.5625 -16.703125 4.46875 -5.640625 3.53125 -4.28125 C 2.578125 -2.890625 1.578125 -2.171875 0.3125 -2.171875 L 0.3125 0 L 9.515625 0 L 9.515625 -2.171875 C 7.0625 -2.171875 5.390625 -3.09375 6.265625 -5.234375 C 6.421875 -5.609375 6.734375 -6.390625 7.09375 -7.40625 L 14.96875 -7.40625 C 15.71875 -5.359375 16.28125 -3.84375 16.34375 -3.65625 C 16.703125 -2.734375 16.21875 -2.171875 15.03125 -2.171875 L 15.03125 0 L 25.234375 0 L 25.234375 -2.171875 C 24.09375 -2.171875 23.28125 -2.578125 22.71875 -4.125 Z M 7.96875 -9.640625 C 8.953125 -12.1875 10.171875 -15.34375 11.09375 -17.765625 C 11.75 -15.96875 13.015625 -12.609375 14.140625 -9.640625 Z M 7.96875 -9.640625 "/></g></g></g><g fill="#000000" fill-opacity="1"><g transform="translate(195.659949, 196.025027)"><g><path d="M 17.296875 -6.640625 C 17.296875 -4.625 16.3125 -2.171875 13.953125 -2.171875 L 9.578125 -2.171875 L 9.578125 -18.078125 C 9.578125 -18.96875 10.171875 -19.53125 11.4375 -19.53125 L 11.4375 -21.703125 L 1.234375 -21.703125 L 1.234375 -19.53125 C 2.515625 -19.53125 3.09375 -18.96875 3.09375 -18.078125 L 3.09375 -3.625 C 3.09375 -2.734375 2.515625 -2.171875 1.234375 -2.171875 L 1.234375 0 L 18.625 0 L 18.625 -6.640625 Z M 17.296875 -6.640625 "/></g></g></g><g fill="#000000" fill-opacity="1"><g transform="translate(215.528471, 196.025027)"><g><path d="M 17.296875 -6.640625 C 17.296875 -4.625 16.3125 -2.171875 13.953125 -2.171875 L 9.578125 -2.171875 L 9.578125 -18.078125 C 9.578125 -18.96875 10.171875 -19.53125 11.4375 -19.53125 L 11.4375 -21.703125 L 1.234375 -21.703125 L 1.234375 -19.53125 C 2.515625 -19.53125 3.09375 -18.96875 3.09375 -18.078125 L 3.09375 -3.625 C 3.09375 -2.734375 2.515625 -2.171875 1.234375 -2.171875 L 1.234375 0 L 18.625 0 L 18.625 -6.640625 Z M 17.296875 -6.640625 "/></g></g></g><g fill="#000000" fill-opacity="1"><g transform="translate(235.396993, 196.025027)"><g><path d="M 22.71875 -4.125 C 22.203125 -5.609375 16.1875 -21.703125 16.1875 -21.703125 L 7.21875 -21.703125 L 7.21875 -19.53125 C 8.859375 -19.53125 9.296875 -18.84375 8.890625 -17.671875 C 8.5625 -16.703125 4.46875 -5.640625 3.53125 -4.28125 C 2.578125 -2.890625 1.578125 -2.171875 0.3125 -2.171875 L 0.3125 0 L 9.515625 0 L 9.515625 -2.171875 C 7.0625 -2.171875 5.390625 -3.09375 6.265625 -5.234375 C 6.421875 -5.609375 6.734375 -6.390625 7.09375 -7.40625 L 14.96875 -7.40625 C 15.71875 -5.359375 16.28125 -3.84375 16.34375 -3.65625 C 16.703125 -2.734375 16.21875 -2.171875 15.03125 -2.171875 L 15.03125 0 L 25.234375 0 L 25.234375 -2.171875 C 24.09375 -2.171875 23.28125 -2.578125 22.71875 -4.125 Z M 7.96875 -9.640625 C 8.953125 -12.1875 10.171875 -15.34375 11.09375 -17.765625 C 11.75 -15.96875 13.015625 -12.609375 14.140625 -9.640625 Z M 7.96875 -9.640625 "/></g></g></g><g fill="#000000" fill-opacity="1"><g transform="translate(260.937823, 196.025027)"><g/></g></g><g fill="#000000" fill-opacity="1"><g transform="translate(270.82561, 196.025027)"><g><path d="M 20.125 -4 C 19.65625 -4.921875 18.46875 -8.15625 16.46875 -9.453125 C 18.46875 -10.609375 19.625 -12.59375 19.625 -15.09375 C 19.625 -19.25 16.890625 -21.703125 12.53125 -21.703125 L 1.234375 -21.703125 L 1.234375 -19.5625 C 2.515625 -19.5625 3.09375 -18.96875 3.09375 -18.078125 L 3.09375 -3.65625 C 3.09375 -2.734375 2.515625 -2.171875 1.234375 -2.171875 L 1.234375 0 L 4.6875 0 C 5.484375 0 6.078125 -0.40625 6.359375 -0.96875 C 6.609375 -0.40625 7.1875 0 8 0 L 11.4375 0 L 11.4375 -2.171875 C 10.171875 -2.171875 9.578125 -2.734375 9.578125 -3.65625 L 9.578125 -8.5 L 10.328125 -8.5 C 12.671875 -8.5 13.640625 -3.40625 14.9375 -1.265625 C 16.703125 1.640625 22.9375 0 22.9375 0 L 22.9375 -2.171875 C 21.453125 -2.171875 20.859375 -2.578125 20.125 -4 Z M 9.578125 -10.75 L 9.578125 -19.53125 C 12.0625 -19.28125 13.515625 -17.921875 13.515625 -15.09375 C 13.515625 -12.3125 12.0625 -10.96875 9.578125 -10.75 Z M 9.578125 -10.75 "/></g></g></g><g fill="#000000" fill-opacity="1"><g transform="translate(294.2277, 196.025027)"><g><path d="M 11.4375 -19.53125 L 11.4375 -21.703125 L 1.234375 -21.703125 L 1.234375 -19.53125 C 2.515625 -19.53125 3.09375 -18.96875 3.09375 -18.078125 L 3.09375 -3.625 C 3.09375 -2.734375 2.515625 -2.171875 1.234375 -2.171875 L 1.234375 0 L 4.6875 0 C 5.484375 0 6.078125 -0.40625 6.328125 -0.96875 C 6.609375 -0.40625 7.1875 0 8 0 L 11.4375 0 L 11.4375 -2.171875 C 10.171875 -2.171875 9.578125 -2.734375 9.578125 -3.625 L 9.578125 -18.078125 C 9.578125 -18.96875 10.171875 -19.53125 11.4375 -19.53125 Z M 11.4375 -19.53125 "/></g></g></g><g fill="#000000" fill-opacity="1"><g transform="translate(306.905121, 196.025027)"><g><path d="M 17.015625 -6.640625 C 17.015625 -4.625 16 -2.171875 13.640625 -2.171875 L 7.84375 -2.171875 L 18.171875 -19.5625 L 18.171875 -21.703125 L 1.671875 -21.703125 L 1.671875 -15.0625 L 2.96875 -15.0625 C 2.96875 -17.109375 3.96875 -19.5625 6.359375 -19.5625 L 11.5625 -19.5625 L 1.234375 -2.171875 L 1.234375 0 L 18.328125 0 L 18.328125 -6.640625 Z M 17.015625 -6.640625 "/></g></g></g><g fill="#000000" fill-opacity="1"><g transform="translate(326.46369, 196.025027)"><g><path d="M 17.015625 -6.640625 C 17.015625 -4.625 16 -2.171875 13.640625 -2.171875 L 7.84375 -2.171875 L 18.171875 -19.5625 L 18.171875 -21.703125 L 1.671875 -21.703125 L 1.671875 -15.0625 L 2.96875 -15.0625 C 2.96875 -17.109375 3.96875 -19.5625 6.359375 -19.5625 L 11.5625 -19.5625 L 1.234375 -2.171875 L 1.234375 0 L 18.328125 0 L 18.328125 -6.640625 Z M 17.015625 -6.640625 "/></g></g></g><g fill="#000000" fill-opacity="1"><g transform="translate(346.022259, 196.025027)"><g><path d="M 22.71875 -4.125 C 22.203125 -5.609375 16.1875 -21.703125 16.1875 -21.703125 L 7.21875 -21.703125 L 7.21875 -19.53125 C 8.859375 -19.53125 9.296875 -18.84375 8.890625 -17.671875 C 8.5625 -16.703125 4.46875 -5.640625 3.53125 -4.28125 C 2.578125 -2.890625 1.578125 -2.171875 0.3125 -2.171875 L 0.3125 0 L 9.515625 0 L 9.515625 -2.171875 C 7.0625 -2.171875 5.390625 -3.09375 6.265625 -5.234375 C 6.421875 -5.609375 6.734375 -6.390625 7.09375 -7.40625 L 14.96875 -7.40625 C 15.71875 -5.359375 16.28125 -3.84375 16.34375 -3.65625 C 16.703125 -2.734375 16.21875 -2.171875 15.03125 -2.171875 L 15.03125 0 L 25.234375 0 L 25.234375 -2.171875 C 24.09375 -2.171875 23.28125 -2.578125 22.71875 -4.125 Z M 7.96875 -9.640625 C 8.953125 -12.1875 10.171875 -15.34375 11.09375 -17.765625 C 11.75 -15.96875 13.015625 -12.609375 14.140625 -9.640625 Z M 7.96875 -9.640625 "/></g></g></g></svg>