<svg xmlns="http://www.w3.org/2000/svg" xmlns:xlink="http://www.w3.org/1999/xlink" width="500" zoomAndPan="magnify" viewBox="0 0 375 374.999991" height="500" preserveAspectRatio="xMidYMid meet" version="1.0"><defs><g/></defs><rect x="-37.5" width="450" fill="#ffffff" y="-37.499999" height="449.999989" fill-opacity="1"/><rect x="-37.5" width="450" fill="#ffffff" y="-37.499999" height="449.999989" fill-opacity="1"/><g fill="#000000" fill-opacity="1"><g transform="translate(12.132943, 181.240241)"><g><path d="M 0.84375 0 L 5.5 -48.203125 L 21.828125 -48.203125 L 26.421875 0 L 17.28125 0 L 16.609375 -7.796875 L 10.765625 -7.796875 L 10.21875 0 Z M 11.5 -15.484375 L 15.875 -15.484375 L 13.75 -40 L 13.296875 -40 Z M 11.5 -15.484375 "/></g></g></g><g fill="#000000" fill-opacity="1"><g transform="translate(36.254066, 181.240241)"><g><path d="M 1.96875 -41.078125 L 11.78125 -41.078125 L 11.78125 -35.859375 C 12.195312 -37.535156 12.910156 -38.894531 13.921875 -39.9375 C 14.929688 -40.988281 16.273438 -41.515625 17.953125 -41.515625 C 20.722656 -41.515625 22.769531 -40.664062 24.09375 -38.96875 C 25.425781 -37.269531 26.09375 -34.847656 26.09375 -31.703125 L 26.09375 0 L 16.4375 0 L 16.4375 -30.6875 C 16.4375 -31.582031 16.257812 -32.347656 15.90625 -32.984375 C 15.550781 -33.628906 15 -33.953125 14.25 -33.953125 C 13.238281 -33.953125 12.570312 -33.492188 12.25 -32.578125 C 11.9375 -31.660156 11.78125 -30.429688 11.78125 -28.890625 L 11.78125 0 L 1.96875 0 Z M 1.96875 -41.078125 "/></g></g></g><g fill="#000000" fill-opacity="1"><g transform="translate(61.160551, 181.240241)"><g><path d="M 10.046875 0.453125 C 7.648438 0.453125 5.84375 -0.113281 4.625 -1.25 C 3.414062 -2.394531 2.613281 -3.910156 2.21875 -5.796875 C 1.820312 -7.691406 1.625 -10.117188 1.625 -13.078125 L 1.734375 -31.59375 C 1.734375 -34.507812 2.472656 -36.890625 3.953125 -38.734375 C 5.429688 -40.585938 7.519531 -41.515625 10.21875 -41.515625 C 12.875 -41.515625 14.851562 -40.640625 16.15625 -38.890625 L 16.15625 -48.484375 L 25.984375 -48.484375 L 25.984375 0 L 16.15625 0 L 16.15625 -4.375 C 15.59375 -2.769531 14.832031 -1.5625 13.875 -0.75 C 12.925781 0.0507812 11.648438 0.453125 10.046875 0.453125 Z M 13.796875 -7.234375 C 14.773438 -7.234375 15.410156 -7.707031 15.703125 -8.65625 C 16.003906 -9.613281 16.15625 -10.898438 16.15625 -12.515625 L 16.15625 -29.6875 C 16.15625 -30.882812 15.988281 -31.894531 15.65625 -32.71875 C 15.320312 -33.539062 14.722656 -33.953125 13.859375 -33.953125 C 12.890625 -33.953125 12.242188 -33.566406 11.921875 -32.796875 C 11.609375 -32.023438 11.453125 -30.988281 11.453125 -29.6875 L 11.453125 -12.40625 C 11.453125 -8.957031 12.234375 -7.234375 13.796875 -7.234375 Z M 13.796875 -7.234375 "/></g></g></g><g fill="#000000" fill-opacity="1"><g transform="translate(86.010948, 181.240241)"><g><path d="M 1.96875 -41.078125 L 11.78125 -41.078125 L 11.78125 -36.53125 C 12.269531 -38.132812 13.117188 -39.375 14.328125 -40.25 C 15.546875 -41.132812 17.054688 -41.578125 18.859375 -41.578125 L 18.859375 -33.390625 C 17.472656 -33.390625 15.945312 -33.191406 14.28125 -32.796875 C 12.613281 -32.398438 11.78125 -31.941406 11.78125 -31.421875 L 11.78125 0 L 1.96875 0 Z M 1.96875 -41.078125 "/></g></g></g><g fill="#000000" fill-opacity="1"><g transform="translate(102.222293, 181.240241)"><g><path d="M 13.46875 0.453125 C 9.238281 0.453125 6.207031 -0.707031 4.375 -3.03125 C 2.539062 -5.351562 1.625 -8.8125 1.625 -13.40625 L 1.625 -29.90625 C 1.625 -33.6875 2.707031 -36.566406 4.875 -38.546875 C 7.050781 -40.523438 10.082031 -41.515625 13.96875 -41.515625 C 21.863281 -41.515625 25.8125 -37.644531 25.8125 -29.90625 L 25.8125 -26.9375 C 25.8125 -23.9375 25.773438 -21.503906 25.703125 -19.640625 L 11.453125 -19.640625 L 11.453125 -11.671875 C 11.453125 -10.242188 11.597656 -9.128906 11.890625 -8.328125 C 12.191406 -7.523438 12.828125 -7.125 13.796875 -7.125 C 14.546875 -7.125 15.078125 -7.347656 15.390625 -7.796875 C 15.710938 -8.242188 15.898438 -8.757812 15.953125 -9.34375 C 16.015625 -9.925781 16.046875 -10.773438 16.046875 -11.890625 L 16.046875 -15.875 L 25.8125 -15.875 L 25.8125 -13.515625 C 25.8125 -8.734375 24.882812 -5.207031 23.03125 -2.9375 C 21.175781 -0.675781 17.988281 0.453125 13.46875 0.453125 Z M 16.046875 -24.515625 L 16.046875 -29.796875 C 16.046875 -32.753906 15.316406 -34.234375 13.859375 -34.234375 C 12.210938 -34.234375 11.390625 -32.753906 11.390625 -29.796875 L 11.390625 -24.515625 Z M 7.40625 -42.984375 L 7.40625 -49.09375 L 20.421875 -55.109375 L 20.421875 -45.5625 Z M 7.40625 -42.984375 "/></g></g></g><g fill="#000000" fill-opacity="1"><g transform="translate(126.511712, 181.240241)"><g><path d="M 13.234375 0.453125 C 5.117188 0.453125 1.0625 -3.660156 1.0625 -11.890625 L 1.125 -15.15625 L 10.9375 -15.15625 L 11 -10.328125 C 11 -9.347656 11.1875 -8.601562 11.5625 -8.09375 C 11.9375 -7.59375 12.550781 -7.34375 13.40625 -7.34375 C 14.71875 -7.34375 15.375 -8.410156 15.375 -10.546875 C 15.375 -12.117188 15.0625 -13.351562 14.4375 -14.25 C 13.820312 -15.144531 12.84375 -16.097656 11.5 -17.109375 L 6.28125 -21.15625 C 4.488281 -22.539062 3.195312 -23.96875 2.40625 -25.4375 C 1.625 -26.914062 1.234375 -29.003906 1.234375 -31.703125 C 1.234375 -33.796875 1.785156 -35.582031 2.890625 -37.0625 C 3.992188 -38.539062 5.460938 -39.648438 7.296875 -40.390625 C 9.128906 -41.140625 11.164062 -41.515625 13.40625 -41.515625 C 21.375 -41.515625 25.359375 -37.550781 25.359375 -29.625 L 25.359375 -28.84375 L 15.203125 -28.84375 L 15.203125 -30.40625 C 15.203125 -31.382812 15.039062 -32.21875 14.71875 -32.90625 C 14.40625 -33.601562 13.875 -33.953125 13.125 -33.953125 C 12.457031 -33.953125 11.941406 -33.753906 11.578125 -33.359375 C 11.222656 -32.960938 11.046875 -32.429688 11.046875 -31.765625 C 11.046875 -30.265625 11.628906 -29.101562 12.796875 -28.28125 L 18.859375 -23.84375 C 21.023438 -22.238281 22.6875 -20.488281 23.84375 -18.59375 C 25 -16.707031 25.578125 -14.328125 25.578125 -11.453125 C 25.578125 -7.628906 24.492188 -4.6875 22.328125 -2.625 C 20.160156 -0.570312 17.128906 0.453125 13.234375 0.453125 Z M 13.234375 0.453125 "/></g></g></g><g fill="#000000" fill-opacity="1"><g transform="translate(150.071857, 181.240241)"><g/></g></g><g fill="#000000" fill-opacity="1"><g transform="translate(160.112456, 181.240241)"><g><path d="M 2.125 -48.203125 L 15.4375 -48.203125 C 18.875 -48.203125 21.453125 -47.242188 23.171875 -45.328125 C 24.890625 -43.421875 25.769531 -40.597656 25.8125 -36.859375 L 25.921875 -14.3125 C 25.960938 -9.5625 25.140625 -5.988281 23.453125 -3.59375 C 21.765625 -1.195312 18.976562 0 15.09375 0 L 2.125 0 Z M 13.515625 -8.53125 C 15.273438 -8.53125 16.15625 -9.390625 16.15625 -11.109375 L 16.15625 -35.96875 C 16.15625 -37.050781 16.070312 -37.863281 15.90625 -38.40625 C 15.738281 -38.945312 15.429688 -39.3125 14.984375 -39.5 C 14.535156 -39.6875 13.84375 -39.78125 12.90625 -39.78125 L 11.84375 -39.78125 L 11.84375 -8.53125 Z M 13.515625 -8.53125 "/></g></g></g><g fill="#000000" fill-opacity="1"><g transform="translate(184.682358, 181.240241)"><g><path d="M 9.421875 0.453125 C 6.242188 0.453125 4.066406 -0.601562 2.890625 -2.71875 C 1.710938 -4.832031 1.125 -7.851562 1.125 -11.78125 C 1.125 -15 1.539062 -17.46875 2.375 -19.1875 C 3.21875 -20.90625 4.390625 -22.164062 5.890625 -22.96875 C 7.390625 -23.78125 9.671875 -24.671875 12.734375 -25.640625 L 15.4375 -26.546875 L 15.4375 -30.75 C 15.4375 -31.832031 15.21875 -32.660156 14.78125 -33.234375 C 14.351562 -33.816406 13.835938 -34.109375 13.234375 -34.109375 C 12.710938 -34.109375 12.253906 -33.863281 11.859375 -33.375 C 11.472656 -32.894531 11.28125 -32.242188 11.28125 -31.421875 L 11.28125 -28.953125 L 1.734375 -28.953125 L 1.734375 -30.296875 C 1.734375 -34.335938 2.675781 -37.21875 4.5625 -38.9375 C 6.457031 -40.65625 9.535156 -41.515625 13.796875 -41.515625 C 17.203125 -41.515625 19.972656 -40.625 22.109375 -38.84375 C 24.242188 -37.070312 25.3125 -34.5625 25.3125 -31.3125 L 25.3125 0 L 15.546875 0 L 15.546875 -4.875 C 15.054688 -3.195312 14.273438 -1.890625 13.203125 -0.953125 C 12.140625 -0.015625 10.878906 0.453125 9.421875 0.453125 Z M 13.296875 -7.1875 C 14.046875 -7.1875 14.578125 -7.492188 14.890625 -8.109375 C 15.210938 -8.722656 15.375 -9.476562 15.375 -10.375 L 15.375 -21.828125 C 13.914062 -21.265625 12.835938 -20.550781 12.140625 -19.6875 C 11.453125 -18.832031 11.109375 -17.640625 11.109375 -16.109375 L 11.109375 -10.828125 C 11.109375 -8.398438 11.835938 -7.1875 13.296875 -7.1875 Z M 13.296875 -7.1875 "/></g></g></g><g fill="#000000" fill-opacity="1"><g transform="translate(208.691295, 181.240241)"><g><path d="M 1.96875 0 L 1.96875 -48.484375 L 11.953125 -48.484375 L 11.953125 0 Z M 1.96875 0 "/></g></g></g><g fill="#000000" fill-opacity="1"><g transform="translate(219.517267, 181.240241)"><g><path d="M 1.96875 0 L 1.96875 -48.484375 L 11.953125 -48.484375 L 11.953125 0 Z M 1.96875 0 "/></g></g></g><g fill="#000000" fill-opacity="1"><g transform="translate(230.34324, 181.240241)"><g><path d="M 9.421875 0.453125 C 6.242188 0.453125 4.066406 -0.601562 2.890625 -2.71875 C 1.710938 -4.832031 1.125 -7.851562 1.125 -11.78125 C 1.125 -15 1.539062 -17.46875 2.375 -19.1875 C 3.21875 -20.90625 4.390625 -22.164062 5.890625 -22.96875 C 7.390625 -23.78125 9.671875 -24.671875 12.734375 -25.640625 L 15.4375 -26.546875 L 15.4375 -30.75 C 15.4375 -31.832031 15.21875 -32.660156 14.78125 -33.234375 C 14.351562 -33.816406 13.835938 -34.109375 13.234375 -34.109375 C 12.710938 -34.109375 12.253906 -33.863281 11.859375 -33.375 C 11.472656 -32.894531 11.28125 -32.242188 11.28125 -31.421875 L 11.28125 -28.953125 L 1.734375 -28.953125 L 1.734375 -30.296875 C 1.734375 -34.335938 2.675781 -37.21875 4.5625 -38.9375 C 6.457031 -40.65625 9.535156 -41.515625 13.796875 -41.515625 C 17.203125 -41.515625 19.972656 -40.625 22.109375 -38.84375 C 24.242188 -37.070312 25.3125 -34.5625 25.3125 -31.3125 L 25.3125 0 L 15.546875 0 L 15.546875 -4.875 C 15.054688 -3.195312 14.273438 -1.890625 13.203125 -0.953125 C 12.140625 -0.015625 10.878906 0.453125 9.421875 0.453125 Z M 13.296875 -7.1875 C 14.046875 -7.1875 14.578125 -7.492188 14.890625 -8.109375 C 15.210938 -8.722656 15.375 -9.476562 15.375 -10.375 L 15.375 -21.828125 C 13.914062 -21.265625 12.835938 -20.550781 12.140625 -19.6875 C 11.453125 -18.832031 11.109375 -17.640625 11.109375 -16.109375 L 11.109375 -10.828125 C 11.109375 -8.398438 11.835938 -7.1875 13.296875 -7.1875 Z M 13.296875 -7.1875 "/></g></g></g><g fill="#000000" fill-opacity="1"><g transform="translate(254.352165, 181.240241)"><g/></g></g><g fill="#000000" fill-opacity="1"><g transform="translate(264.392753, 181.240241)"><g><path d="M 2.125 -48.203125 L 16.9375 -48.203125 C 19.300781 -48.203125 21.125 -47.664062 22.40625 -46.59375 C 23.695312 -45.53125 24.566406 -44.035156 25.015625 -42.109375 C 25.472656 -40.179688 25.703125 -37.722656 25.703125 -34.734375 C 25.703125 -32.003906 25.34375 -29.867188 24.625 -28.328125 C 23.914062 -26.796875 22.679688 -25.734375 20.921875 -25.140625 C 22.378906 -24.835938 23.4375 -24.101562 24.09375 -22.9375 C 24.75 -21.78125 25.078125 -20.210938 25.078125 -18.234375 L 24.96875 0 L 15.546875 0 L 15.546875 -18.859375 C 15.546875 -20.203125 15.28125 -21.0625 14.75 -21.4375 C 14.226562 -21.8125 13.273438 -22 11.890625 -22 L 11.890625 0 L 2.125 0 Z M 14.25 -30.359375 C 15.59375 -30.359375 16.265625 -31.816406 16.265625 -34.734375 C 16.265625 -36.003906 16.207031 -36.957031 16.09375 -37.59375 C 15.988281 -38.226562 15.785156 -38.664062 15.484375 -38.90625 C 15.179688 -39.15625 14.753906 -39.28125 14.203125 -39.28125 L 11.953125 -39.28125 L 11.953125 -30.359375 Z M 14.25 -30.359375 "/></g></g></g><g fill="#000000" fill-opacity="1"><g transform="translate(288.065084, 181.240241)"><g><path d="M 1.90625 -43.828125 L 1.90625 -50.671875 L 11.734375 -50.671875 L 11.734375 -43.828125 Z M 1.90625 0 L 1.90625 -41.078125 L 11.734375 -41.078125 L 11.734375 0 Z M 1.90625 0 "/></g></g></g><g fill="#000000" fill-opacity="1"><g transform="translate(298.610562, 181.240241)"><g><path d="M 0.78125 0 L 0.78125 -6 L 11 -33.328125 L 1.234375 -33.328125 L 1.234375 -41.078125 L 21.15625 -41.078125 L 21.15625 -34.390625 L 11.5 -7.34375 L 21.265625 -7.34375 L 21.265625 0 Z M 0.78125 0 "/></g></g></g><g fill="#000000" fill-opacity="1"><g transform="translate(317.178027, 181.240241)"><g><path d="M 0.78125 0 L 0.78125 -6 L 11 -33.328125 L 1.234375 -33.328125 L 1.234375 -41.078125 L 21.15625 -41.078125 L 21.15625 -34.390625 L 11.5 -7.34375 L 21.265625 -7.34375 L 21.265625 0 Z M 0.78125 0 "/></g></g></g><g fill="#000000" fill-opacity="1"><g transform="translate(335.74547, 181.240241)"><g><path d="M 9.421875 0.453125 C 6.242188 0.453125 4.066406 -0.601562 2.890625 -2.71875 C 1.710938 -4.832031 1.125 -7.851562 1.125 -11.78125 C 1.125 -15 1.539062 -17.46875 2.375 -19.1875 C 3.21875 -20.90625 4.390625 -22.164062 5.890625 -22.96875 C 7.390625 -23.78125 9.671875 -24.671875 12.734375 -25.640625 L 15.4375 -26.546875 L 15.4375 -30.75 C 15.4375 -31.832031 15.21875 -32.660156 14.78125 -33.234375 C 14.351562 -33.816406 13.835938 -34.109375 13.234375 -34.109375 C 12.710938 -34.109375 12.253906 -33.863281 11.859375 -33.375 C 11.472656 -32.894531 11.28125 -32.242188 11.28125 -31.421875 L 11.28125 -28.953125 L 1.734375 -28.953125 L 1.734375 -30.296875 C 1.734375 -34.335938 2.675781 -37.21875 4.5625 -38.9375 C 6.457031 -40.65625 9.535156 -41.515625 13.796875 -41.515625 C 17.203125 -41.515625 19.972656 -40.625 22.109375 -38.84375 C 24.242188 -37.070312 25.3125 -34.5625 25.3125 -31.3125 L 25.3125 0 L 15.546875 0 L 15.546875 -4.875 C 15.054688 -3.195312 14.273438 -1.890625 13.203125 -0.953125 C 12.140625 -0.015625 10.878906 0.453125 9.421875 0.453125 Z M 13.296875 -7.1875 C 14.046875 -7.1875 14.578125 -7.492188 14.890625 -8.109375 C 15.210938 -8.722656 15.375 -9.476562 15.375 -10.375 L 15.375 -21.828125 C 13.914062 -21.265625 12.835938 -20.550781 12.140625 -19.6875 C 11.453125 -18.832031 11.109375 -17.640625 11.109375 -16.109375 L 11.109375 -10.828125 C 11.109375 -8.398438 11.835938 -7.1875 13.296875 -7.1875 Z M 13.296875 -7.1875 "/></g></g></g></svg>