<svg xmlns="http://www.w3.org/2000/svg" xmlns:xlink="http://www.w3.org/1999/xlink" width="200" zoomAndPan="magnify" viewBox="0 0 150 149.999998" height="200" preserveAspectRatio="xMidYMid meet" version="1.0"><defs><g/></defs><g fill="#ffffff" fill-opacity="1"><g transform="translate(8.142253, 79.854686)"><g><path d="M 7.421875 0 L 6.875 -1.6875 L 3.28125 -1.6875 L 2.71875 0 L 0.125 0 L 3.609375 -10.03125 L 6.5625 -10.03125 L 10.03125 0 Z M 3.890625 -3.53125 L 6.25 -3.53125 L 5.078125 -7.09375 Z M 3.890625 -3.53125 "/></g></g></g><g fill="#ffffff" fill-opacity="1"><g transform="translate(17.937991, 79.854686)"><g><path d="M 3.5 -7.953125 L 3.5 -6.78125 C 4.007812 -7.613281 4.8125 -8.03125 5.90625 -8.03125 C 6.820312 -8.03125 7.5625 -7.726562 8.125 -7.125 C 8.695312 -6.519531 8.984375 -5.691406 8.984375 -4.640625 L 8.984375 0 L 6.5625 0 L 6.5625 -4.3125 C 6.5625 -4.832031 6.425781 -5.226562 6.15625 -5.5 C 5.882812 -5.78125 5.507812 -5.921875 5.03125 -5.921875 C 4.550781 -5.921875 4.175781 -5.78125 3.90625 -5.5 C 3.632812 -5.226562 3.5 -4.832031 3.5 -4.3125 L 3.5 0 L 1.0625 0 L 1.0625 -7.953125 Z M 3.5 -7.953125 "/></g></g></g><g fill="#ffffff" fill-opacity="1"><g transform="translate(27.548632, 79.854686)"><g><path d="M 5.90625 -2.515625 C 6.257812 -2.859375 6.4375 -3.34375 6.4375 -3.96875 C 6.4375 -4.601562 6.257812 -5.085938 5.90625 -5.421875 C 5.5625 -5.753906 5.160156 -5.921875 4.703125 -5.921875 C 4.242188 -5.921875 3.835938 -5.75 3.484375 -5.40625 C 3.140625 -5.070312 2.96875 -4.585938 2.96875 -3.953125 C 2.96875 -3.328125 3.140625 -2.847656 3.484375 -2.515625 C 3.835938 -2.179688 4.242188 -2.015625 4.703125 -2.015625 C 5.160156 -2.015625 5.5625 -2.179688 5.90625 -2.515625 Z M 1.53125 -1.046875 C 0.832031 -1.804688 0.484375 -2.78125 0.484375 -3.96875 C 0.484375 -5.15625 0.832031 -6.128906 1.53125 -6.890625 C 2.238281 -7.648438 3.097656 -8.03125 4.109375 -8.03125 C 5.117188 -8.03125 5.894531 -7.65625 6.4375 -6.90625 L 6.4375 -10.546875 L 8.875 -10.546875 L 8.875 0 L 6.4375 0 L 6.4375 -1.15625 C 5.851562 -0.320312 5.066406 0.09375 4.078125 0.09375 C 3.085938 0.09375 2.238281 -0.285156 1.53125 -1.046875 Z M 1.53125 -1.046875 "/></g></g></g><g fill="#ffffff" fill-opacity="1"><g transform="translate(37.1308, 79.854686)"><g><path d="M 3.5 -7.953125 L 3.5 -6.46875 C 4.070312 -7.507812 4.832031 -8.03125 5.78125 -8.03125 L 5.78125 -5.5625 L 5.1875 -5.5625 C 4.625 -5.5625 4.203125 -5.425781 3.921875 -5.15625 C 3.640625 -4.894531 3.5 -4.429688 3.5 -3.765625 L 3.5 0 L 1.0625 0 L 1.0625 -7.953125 Z M 3.5 -7.953125 "/></g></g></g><g fill="#ffffff" fill-opacity="1"><g transform="translate(42.811689, 79.854686)"><g><path d="M 4.453125 0.09375 C 3.285156 0.09375 2.332031 -0.273438 1.59375 -1.015625 C 0.851562 -1.765625 0.484375 -2.753906 0.484375 -3.984375 C 0.484375 -5.222656 0.847656 -6.207031 1.578125 -6.9375 C 2.316406 -7.664062 3.269531 -8.03125 4.4375 -8.03125 C 5.613281 -8.03125 6.582031 -7.671875 7.34375 -6.953125 C 8.113281 -6.234375 8.5 -5.234375 8.5 -3.953125 C 8.5 -3.671875 8.484375 -3.410156 8.453125 -3.171875 L 2.984375 -3.171875 C 3.023438 -2.828125 3.175781 -2.539062 3.4375 -2.3125 C 3.707031 -2.09375 4 -1.984375 4.3125 -1.984375 C 4.625 -1.984375 4.851562 -2.015625 5 -2.078125 C 5.15625 -2.140625 5.265625 -2.195312 5.328125 -2.25 C 5.398438 -2.3125 5.492188 -2.414062 5.609375 -2.5625 L 8.25 -2.5625 C 8.019531 -1.769531 7.5625 -1.128906 6.875 -0.640625 C 6.195312 -0.148438 5.390625 0.09375 4.453125 0.09375 Z M 5.96875 -4.703125 C 5.925781 -5.078125 5.765625 -5.378906 5.484375 -5.609375 C 5.203125 -5.835938 4.863281 -5.953125 4.46875 -5.953125 C 4.082031 -5.953125 3.753906 -5.835938 3.484375 -5.609375 C 3.222656 -5.378906 3.0625 -5.078125 3 -4.703125 Z M 6.15625 -11.828125 L 6.15625 -9.9375 L 2.71875 -8.5 L 2.71875 -10.171875 Z M 6.15625 -11.828125 "/></g></g></g><g fill="#ffffff" fill-opacity="1"><g transform="translate(51.454138, 79.854686)"><g><path d="M 0.53125 -5.5625 C 0.53125 -6.257812 0.828125 -6.84375 1.421875 -7.3125 C 2.023438 -7.789062 2.835938 -8.03125 3.859375 -8.03125 C 4.878906 -8.03125 5.703125 -7.796875 6.328125 -7.328125 C 6.953125 -6.867188 7.285156 -6.234375 7.328125 -5.421875 L 4.828125 -5.421875 C 4.796875 -5.703125 4.695312 -5.890625 4.53125 -5.984375 C 4.375 -6.085938 4.132812 -6.140625 3.8125 -6.140625 C 3.175781 -6.140625 2.859375 -5.945312 2.859375 -5.5625 C 2.859375 -5.207031 3.25 -4.960938 4.03125 -4.828125 C 4.820312 -4.691406 5.539062 -4.488281 6.1875 -4.21875 C 6.519531 -4.082031 6.796875 -3.859375 7.015625 -3.546875 C 7.242188 -3.242188 7.359375 -2.867188 7.359375 -2.421875 C 7.359375 -1.679688 7.035156 -1.078125 6.390625 -0.609375 C 5.753906 -0.140625 4.953125 0.09375 3.984375 0.09375 C 3.015625 0.09375 2.207031 -0.125 1.5625 -0.5625 C 0.914062 -1 0.566406 -1.648438 0.515625 -2.515625 L 3 -2.515625 C 3.070312 -2.035156 3.414062 -1.796875 4.03125 -1.796875 C 4.3125 -1.796875 4.546875 -1.859375 4.734375 -1.984375 C 4.921875 -2.117188 5.015625 -2.289062 5.015625 -2.5 C 5.015625 -2.71875 4.859375 -2.882812 4.546875 -3 C 4.242188 -3.125 3.875 -3.226562 3.4375 -3.3125 C 3 -3.40625 2.554688 -3.515625 2.109375 -3.640625 C 1.671875 -3.765625 1.296875 -3.984375 0.984375 -4.296875 C 0.679688 -4.617188 0.53125 -5.039062 0.53125 -5.5625 Z M 0.53125 -5.5625 "/></g></g></g><g fill="#ffffff" fill-opacity="1"><g transform="translate(62.91559, 79.854686)"><g><path d="M 3.5 -1.859375 L 4.59375 -1.859375 C 5.519531 -1.859375 6.25 -2.140625 6.78125 -2.703125 C 7.3125 -3.273438 7.578125 -4.039062 7.578125 -5 C 7.578125 -5.957031 7.3125 -6.722656 6.78125 -7.296875 C 6.25 -7.867188 5.519531 -8.15625 4.59375 -8.15625 L 3.5 -8.15625 Z M 4.59375 -10 C 6.1875 -10 7.492188 -9.535156 8.515625 -8.609375 C 9.546875 -7.679688 10.0625 -6.476562 10.0625 -5 C 10.0625 -3.53125 9.546875 -2.328125 8.515625 -1.390625 C 7.492188 -0.460938 6.1875 0 4.59375 0 L 1.0625 0 L 1.0625 -10 Z M 4.59375 -10 "/></g></g></g><g fill="#ffffff" fill-opacity="1"><g transform="translate(73.081519, 79.854686)"><g><path d="M 5.90625 -2.515625 C 6.257812 -2.859375 6.4375 -3.34375 6.4375 -3.96875 C 6.4375 -4.601562 6.257812 -5.085938 5.90625 -5.421875 C 5.5625 -5.753906 5.160156 -5.921875 4.703125 -5.921875 C 4.242188 -5.921875 3.835938 -5.75 3.484375 -5.40625 C 3.140625 -5.070312 2.96875 -4.585938 2.96875 -3.953125 C 2.96875 -3.328125 3.140625 -2.847656 3.484375 -2.515625 C 3.835938 -2.179688 4.242188 -2.015625 4.703125 -2.015625 C 5.160156 -2.015625 5.5625 -2.179688 5.90625 -2.515625 Z M 1.53125 -1.046875 C 0.832031 -1.804688 0.484375 -2.78125 0.484375 -3.96875 C 0.484375 -5.15625 0.832031 -6.128906 1.53125 -6.890625 C 2.238281 -7.648438 3.097656 -8.03125 4.109375 -8.03125 C 5.117188 -8.03125 5.894531 -7.65625 6.4375 -6.90625 L 6.4375 -7.953125 L 8.875 -7.953125 L 8.875 0 L 6.4375 0 L 6.4375 -1.15625 C 5.851562 -0.320312 5.066406 0.09375 4.078125 0.09375 C 3.085938 0.09375 2.238281 -0.285156 1.53125 -1.046875 Z M 1.53125 -1.046875 "/></g></g></g><g fill="#ffffff" fill-opacity="1"><g transform="translate(82.663685, 79.854686)"><g><path d="M 1.0625 0 L 1.0625 -10.546875 L 3.5 -10.546875 L 3.5 0 Z M 1.0625 0 "/></g></g></g><g fill="#ffffff" fill-opacity="1"><g transform="translate(86.878035, 79.854686)"><g><path d="M 1.0625 0 L 1.0625 -10.546875 L 3.5 -10.546875 L 3.5 0 Z M 1.0625 0 "/></g></g></g><g fill="#ffffff" fill-opacity="1"><g transform="translate(91.092384, 79.854686)"><g><path d="M 5.90625 -2.515625 C 6.257812 -2.859375 6.4375 -3.34375 6.4375 -3.96875 C 6.4375 -4.601562 6.257812 -5.085938 5.90625 -5.421875 C 5.5625 -5.753906 5.160156 -5.921875 4.703125 -5.921875 C 4.242188 -5.921875 3.835938 -5.75 3.484375 -5.40625 C 3.140625 -5.070312 2.96875 -4.585938 2.96875 -3.953125 C 2.96875 -3.328125 3.140625 -2.847656 3.484375 -2.515625 C 3.835938 -2.179688 4.242188 -2.015625 4.703125 -2.015625 C 5.160156 -2.015625 5.5625 -2.179688 5.90625 -2.515625 Z M 1.53125 -1.046875 C 0.832031 -1.804688 0.484375 -2.78125 0.484375 -3.96875 C 0.484375 -5.15625 0.832031 -6.128906 1.53125 -6.890625 C 2.238281 -7.648438 3.097656 -8.03125 4.109375 -8.03125 C 5.117188 -8.03125 5.894531 -7.65625 6.4375 -6.90625 L 6.4375 -7.953125 L 8.875 -7.953125 L 8.875 0 L 6.4375 0 L 6.4375 -1.15625 C 5.851562 -0.320312 5.066406 0.09375 4.078125 0.09375 C 3.085938 0.09375 2.238281 -0.285156 1.53125 -1.046875 Z M 1.53125 -1.046875 "/></g></g></g><g fill="#ffffff" fill-opacity="1"><g transform="translate(100.67455, 79.854686)"><g/></g></g><g fill="#ffffff" fill-opacity="1"><g transform="translate(104.589906, 79.854686)"><g><path d="M 3.5 -3.890625 L 3.5 0 L 1.0625 0 L 1.0625 -10 L 5.015625 -10 C 6.171875 -10 7.070312 -9.695312 7.71875 -9.09375 C 8.363281 -8.5 8.6875 -7.78125 8.6875 -6.9375 C 8.6875 -6.363281 8.507812 -5.800781 8.15625 -5.25 C 7.8125 -4.695312 7.238281 -4.304688 6.4375 -4.078125 L 8.890625 0 L 6.046875 0 L 3.796875 -3.890625 Z M 3.5 -8.15625 L 3.5 -5.75 L 5.015625 -5.75 C 5.390625 -5.75 5.679688 -5.851562 5.890625 -6.0625 C 6.109375 -6.28125 6.21875 -6.566406 6.21875 -6.921875 C 6.21875 -7.285156 6.109375 -7.582031 5.890625 -7.8125 C 5.671875 -8.039062 5.378906 -8.15625 5.015625 -8.15625 Z M 3.5 -8.15625 "/></g></g></g><g fill="#ffffff" fill-opacity="1"><g transform="translate(113.744927, 79.854686)"><g><path d="M 3.28125 -8.84375 C 3.007812 -8.570312 2.675781 -8.4375 2.28125 -8.4375 C 1.882812 -8.4375 1.546875 -8.570312 1.265625 -8.84375 C 0.992188 -9.125 0.859375 -9.460938 0.859375 -9.859375 C 0.859375 -10.265625 0.992188 -10.601562 1.265625 -10.875 C 1.546875 -11.15625 1.882812 -11.296875 2.28125 -11.296875 C 2.675781 -11.296875 3.007812 -11.15625 3.28125 -10.875 C 3.5625 -10.601562 3.703125 -10.265625 3.703125 -9.859375 C 3.703125 -9.460938 3.5625 -9.125 3.28125 -8.84375 Z M 1.0625 0 L 1.0625 -7.953125 L 3.5 -7.953125 L 3.5 0 Z M 1.0625 0 "/></g></g></g><g fill="#ffffff" fill-opacity="1"><g transform="translate(117.959282, 79.854686)"><g><path d="M 6.625 -7.953125 L 6.625 -5.9375 L 3.578125 -2.015625 L 6.625 -2.015625 L 6.625 0 L 0.71875 0 L 0.71875 -2.015625 L 3.765625 -5.9375 L 0.71875 -5.9375 L 0.71875 -7.953125 Z M 6.625 -7.953125 "/></g></g></g><g fill="#ffffff" fill-opacity="1"><g transform="translate(124.935852, 79.854686)"><g><path d="M 6.625 -7.953125 L 6.625 -5.9375 L 3.578125 -2.015625 L 6.625 -2.015625 L 6.625 0 L 0.71875 0 L 0.71875 -2.015625 L 3.765625 -5.9375 L 0.71875 -5.9375 L 0.71875 -7.953125 Z M 6.625 -7.953125 "/></g></g></g><g fill="#ffffff" fill-opacity="1"><g transform="translate(131.912422, 79.854686)"><g><path d="M 5.90625 -2.515625 C 6.257812 -2.859375 6.4375 -3.34375 6.4375 -3.96875 C 6.4375 -4.601562 6.257812 -5.085938 5.90625 -5.421875 C 5.5625 -5.753906 5.160156 -5.921875 4.703125 -5.921875 C 4.242188 -5.921875 3.835938 -5.75 3.484375 -5.40625 C 3.140625 -5.070312 2.96875 -4.585938 2.96875 -3.953125 C 2.96875 -3.328125 3.140625 -2.847656 3.484375 -2.515625 C 3.835938 -2.179688 4.242188 -2.015625 4.703125 -2.015625 C 5.160156 -2.015625 5.5625 -2.179688 5.90625 -2.515625 Z M 1.53125 -1.046875 C 0.832031 -1.804688 0.484375 -2.78125 0.484375 -3.96875 C 0.484375 -5.15625 0.832031 -6.128906 1.53125 -6.890625 C 2.238281 -7.648438 3.097656 -8.03125 4.109375 -8.03125 C 5.117188 -8.03125 5.894531 -7.65625 6.4375 -6.90625 L 6.4375 -7.953125 L 8.875 -7.953125 L 8.875 0 L 6.4375 0 L 6.4375 -1.15625 C 5.851562 -0.320312 5.066406 0.09375 4.078125 0.09375 C 3.085938 0.09375 2.238281 -0.285156 1.53125 -1.046875 Z M 1.53125 -1.046875 "/></g></g></g></svg>