<svg xmlns="http://www.w3.org/2000/svg" xmlns:xlink="http://www.w3.org/1999/xlink" width="200" zoomAndPan="magnify" viewBox="0 0 150 149.999998" height="200" preserveAspectRatio="xMidYMid meet" version="1.0"><defs><clipPath id="38fd1d5590"><path d="M 37.269531 42 L 113 42 L 113 128.292969 L 37.269531 128.292969 Z M 37.269531 42 " clip-rule="nonzero"/></clipPath><clipPath id="71881d708f"><path d="M 44 21.792969 L 59 21.792969 L 59 37 L 44 37 Z M 44 21.792969 " clip-rule="nonzero"/></clipPath><clipPath id="e82ba9ac7a"><path d="M 60 21.792969 L 74 21.792969 L 74 37 L 60 37 Z M 60 21.792969 " clip-rule="nonzero"/></clipPath><clipPath id="3417ba17ef"><path d="M 75 21.792969 L 93 21.792969 L 93 37 L 75 37 Z M 75 21.792969 " clip-rule="nonzero"/></clipPath><clipPath id="8ebb18ec78"><path d="M 94 21.792969 L 107 21.792969 L 107 37 L 94 37 Z M 94 21.792969 " clip-rule="nonzero"/></clipPath></defs><g clip-path="url(#38fd1d5590)"><path fill="#e44d26" d="M 112.996094 42.722656 L 106.101562 119.722656 L 75.113281 128.289062 L 44.210938 119.734375 L 37.324219 42.722656 L 112.996094 42.71875 L 113 42.71875 Z M 112.996094 42.722656 " fill-opacity="1" fill-rule="nonzero"/></g><path fill="#f16529" d="M 75.160156 121.742188 L 100.203125 114.820312 L 106.09375 49.019531 L 75.160156 49.019531 Z M 75.160156 121.742188 " fill-opacity="1" fill-rule="nonzero"/><path fill="#ebebeb" d="M 61.757812 67.910156 L 75.160156 67.910156 L 75.160156 58.460938 L 51.40625 58.460938 L 51.632812 60.996094 L 53.960938 87.027344 L 75.160156 87.027344 L 75.160156 77.582031 L 62.625 77.582031 Z M 61.757812 67.910156 " fill-opacity="1" fill-rule="nonzero"/><path fill="#ebebeb" d="M 63.894531 91.75 L 54.382812 91.75 L 55.710938 106.582031 L 75.117188 111.953125 L 75.160156 111.941406 L 75.160156 102.113281 L 75.117188 102.125 L 64.566406 99.28125 Z M 63.894531 91.75 " fill-opacity="1" fill-rule="nonzero"/><g clip-path="url(#71881d708f)"><path fill="#000000" d="M 44.363281 21.792969 L 49.179688 21.792969 L 49.179688 26.535156 L 53.582031 26.535156 L 53.582031 21.792969 L 58.398438 21.792969 L 58.398438 36.152344 L 53.582031 36.152344 L 53.582031 31.34375 L 49.179688 31.34375 L 49.179688 36.152344 L 44.363281 36.152344 Z M 44.363281 21.792969 " fill-opacity="1" fill-rule="nonzero"/></g><g clip-path="url(#e82ba9ac7a)"><path fill="#000000" d="M 64.726562 26.554688 L 60.488281 26.554688 L 60.488281 21.792969 L 73.785156 21.792969 L 73.785156 26.554688 L 69.542969 26.554688 L 69.542969 36.152344 L 64.726562 36.152344 Z M 64.726562 26.554688 " fill-opacity="1" fill-rule="nonzero"/></g><g clip-path="url(#3417ba17ef)"><path fill="#000000" d="M 75.894531 21.792969 L 80.914062 21.792969 L 84 26.839844 L 87.085938 21.792969 L 92.109375 21.792969 L 92.109375 36.152344 L 87.3125 36.152344 L 87.3125 29.035156 L 84 34.140625 L 83.917969 34.140625 L 80.605469 29.035156 L 80.605469 36.152344 L 75.894531 36.152344 Z M 75.894531 21.792969 " fill-opacity="1" fill-rule="nonzero"/></g><g clip-path="url(#8ebb18ec78)"><path fill="#000000" d="M 94.503906 21.792969 L 99.320312 21.792969 L 99.320312 31.40625 L 106.089844 31.40625 L 106.089844 36.152344 L 94.503906 36.152344 Z M 94.503906 21.792969 " fill-opacity="1" fill-rule="nonzero"/></g><path fill="#ffffff" d="M 75.128906 87.027344 L 86.792969 87.027344 L 85.695312 99.277344 L 75.128906 102.121094 L 75.128906 111.945312 L 94.546875 106.582031 L 94.691406 104.984375 L 96.917969 80.117188 L 97.148438 77.582031 L 75.128906 77.582031 Z M 75.128906 87.027344 " fill-opacity="1" fill-rule="nonzero"/><path fill="#ffffff" d="M 75.128906 67.886719 L 75.128906 67.910156 L 98.011719 67.910156 L 98.199219 65.785156 L 98.632812 60.996094 L 98.859375 58.460938 L 75.128906 58.460938 Z M 75.128906 67.886719 " fill-opacity="1" fill-rule="nonzero"/></svg>