<svg xmlns="http://www.w3.org/2000/svg" xmlns:xlink="http://www.w3.org/1999/xlink" width="200" zoomAndPan="magnify" viewBox="0 0 150 149.999998" height="200" preserveAspectRatio="xMidYMid meet" version="1.0"><defs><clipPath id="f457df31e4"><path d="M 37.8125 36.695312 L 112 36.695312 L 112 113.195312 L 37.8125 113.195312 Z M 37.8125 36.695312 " clip-rule="nonzero"/></clipPath></defs><g clip-path="url(#f457df31e4)"><path fill="#555588" d="M 37.84375 89.519531 C 37.84375 88.351562 38.007812 87.367188 38.328125 86.570312 C 38.644531 85.800781 39.117188 85.144531 39.746094 84.597656 C 40.363281 84.089844 41.058594 83.726562 41.832031 83.515625 C 42.628906 83.292969 43.484375 83.183594 44.40625 83.183594 C 45.242188 83.175781 46.0625 83.289062 46.867188 83.515625 C 47.660156 83.742188 48.359375 84.101562 48.957031 84.597656 C 49.550781 85.09375 50.023438 85.753906 50.371094 86.570312 C 50.71875 87.367188 50.894531 88.351562 50.894531 89.519531 C 50.894531 90.636719 50.71875 91.59375 50.371094 92.386719 C 50.046875 93.152344 49.574219 93.8125 48.957031 94.363281 C 48.359375 94.886719 47.664062 95.257812 46.867188 95.480469 C 46.066406 95.734375 45.246094 95.855469 44.40625 95.851562 C 43.484375 95.851562 42.628906 95.730469 41.832031 95.480469 C 41.050781 95.265625 40.355469 94.894531 39.746094 94.363281 C 39.148438 93.839844 38.675781 93.183594 38.328125 92.386719 C 38.007812 91.59375 37.84375 90.640625 37.84375 89.519531 M 58.863281 113.1875 C 57.648438 113.1875 56.4375 113.097656 55.171875 112.925781 C 53.902344 112.753906 52.847656 112.527344 52.003906 112.257812 L 52.003906 103.3125 C 52.773438 103.558594 53.496094 103.734375 54.191406 103.835938 C 54.941406 103.964844 55.699219 104.027344 56.464844 104.019531 C 57.085938 104.019531 57.667969 103.925781 58.210938 103.722656 C 58.808594 103.546875 59.292969 103.214844 59.667969 102.71875 C 60.089844 102.246094 60.425781 101.601562 60.671875 100.78125 C 60.921875 99.984375 61.042969 98.953125 61.042969 97.683594 L 61.042969 53.183594 L 72.410156 53.183594 L 72.410156 99.359375 C 72.410156 101.273438 72.160156 103.0625 71.664062 104.703125 C 71.226562 106.347656 70.441406 107.804688 69.316406 109.074219 C 68.246094 110.34375 66.855469 111.332031 65.136719 112.058594 C 63.421875 112.78125 61.339844 113.136719 58.878906 113.136719 M 60.578125 42.359375 C 60.578125 41.292969 60.742188 40.410156 61.0625 39.6875 C 61.386719 38.96875 61.820312 38.398438 62.367188 37.972656 C 62.9375 37.527344 63.597656 37.214844 64.34375 37.042969 C 65.113281 36.867188 65.921875 36.78125 66.765625 36.78125 C 67.570312 36.777344 68.363281 36.863281 69.148438 37.042969 C 69.867188 37.199219 70.515625 37.511719 71.085938 37.972656 C 71.6875 38.425781 72.132812 38.996094 72.425781 39.6875 C 72.773438 40.386719 72.949219 41.265625 72.949219 42.359375 C 72.949219 43.40625 72.773438 44.285156 72.425781 45.03125 C 72.105469 45.753906 71.65625 46.335938 71.085938 46.78125 C 70.503906 47.222656 69.859375 47.535156 69.148438 47.710938 C 68.363281 47.890625 67.570312 47.980469 66.765625 47.976562 C 65.921875 47.976562 65.113281 47.890625 64.34375 47.710938 C 63.625 47.527344 62.964844 47.21875 62.367188 46.78125 C 61.820312 46.332031 61.386719 45.746094 61.0625 45.03125 C 60.742188 44.316406 60.578125 43.429688 60.578125 42.359375 M 111.859375 82.476562 C 111.859375 84.660156 111.460938 86.574219 110.644531 88.214844 C 109.855469 89.863281 108.722656 91.226562 107.253906 92.3125 C 105.789062 93.40625 104.011719 94.226562 101.925781 94.773438 C 99.835938 95.320312 97.503906 95.59375 94.917969 95.59375 C 93.550781 95.59375 92.285156 95.546875 91.117188 95.449219 C 90.003906 95.378906 88.898438 95.242188 87.800781 95.039062 C 86.757812 94.839844 85.753906 94.589844 84.785156 94.292969 C 83.78125 93.980469 82.800781 93.609375 81.839844 93.175781 L 81.839844 83.785156 C 82.886719 84.308594 83.976562 84.757812 85.121094 85.203125 L 88.585938 86.320312 L 91.902344 87.027344 C 92.898438 87.195312 93.90625 87.28125 94.917969 87.289062 C 95.9375 87.289062 96.808594 87.203125 97.527344 87.027344 C 98.246094 86.828125 98.832031 86.542969 99.273438 86.246094 C 99.746094 85.898438 100.082031 85.5 100.28125 85.03125 C 100.503906 84.5625 100.617188 84.0625 100.617188 83.542969 C 100.617188 83.019531 100.527344 82.558594 100.355469 82.160156 C 100.210938 81.738281 99.871094 81.304688 99.273438 80.859375 C 98.703125 80.386719 97.859375 79.886719 96.738281 79.292969 L 92.304688 77.109375 L 87.570312 74.683594 C 86.253906 73.863281 85.164062 72.984375 84.292969 71.964844 C 83.4375 70.957031 82.804688 69.828125 82.390625 68.570312 C 81.96875 67.28125 81.761719 65.753906 81.761719 63.988281 C 81.761719 62.046875 82.132812 60.359375 82.878906 58.917969 C 83.628906 57.4375 84.683594 56.21875 86.042969 55.265625 C 87.410156 54.292969 89.050781 53.574219 90.964844 53.078125 C 92.902344 52.582031 95.050781 52.335938 97.410156 52.335938 C 99.894531 52.335938 102.253906 52.621094 104.492188 53.191406 C 106.726562 53.761719 109.023438 54.621094 111.386719 55.765625 L 107.957031 63.816406 C 106.070312 62.921875 104.265625 62.1875 102.554688 61.617188 C 100.886719 61.054688 99.171875 60.765625 97.414062 60.761719 C 95.875 60.761719 94.753906 61.035156 94.0625 61.582031 C 93.390625 62.128906 93.058594 62.875 93.058594 63.816406 C 93.058594 64.3125 93.144531 64.789062 93.316406 65.160156 C 93.492188 65.535156 93.839844 65.929688 94.359375 66.375 C 94.882812 66.773438 95.617188 67.21875 96.558594 67.714844 L 100.25 69.464844 L 105.015625 71.769531 C 106.355469 72.457031 107.570312 73.316406 108.667969 74.34375 C 109.691406 75.308594 110.472656 76.4375 111.015625 77.734375 C 111.5625 79.027344 111.839844 80.59375 111.839844 82.429688 " fill-opacity="1" fill-rule="nonzero"/></g></svg>