<svg xmlns="http://www.w3.org/2000/svg" xmlns:xlink="http://www.w3.org/1999/xlink" width="200" zoomAndPan="magnify" viewBox="0 0 150 149.999998" height="200" preserveAspectRatio="xMidYMid meet" version="1.0"><defs><clipPath id="92f7b2bb8f"><path d="M 45 19.960938 L 102 19.960938 L 102 130.210938 L 45 130.210938 Z M 45 19.960938 " clip-rule="nonzero"/></clipPath></defs><path fill="#4e7896" d="M 65.203125 78.425781 C 65.203125 78.425781 62.3125 80.195312 67.210938 80.699219 C 73.113281 81.457031 76.253906 81.332031 82.789062 80.070312 C 82.789062 80.070312 84.546875 81.207031 86.933594 82.089844 C 72.234375 88.402344 53.644531 81.710938 65.203125 78.425781 Z M 63.316406 70.21875 C 63.316406 70.21875 60.175781 72.617188 65.074219 73.125 C 71.484375 73.753906 76.507812 73.882812 85.175781 72.113281 C 85.175781 72.113281 86.304688 73.375 88.1875 74.007812 C 70.476562 79.3125 50.628906 74.511719 63.316406 70.21875 Z M 97.988281 84.613281 C 97.988281 84.613281 100.121094 86.382812 95.601562 87.769531 C 87.183594 90.296875 60.304688 91.054688 52.765625 87.769531 C 50.128906 86.632812 55.152344 84.992188 56.785156 84.738281 C 58.417969 84.359375 59.296875 84.359375 59.296875 84.359375 C 56.410156 82.339844 40.078125 88.527344 51.007812 90.296875 C 81.027344 95.222656 105.773438 88.148438 97.988281 84.613281 Z M 66.585938 61.632812 C 66.585938 61.632812 52.894531 64.914062 61.6875 66.050781 C 65.453125 66.554688 72.863281 66.429688 79.773438 65.925781 C 85.425781 65.417969 91.078125 64.410156 91.078125 64.410156 C 91.078125 64.410156 89.070312 65.292969 87.6875 66.175781 C 73.746094 69.839844 46.988281 68.195312 54.652344 64.410156 C 61.183594 61.253906 66.582031 61.628906 66.582031 61.628906 Z M 91.078125 75.394531 C 105.148438 68.070312 98.613281 61 94.09375 61.882812 C 92.960938 62.136719 92.460938 62.390625 92.460938 62.390625 C 92.460938 62.390625 92.835938 61.632812 93.714844 61.378906 C 102.632812 58.222656 109.667969 70.847656 90.828125 75.773438 C 90.828125 75.773438 90.953125 75.648438 91.078125 75.394531 Z M 67.964844 95.347656 C 81.53125 96.230469 102.253906 94.84375 102.761719 88.402344 C 102.761719 88.402344 101.757812 90.925781 91.582031 92.820312 C 80.023438 94.96875 65.707031 94.714844 57.292969 93.328125 C 57.292969 93.328125 59.050781 94.84375 67.96875 95.347656 Z M 67.964844 95.347656 " fill-opacity="1" fill-rule="nonzero"/><g clip-path="url(#92f7b2bb8f)"><path fill="#f58219" d="M 82.535156 19.960938 C 82.535156 19.960938 90.324219 27.914062 75.125 39.910156 C 62.941406 49.636719 72.359375 55.191406 75.125 61.503906 C 67.964844 55.066406 62.816406 49.382812 66.332031 44.078125 C 71.484375 36.25 85.675781 32.464844 82.535156 19.960938 Z M 78.519531 56.203125 C 82.160156 60.371094 77.515625 64.15625 77.515625 64.15625 C 77.515625 64.15625 86.808594 59.359375 82.539062 53.425781 C 78.644531 47.742188 75.628906 44.964844 91.957031 35.496094 C 91.957031 35.496094 66.207031 41.9375 78.519531 56.203125 Z M 69.222656 124.011719 L 69.222656 111.636719 C 69.222656 108.480469 67.464844 106.332031 63.066406 106.332031 C 60.554688 106.332031 58.417969 106.964844 56.535156 107.71875 L 57.164062 109.992188 C 58.542969 109.488281 60.304688 108.980469 62.1875 108.980469 C 64.574219 108.980469 65.703125 109.992188 65.703125 112.011719 L 65.703125 113.652344 L 64.449219 113.652344 C 58.417969 113.652344 55.65625 115.925781 55.65625 119.589844 C 55.65625 122.621094 57.539062 124.386719 60.929688 124.386719 C 63.066406 124.386719 64.699219 123.378906 66.207031 122.113281 L 66.457031 124.007812 L 69.222656 124.007812 Z M 65.703125 119.96875 C 64.449219 121.105469 63.066406 121.738281 61.808594 121.738281 C 60.175781 121.738281 59.171875 120.726562 59.171875 118.960938 C 59.171875 117.191406 60.175781 115.929688 64.195312 115.929688 L 65.703125 115.929688 Z M 81.03125 124.011719 L 76.632812 124.011719 L 71.359375 106.710938 L 75.125 106.710938 L 78.390625 117.320312 L 79.144531 120.476562 C 80.777344 115.929688 82.035156 111.257812 82.539062 106.710938 L 86.304688 106.710938 C 85.300781 112.394531 83.542969 118.582031 81.03125 124.011719 Z M 101.378906 124.011719 L 101.378906 111.636719 C 101.378906 108.480469 99.621094 106.332031 95.222656 106.332031 C 92.710938 106.332031 90.574219 106.964844 88.691406 107.71875 L 89.195312 109.992188 C 90.703125 109.488281 92.460938 108.980469 94.34375 108.980469 C 96.730469 108.980469 97.859375 109.992188 97.859375 112.011719 L 97.859375 113.652344 L 96.605469 113.652344 C 90.574219 113.652344 87.8125 115.925781 87.8125 119.589844 C 87.8125 122.621094 89.570312 124.386719 92.960938 124.386719 C 95.222656 124.386719 96.855469 123.378906 98.363281 122.113281 L 98.613281 124.007812 L 101.378906 124.007812 Z M 97.859375 119.96875 C 96.605469 121.105469 95.222656 121.738281 93.96875 121.738281 C 92.335938 121.738281 91.328125 120.726562 91.328125 118.960938 C 91.328125 117.191406 92.335938 115.929688 96.355469 115.929688 L 97.859375 115.929688 Z M 51.761719 126.914062 C 50.757812 128.429688 49.25 129.566406 47.367188 130.199219 L 45.730469 128.179688 C 46.988281 127.421875 48.246094 126.285156 48.746094 125.277344 C 49.25 124.390625 49.375 123.128906 49.375 120.222656 L 49.375 100.523438 L 53.144531 100.523438 L 53.144531 119.972656 C 53.144531 123.886719 52.765625 125.402344 51.765625 126.917969 Z M 51.761719 126.914062 " fill-opacity="1" fill-rule="nonzero"/></g></svg>