<svg xmlns="http://www.w3.org/2000/svg" xmlns:xlink="http://www.w3.org/1999/xlink" width="200" zoomAndPan="magnify" viewBox="0 0 150 149.999998" height="200" preserveAspectRatio="xMidYMid meet" version="1.0"><defs><clipPath id="7b493c0f15"><path d="M 36.464844 32.996094 L 113.714844 32.996094 L 113.714844 116.996094 L 36.464844 116.996094 Z M 36.464844 32.996094 " clip-rule="nonzero"/></clipPath></defs><g clip-path="url(#7b493c0f15)"><path fill="#2196f3" d="M 113.230469 33.570312 C 112.878906 33.1875 112.445312 32.996094 111.925781 32.996094 L 38.25 32.996094 C 38 32.996094 37.761719 33.046875 37.535156 33.144531 C 37.308594 33.246094 37.109375 33.386719 36.941406 33.570312 C 36.773438 33.753906 36.652344 33.964844 36.574219 34.199219 C 36.496094 34.433594 36.46875 34.675781 36.496094 34.921875 L 43.511719 104.921875 C 43.546875 105.265625 43.671875 105.574219 43.886719 105.84375 C 44.101562 106.113281 44.375 106.300781 44.699219 106.410156 L 76.277344 116.910156 C 76.460938 116.96875 76.648438 117 76.84375 116.996094 C 77.054688 116.996094 77.261719 116.960938 77.460938 116.886719 L 105.527344 106.386719 C 105.84375 106.269531 106.101562 106.082031 106.304688 105.816406 C 106.511719 105.554688 106.628906 105.253906 106.664062 104.921875 L 113.683594 34.921875 C 113.730469 34.40625 113.582031 33.957031 113.230469 33.570312 Z M 113.230469 33.570312 " fill-opacity="1" fill-rule="nonzero"/></g><path fill="#fafafa" d="M 76.84375 99.496094 C 76.652344 99.496094 76.46875 99.46875 76.289062 99.410156 L 60.5 94.160156 C 60.203125 94.0625 59.949219 93.894531 59.742188 93.660156 C 59.53125 93.425781 59.398438 93.15625 59.335938 92.847656 L 57.582031 84.097656 C 57.535156 83.871094 57.53125 83.644531 57.578125 83.414062 C 57.621094 83.1875 57.707031 82.976562 57.835938 82.78125 C 57.964844 82.589844 58.125 82.425781 58.316406 82.296875 C 58.511719 82.167969 58.722656 82.078125 58.949219 82.03125 C 59.175781 81.984375 59.40625 81.984375 59.632812 82.027344 C 59.863281 82.074219 60.074219 82.160156 60.265625 82.289062 C 60.460938 82.414062 60.625 82.574219 60.753906 82.769531 C 60.882812 82.960938 60.972656 83.171875 61.019531 83.398438 L 62.574219 91.152344 L 76.808594 95.894531 L 89.320312 91.214844 L 95.808594 53.996094 L 55.792969 53.996094 C 55.558594 53.996094 55.335938 53.953125 55.121094 53.863281 C 54.90625 53.777344 54.714844 53.648438 54.550781 53.484375 C 54.386719 53.320312 54.257812 53.132812 54.171875 52.917969 C 54.082031 52.703125 54.035156 52.480469 54.035156 52.246094 C 54.035156 52.015625 54.082031 51.792969 54.171875 51.578125 C 54.257812 51.363281 54.386719 51.175781 54.550781 51.011719 C 54.714844 50.847656 54.90625 50.71875 55.121094 50.632812 C 55.335938 50.542969 55.558594 50.496094 55.792969 50.496094 L 97.894531 50.496094 C 98.152344 50.496094 98.398438 50.550781 98.636719 50.660156 C 98.871094 50.769531 99.070312 50.921875 99.238281 51.121094 C 99.40625 51.320312 99.523438 51.542969 99.589844 51.792969 C 99.65625 52.042969 99.667969 52.292969 99.625 52.550781 L 92.605469 92.800781 C 92.550781 93.105469 92.425781 93.375 92.226562 93.613281 C 92.03125 93.851562 91.785156 94.027344 91.492188 94.136719 L 77.460938 99.386719 C 77.261719 99.460938 77.054688 99.496094 76.84375 99.496094 Z M 76.84375 99.496094 " fill-opacity="1" fill-rule="nonzero"/><path fill="#fafafa" d="M 94.386719 71.496094 L 57.546875 71.496094 C 57.3125 71.496094 57.089844 71.453125 56.875 71.363281 C 56.660156 71.277344 56.46875 71.148438 56.304688 70.984375 C 56.140625 70.820312 56.015625 70.632812 55.925781 70.417969 C 55.835938 70.203125 55.792969 69.980469 55.792969 69.746094 C 55.792969 69.515625 55.835938 69.292969 55.925781 69.078125 C 56.015625 68.863281 56.140625 68.675781 56.304688 68.511719 C 56.46875 68.347656 56.660156 68.21875 56.875 68.132812 C 57.089844 68.042969 57.3125 67.996094 57.546875 67.996094 L 94.386719 67.996094 C 94.617188 67.996094 94.839844 68.042969 95.054688 68.132812 C 95.269531 68.21875 95.460938 68.347656 95.625 68.511719 C 95.789062 68.675781 95.917969 68.863281 96.003906 69.078125 C 96.09375 69.292969 96.140625 69.515625 96.140625 69.746094 C 96.140625 69.980469 96.09375 70.203125 96.003906 70.417969 C 95.917969 70.632812 95.789062 70.820312 95.625 70.984375 C 95.460938 71.148438 95.269531 71.277344 95.054688 71.363281 C 94.839844 71.453125 94.617188 71.496094 94.386719 71.496094 Z M 94.386719 71.496094 " fill-opacity="1" fill-rule="nonzero"/></svg>