<svg xmlns="http://www.w3.org/2000/svg" xmlns:xlink="http://www.w3.org/1999/xlink" width="200" zoomAndPan="magnify" viewBox="0 0 150 149.999998" height="200" preserveAspectRatio="xMidYMid meet" version="1.0"><defs><clipPath id="9d9ff192ad"><path d="M 22.339844 81 L 66 81 L 66 102.828125 L 22.339844 102.828125 Z M 22.339844 81 " clip-rule="nonzero"/></clipPath></defs><g clip-path="url(#9d9ff192ad)"><path fill="#00618a" d="M 22.722656 98.035156 L 26.15625 98.035156 L 26.15625 84.398438 L 31.472656 96.289062 C 32.097656 97.722656 32.957031 98.238281 34.640625 98.238281 C 36.324219 98.238281 37.152344 97.726562 37.777344 96.289062 L 43.09375 84.398438 L 43.09375 98.039062 L 46.53125 98.039062 L 46.53125 84.417969 C 46.53125 83.089844 46 82.449219 44.910156 82.117188 C 42.304688 81.296875 40.550781 82.003906 39.761719 83.777344 L 34.542969 95.515625 L 29.492188 83.773438 C 28.730469 82 26.949219 81.292969 24.339844 82.109375 C 23.25 82.445312 22.722656 83.085938 22.722656 84.414062 Z M 49.382812 86.929688 L 52.816406 86.929688 L 52.816406 94.445312 C 52.785156 94.855469 52.945312 95.8125 54.828125 95.84375 C 55.789062 95.859375 62.234375 95.84375 62.296875 95.84375 L 62.296875 86.894531 L 65.734375 86.894531 C 65.75 86.894531 65.730469 99.09375 65.734375 99.148438 C 65.75 102.15625 62.019531 102.8125 60.300781 102.863281 L 49.457031 102.863281 L 49.457031 100.539062 L 60.320312 100.535156 C 62.53125 100.300781 62.269531 99.195312 62.269531 98.824219 L 62.269531 97.917969 L 54.972656 97.917969 C 51.574219 97.886719 49.414062 96.394531 49.386719 94.679688 C 49.382812 94.527344 49.460938 87.003906 49.386719 86.929688 Z M 49.382812 86.929688 " fill-opacity="1" fill-rule="nonzero"/></g><path fill="#e48e00" d="M 68.382812 98.035156 L 78.253906 98.035156 C 79.410156 98.035156 80.535156 97.789062 81.425781 97.367188 C 82.910156 96.683594 83.636719 95.753906 83.636719 94.535156 L 83.636719 92.011719 C 83.636719 91.011719 82.8125 90.082031 81.195312 89.464844 C 80.335938 89.128906 79.28125 88.953125 78.257812 88.953125 L 74.097656 88.953125 C 72.710938 88.953125 72.050781 88.535156 71.882812 87.601562 C 71.851562 87.492188 71.851562 87.398438 71.851562 87.292969 L 71.851562 85.722656 C 71.851562 85.632812 71.851562 85.542969 71.882812 85.433594 C 72.050781 84.722656 72.414062 84.523438 73.632812 84.410156 C 73.734375 84.410156 73.863281 84.386719 73.964844 84.386719 L 83.769531 84.386719 L 83.769531 82.085938 L 74.128906 82.085938 C 72.742188 82.085938 72.015625 82.171875 71.355469 82.371094 C 69.304688 83.015625 68.414062 84.039062 68.414062 85.808594 L 68.414062 87.824219 C 68.414062 89.375 70.164062 90.703125 73.101562 91.015625 C 73.433594 91.035156 73.761719 91.058594 74.09375 91.058594 L 77.660156 91.058594 C 77.792969 91.058594 77.925781 91.058594 78.023438 91.082031 C 79.113281 91.167969 79.574219 91.367188 79.90625 91.765625 C 80.109375 91.972656 80.167969 92.164062 80.167969 92.378906 L 80.167969 94.394531 C 80.167969 94.640625 80.003906 94.949219 79.675781 95.214844 C 79.378906 95.480469 78.882812 95.65625 78.222656 95.703125 C 78.089844 95.703125 77.988281 95.726562 77.859375 95.726562 L 68.382812 95.726562 Z M 105.058594 94.023438 C 105.058594 96.394531 106.808594 97.722656 110.34375 97.988281 C 110.671875 98.015625 111.003906 98.03125 111.332031 98.035156 L 120.28125 98.035156 L 120.28125 95.730469 L 111.265625 95.730469 C 109.253906 95.730469 108.492188 95.222656 108.492188 94.003906 L 108.492188 82.089844 L 105.058594 82.089844 Z M 85.828125 94.144531 L 85.828125 85.933594 C 85.828125 83.847656 87.285156 82.585938 90.164062 82.183594 C 90.46875 82.140625 90.78125 82.117188 91.089844 82.117188 L 97.609375 82.117188 C 97.929688 82.117188 98.25 82.140625 98.566406 82.183594 C 101.445312 82.585938 102.902344 83.847656 102.902344 85.933594 L 102.902344 94.144531 C 102.902344 95.835938 102.285156 96.742188 100.859375 97.332031 L 104.242188 100.40625 L 100.253906 100.40625 L 97.515625 97.921875 L 94.761719 98.097656 L 91.089844 98.097656 C 90.460938 98.097656 89.800781 98.007812 89.070312 97.808594 C 86.882812 97.207031 85.828125 96.054688 85.828125 94.144531 Z M 89.535156 93.941406 C 89.535156 94.050781 89.570312 94.160156 89.601562 94.296875 C 89.804688 95.25 90.695312 95.78125 92.042969 95.78125 L 95.164062 95.78125 L 92.300781 93.179688 L 96.285156 93.179688 L 98.78125 95.449219 C 99.242188 95.203125 99.542969 94.824219 99.644531 94.339844 C 99.679688 94.230469 99.679688 94.117188 99.679688 94.007812 L 99.679688 86.136719 C 99.679688 86.046875 99.679688 85.929688 99.644531 85.824219 C 99.441406 84.9375 98.554688 84.425781 97.230469 84.425781 L 92.054688 84.425781 C 90.527344 84.425781 89.539062 85.09375 89.539062 86.136719 L 89.539062 93.945312 Z M 89.535156 93.941406 " fill-opacity="1" fill-rule="nonzero"/><path fill="#00618a" d="M 123.300781 78.269531 C 121.1875 78.210938 119.578125 78.40625 118.199219 78.992188 C 117.804688 79.160156 117.183594 79.164062 117.117188 79.65625 C 117.332031 79.882812 117.367188 80.222656 117.539062 80.503906 C 117.867188 81.039062 118.421875 81.757812 118.917969 82.132812 C 119.460938 82.542969 120.019531 82.984375 120.597656 83.339844 C 121.632812 83.972656 122.785156 84.335938 123.78125 84.972656 C 124.367188 85.34375 124.949219 85.816406 125.519531 86.238281 C 125.804688 86.449219 125.996094 86.773438 126.359375 86.902344 L 126.359375 86.84375 C 126.167969 86.59375 126.117188 86.253906 125.941406 85.996094 L 125.160156 85.210938 C 124.398438 84.1875 123.429688 83.300781 122.398438 82.554688 C 121.578125 81.960938 119.742188 81.160156 119.398438 80.199219 L 119.339844 80.140625 C 119.921875 80.074219 120.601562 79.863281 121.140625 79.71875 C 122.042969 79.472656 122.847656 79.535156 123.78125 79.292969 L 125.042969 78.933594 L 125.042969 78.691406 C 124.570312 78.203125 124.234375 77.5625 123.722656 77.121094 C 122.378906 75.96875 120.910156 74.820312 119.402344 73.859375 C 118.5625 73.328125 117.527344 72.980469 116.640625 72.53125 C 116.339844 72.378906 115.816406 72.300781 115.617188 72.046875 C 115.152344 71.449219 114.898438 70.691406 114.539062 70 C 113.785156 68.539062 113.046875 66.945312 112.378906 65.410156 C 111.921875 64.363281 111.625 63.332031 111.058594 62.390625 C 108.332031 57.882812 105.398438 55.164062 100.855469 52.488281 C 99.886719 51.921875 98.722656 51.695312 97.492188 51.402344 L 95.511719 51.28125 C 95.109375 51.113281 94.691406 50.617188 94.3125 50.375 C 92.804688 49.417969 88.945312 47.335938 87.828125 50.066406 C 87.125 51.796875 88.882812 53.480469 89.507812 54.355469 C 89.949219 54.96875 90.515625 55.65625 90.828125 56.347656 C 91.035156 56.800781 91.074219 57.257812 91.25 57.738281 C 91.6875 58.914062 92.066406 60.207031 92.628906 61.300781 C 92.914062 61.851562 93.230469 62.433594 93.589844 62.929688 C 93.8125 63.234375 94.191406 63.367188 94.25 63.835938 C 93.878906 64.359375 93.859375 65.167969 93.648438 65.828125 C 92.710938 68.804688 93.066406 72.503906 94.429688 74.707031 C 94.847656 75.382812 95.835938 76.832031 97.191406 76.273438 C 98.378906 75.789062 98.109375 74.285156 98.453125 72.953125 C 98.527344 72.652344 98.480469 72.433594 98.632812 72.230469 L 98.632812 72.289062 L 99.710938 74.464844 C 100.511719 75.757812 101.933594 77.113281 103.132812 78.027344 C 103.757812 78.5 104.253906 79.320312 105.054688 79.597656 L 105.054688 79.535156 L 104.996094 79.535156 C 104.839844 79.289062 104.59375 79.191406 104.394531 78.992188 C 103.925781 78.53125 103.402344 77.953125 103.011719 77.425781 C 101.917969 75.929688 100.953125 74.296875 100.074219 72.59375 C 99.652344 71.78125 99.285156 70.882812 98.933594 70.058594 C 98.796875 69.738281 98.796875 69.257812 98.511719 69.089844 C 98.125 69.699219 97.550781 70.1875 97.253906 70.902344 C 96.773438 72.046875 96.710938 73.441406 96.53125 74.886719 C 96.425781 74.925781 96.472656 74.898438 96.410156 74.949219 C 95.578125 74.746094 95.28125 73.878906 94.972656 73.136719 C 94.1875 71.257812 94.039062 68.234375 94.730469 66.074219 C 94.910156 65.511719 95.71875 63.75 95.390625 63.234375 C 95.234375 62.71875 94.71875 62.414062 94.429688 62.027344 C 94.074219 61.539062 93.71875 60.898438 93.46875 60.335938 C 92.828125 58.871094 92.527344 57.226562 91.851562 55.746094 C 91.527344 55.039062 90.980469 54.324219 90.53125 53.699219 C 90.03125 53.003906 89.476562 52.488281 89.089844 51.652344 C 88.953125 51.351562 88.765625 50.871094 88.96875 50.5625 C 89.011719 50.367188 89.132812 50.246094 89.328125 50.203125 C 89.679688 49.929688 90.648438 50.289062 91.011719 50.441406 C 91.972656 50.84375 92.777344 51.226562 93.59375 51.773438 C 93.984375 52.027344 94.378906 52.539062 94.851562 52.679688 L 95.390625 52.679688 C 96.234375 52.875 97.183594 52.738281 97.972656 52.980469 C 99.367188 53.40625 100.617188 54.070312 101.753906 54.792969 C 105.214844 56.988281 108.042969 60.117188 109.976562 63.855469 C 110.289062 64.453125 110.421875 65.027344 110.695312 65.664062 C 111.25 66.945312 111.945312 68.273438 112.496094 69.527344 C 113.046875 70.785156 113.582031 72.046875 114.359375 73.089844 C 114.765625 73.640625 116.34375 73.933594 117.058594 74.238281 C 117.5625 74.453125 118.382812 74.675781 118.859375 74.960938 C 119.769531 75.515625 120.648438 76.171875 121.5 76.773438 C 121.925781 77.078125 123.238281 77.738281 123.300781 78.285156 Z M 123.300781 78.269531 " fill-opacity="1" fill-rule="nonzero"/><path fill="#00618a" d="M 96.472656 55.261719 C 96.035156 55.253906 95.722656 55.3125 95.394531 55.382812 L 95.394531 55.445312 L 95.453125 55.445312 C 95.664062 55.878906 96.035156 56.15625 96.292969 56.53125 L 96.894531 57.800781 L 96.953125 57.738281 C 97.324219 57.476562 97.496094 57.054688 97.492188 56.410156 C 97.34375 56.253906 97.320312 56.054688 97.191406 55.867188 C 97.019531 55.617188 96.683594 55.472656 96.472656 55.261719 Z M 96.472656 55.261719 " fill-opacity="1" fill-rule="evenodd"/><path fill="#e48e00" d="M 121.894531 95.664062 C 121.894531 97.183594 123.089844 98.210938 124.425781 98.210938 C 125.761719 98.210938 126.957031 97.183594 126.957031 95.664062 C 126.957031 94.144531 125.761719 93.121094 124.425781 93.121094 C 123.089844 93.121094 121.894531 94.144531 121.894531 95.664062 Z M 126.390625 95.664062 C 126.390625 96.820312 125.511719 97.679688 124.425781 97.679688 C 123.324219 97.679688 122.460938 96.820312 122.460938 95.664062 C 122.460938 94.511719 123.324219 93.648438 124.425781 93.648438 C 125.511719 93.648438 126.390625 94.511719 126.390625 95.664062 Z M 125.105469 97.117188 L 125.671875 97.117188 L 124.84375 95.84375 C 125.289062 95.792969 125.625 95.578125 125.625 95.046875 C 125.625 94.457031 125.253906 94.210938 124.539062 94.210938 L 123.414062 94.210938 L 123.414062 97.117188 L 123.898438 97.117188 L 123.898438 95.863281 L 124.351562 95.863281 Z M 123.898438 95.453125 L 123.898438 94.621094 L 124.457031 94.621094 C 124.75 94.621094 125.097656 94.671875 125.097656 95.011719 C 125.097656 95.421875 124.78125 95.453125 124.417969 95.453125 Z M 123.898438 95.453125 " fill-opacity="1" fill-rule="evenodd"/></svg>