<svg xmlns="http://www.w3.org/2000/svg" xmlns:xlink="http://www.w3.org/1999/xlink" width="200" zoomAndPan="magnify" viewBox="0 0 150 149.999998" height="200" preserveAspectRatio="xMidYMid meet" version="1.0"><defs><clipPath id="3debd46944"><path d="M 32.25 32 L 117.75 32 L 117.75 118.066406 L 32.25 118.066406 Z M 32.25 32 " clip-rule="nonzero"/></clipPath></defs><g clip-path="url(#3debd46944)"><path fill="#000000" d="M 93.550781 118.066406 C 93.273438 118.066406 92.992188 118.039062 92.71875 117.984375 C 92.441406 117.929688 92.175781 117.847656 91.917969 117.742188 C 91.65625 117.636719 91.410156 117.503906 91.175781 117.347656 C 90.945312 117.191406 90.726562 117.015625 90.53125 116.816406 C 90.332031 116.617188 90.152344 116.402344 90 116.167969 C 89.84375 115.9375 89.710938 115.691406 89.601562 115.429688 C 89.496094 115.171875 89.414062 114.90625 89.359375 114.628906 C 89.304688 114.355469 89.277344 114.078125 89.277344 113.796875 L 89.277344 102.695312 C 89.410156 101.40625 89.277344 100.140625 88.875 98.90625 C 88.472656 97.671875 87.839844 96.574219 86.96875 95.609375 C 86.425781 95.019531 86.078125 94.335938 85.921875 93.550781 C 85.761719 92.765625 85.820312 92 86.097656 91.25 C 86.371094 90.496094 86.820312 89.875 87.445312 89.375 C 88.074219 88.875 88.78125 88.578125 89.578125 88.476562 C 100.007812 87.238281 109.625 83.910156 109.625 65.847656 C 109.628906 64.160156 109.386719 62.511719 108.898438 60.894531 C 108.410156 59.28125 107.699219 57.773438 106.761719 56.367188 C 105.898438 55.078125 105.316406 53.667969 105.011719 52.144531 C 104.707031 50.621094 104.707031 49.097656 105.007812 47.574219 C 105.398438 45.566406 105.398438 43.558594 105.007812 41.550781 C 101.789062 42.640625 98.8125 44.191406 96.074219 46.207031 C 95.554688 46.574219 94.980469 46.816406 94.351562 46.929688 C 93.722656 47.039062 93.101562 47.011719 92.484375 46.847656 C 88.625 45.757812 84.695312 45.214844 80.683594 45.214844 C 76.675781 45.214844 72.742188 45.757812 68.886719 46.847656 C 68.269531 47.011719 67.648438 47.039062 67.019531 46.929688 C 66.390625 46.816406 65.816406 46.574219 65.292969 46.207031 C 62.539062 44.167969 59.535156 42.617188 56.273438 41.550781 C 55.863281 43.558594 55.863281 45.566406 56.273438 47.574219 C 56.554688 49.117188 56.535156 50.65625 56.21875 52.191406 C 55.898438 53.726562 55.304688 55.148438 54.4375 56.453125 C 53.503906 57.867188 52.796875 59.386719 52.308594 61.007812 C 51.820312 62.625 51.574219 64.285156 51.570312 65.976562 C 51.570312 82.585938 59.609375 87.027344 71.664062 88.5625 C 72.46875 88.664062 73.1875 88.964844 73.820312 89.472656 C 74.449219 89.980469 74.902344 90.617188 75.171875 91.382812 C 75.421875 92.121094 75.46875 92.875 75.308594 93.640625 C 75.148438 94.40625 74.800781 95.074219 74.273438 95.652344 C 73.433594 96.546875 72.808594 97.578125 72.398438 98.734375 C 71.988281 99.894531 71.828125 101.085938 71.921875 102.3125 L 71.921875 113.796875 C 71.921875 114.078125 71.894531 114.355469 71.839844 114.628906 C 71.785156 114.90625 71.703125 115.171875 71.597656 115.429688 C 71.488281 115.691406 71.355469 115.9375 71.199219 116.167969 C 71.042969 116.402344 70.867188 116.617188 70.667969 116.816406 C 70.46875 117.015625 70.253906 117.191406 70.019531 117.347656 C 69.789062 117.503906 69.542969 117.636719 69.28125 117.742188 C 69.023438 117.847656 68.753906 117.929688 68.480469 117.984375 C 68.203125 118.039062 67.925781 118.066406 67.644531 118.066406 C 67.367188 118.066406 67.085938 118.039062 66.8125 117.984375 C 66.535156 117.929688 66.269531 117.847656 66.011719 117.742188 C 65.75 117.636719 65.503906 117.503906 65.269531 117.347656 C 65.039062 117.191406 64.820312 117.015625 64.625 116.816406 C 64.425781 116.617188 64.246094 116.402344 64.089844 116.167969 C 63.9375 115.9375 63.804688 115.691406 63.695312 115.429688 C 63.589844 115.171875 63.507812 114.90625 63.453125 114.628906 C 63.398438 114.355469 63.371094 114.078125 63.371094 113.796875 L 63.371094 111.363281 C 61.269531 111.605469 59.171875 111.585938 57.078125 111.308594 C 54.980469 111.03125 52.949219 110.503906 50.984375 109.726562 C 49.019531 108.949219 47.179688 107.941406 45.460938 106.710938 C 43.746094 105.476562 42.207031 104.054688 40.84375 102.441406 C 39.425781 100.875 37.773438 99.621094 35.882812 98.683594 C 35.609375 98.613281 35.347656 98.515625 35.09375 98.394531 C 34.839844 98.273438 34.601562 98.128906 34.375 97.957031 C 34.152344 97.789062 33.945312 97.601562 33.757812 97.390625 C 33.570312 97.183594 33.40625 96.957031 33.261719 96.714844 C 33.121094 96.472656 33 96.21875 32.910156 95.953125 C 32.816406 95.6875 32.75 95.417969 32.710938 95.140625 C 32.671875 94.859375 32.660156 94.582031 32.675781 94.300781 C 32.691406 94.019531 32.734375 93.746094 32.804688 93.472656 C 32.875 93.199219 32.96875 92.9375 33.089844 92.683594 C 33.214844 92.433594 33.359375 92.191406 33.527344 91.96875 C 33.699219 91.746094 33.886719 91.539062 34.097656 91.351562 C 34.304688 91.164062 34.53125 91 34.773438 90.855469 C 35.015625 90.714844 35.269531 90.597656 35.535156 90.503906 C 35.800781 90.410156 36.074219 90.34375 36.351562 90.304688 C 36.628906 90.265625 36.910156 90.253906 37.191406 90.269531 C 37.472656 90.285156 37.75 90.328125 38.019531 90.398438 C 41.359375 91.613281 44.210938 93.550781 46.570312 96.207031 C 50.84375 100.476562 55.121094 104.234375 63.242188 102.695312 C 63.097656 100.378906 63.425781 98.128906 64.226562 95.949219 C 55.417969 93.730469 42.851562 87.410156 42.851562 66.0625 C 42.84375 63.53125 43.207031 61.058594 43.933594 58.636719 C 44.664062 56.214844 45.726562 53.949219 47.125 51.84375 C 47.667969 51.035156 47.851562 50.152344 47.683594 49.195312 C 47.25 46.890625 47.152344 44.574219 47.394531 42.242188 C 47.632812 39.910156 48.199219 37.65625 49.09375 35.488281 C 49.339844 34.902344 49.695312 34.398438 50.167969 33.972656 C 50.640625 33.546875 51.179688 33.242188 51.785156 33.054688 C 53.238281 32.628906 58.453125 31.773438 68.332031 38.179688 C 72.328125 37.21875 76.382812 36.738281 80.492188 36.738281 C 84.605469 36.738281 88.65625 37.21875 92.65625 38.179688 C 102.53125 31.773438 107.746094 32.585938 109.15625 33.054688 C 109.765625 33.242188 110.304688 33.546875 110.773438 33.972656 C 111.246094 34.398438 111.605469 34.902344 111.851562 35.488281 C 112.742188 37.664062 113.3125 39.921875 113.550781 42.261719 C 113.789062 44.601562 113.695312 46.925781 113.261719 49.238281 C 113.078125 50.117188 113.234375 50.925781 113.730469 51.671875 C 115.132812 53.785156 116.199219 56.054688 116.929688 58.484375 C 117.65625 60.914062 118.015625 63.398438 118.003906 65.933594 C 118.003906 87.582031 105.523438 93.859375 96.628906 95.820312 C 97.421875 98.136719 97.734375 100.511719 97.570312 102.953125 L 97.570312 113.796875 C 97.570312 114.34375 97.472656 114.867188 97.273438 115.375 C 97.070312 115.878906 96.785156 116.332031 96.410156 116.730469 C 96.039062 117.125 95.605469 117.441406 95.109375 117.671875 C 94.617188 117.902344 94.097656 118.035156 93.550781 118.066406 Z M 93.550781 118.066406 " fill-opacity="1" fill-rule="nonzero"/></g></svg>