<svg xmlns="http://www.w3.org/2000/svg" xmlns:xlink="http://www.w3.org/1999/xlink" width="200" zoomAndPan="magnify" viewBox="0 0 150 149.999998" height="200" preserveAspectRatio="xMidYMid meet" version="1.0"><defs><clipPath id="572f80bc11"><path d="M 38 47.28125 L 124.660156 47.28125 L 124.660156 102.78125 L 38 102.78125 Z M 38 47.28125 " clip-rule="nonzero"/></clipPath><clipPath id="fd86d3fd15"><path d="M 73 48 L 82 48 L 82 57 L 73 57 Z M 73 48 " clip-rule="nonzero"/></clipPath><clipPath id="2f79231464"><path d="M 55.40625 48.136719 L 55.40625 65.738281 L 46.972656 65.738281 L 46.972656 74.535156 L 39.910156 74.535156 L 39.832031 75.300781 C 39.390625 80.09375 40.226562 84.515625 42.15625 88.296875 L 42.800781 89.457031 C 43.183594 90.152344 43.644531 90.804688 44.121094 91.441406 C 44.59375 92.078125 44.765625 92.429688 45.066406 92.851562 C 50.160156 98.5625 57.753906 101.316406 66.523438 101.316406 C 85.941406 101.316406 102.421875 92.730469 109.714844 73.445312 C 114.886719 73.976562 119.851562 72.652344 122.113281 68.246094 C 118.507812 66.171875 113.878906 66.835938 111.210938 68.175781 L 118.28125 48.136719 L 90.675781 65.734375 L 81.859375 65.734375 L 81.859375 48.136719 Z M 55.40625 48.136719 " clip-rule="nonzero"/></clipPath><clipPath id="7de2b22465"><path d="M 74 49 L 81 49 L 81 56 L 74 56 Z M 74 49 " clip-rule="nonzero"/></clipPath><clipPath id="34863754c8"><path d="M 55.40625 48.136719 L 55.40625 65.738281 L 46.972656 65.738281 L 46.972656 74.535156 L 39.910156 74.535156 L 39.832031 75.300781 C 39.390625 80.09375 40.226562 84.515625 42.15625 88.296875 L 42.800781 89.457031 C 43.183594 90.152344 43.644531 90.804688 44.121094 91.441406 C 44.59375 92.078125 44.765625 92.429688 45.066406 92.851562 C 50.160156 98.5625 57.753906 101.316406 66.523438 101.316406 C 85.941406 101.316406 102.421875 92.730469 109.714844 73.445312 C 114.886719 73.976562 119.851562 72.652344 122.113281 68.246094 C 118.507812 66.171875 113.878906 66.835938 111.210938 68.175781 L 118.28125 48.136719 L 90.675781 65.734375 L 81.859375 65.734375 L 81.859375 48.136719 Z M 55.40625 48.136719 " clip-rule="nonzero"/></clipPath><clipPath id="11a69b334a"><path d="M 74 49 L 81 49 L 81 57 L 74 57 Z M 74 49 " clip-rule="nonzero"/></clipPath><clipPath id="a52c0e9c2d"><path d="M 55.40625 48.136719 L 55.40625 65.738281 L 46.972656 65.738281 L 46.972656 74.535156 L 39.910156 74.535156 L 39.832031 75.300781 C 39.390625 80.09375 40.226562 84.515625 42.15625 88.296875 L 42.800781 89.457031 C 43.183594 90.152344 43.644531 90.804688 44.121094 91.441406 C 44.59375 92.078125 44.765625 92.429688 45.066406 92.851562 C 50.160156 98.5625 57.753906 101.316406 66.523438 101.316406 C 85.941406 101.316406 102.421875 92.730469 109.714844 73.445312 C 114.886719 73.976562 119.851562 72.652344 122.113281 68.246094 C 118.507812 66.171875 113.878906 66.835938 111.210938 68.175781 L 118.28125 48.136719 L 90.675781 65.734375 L 81.859375 65.734375 L 81.859375 48.136719 Z M 55.40625 48.136719 " clip-rule="nonzero"/></clipPath><clipPath id="b7eac6c31f"><path d="M 82 48 L 91 48 L 91 57 L 82 57 Z M 82 48 " clip-rule="nonzero"/></clipPath><clipPath id="5995220bb5"><path d="M 55.40625 48.136719 L 55.40625 65.738281 L 46.972656 65.738281 L 46.972656 74.535156 L 39.910156 74.535156 L 39.832031 75.300781 C 39.390625 80.09375 40.226562 84.515625 42.15625 88.296875 L 42.800781 89.457031 C 43.183594 90.152344 43.644531 90.804688 44.121094 91.441406 C 44.59375 92.078125 44.765625 92.429688 45.066406 92.851562 C 50.160156 98.5625 57.753906 101.316406 66.523438 101.316406 C 85.941406 101.316406 102.421875 92.730469 109.714844 73.445312 C 114.886719 73.976562 119.851562 72.652344 122.113281 68.246094 C 118.507812 66.171875 113.878906 66.835938 111.210938 68.175781 L 118.28125 48.136719 L 90.675781 65.734375 L 81.859375 65.734375 L 81.859375 48.136719 Z M 55.40625 48.136719 " clip-rule="nonzero"/></clipPath><clipPath id="214174c886"><path d="M 83 49 L 90 49 L 90 56 L 83 56 Z M 83 49 " clip-rule="nonzero"/></clipPath><clipPath id="c77d9eb66c"><path d="M 55.40625 48.136719 L 55.40625 65.738281 L 46.972656 65.738281 L 46.972656 74.535156 L 39.910156 74.535156 L 39.832031 75.300781 C 39.390625 80.09375 40.226562 84.515625 42.15625 88.296875 L 42.800781 89.457031 C 43.183594 90.152344 43.644531 90.804688 44.121094 91.441406 C 44.59375 92.078125 44.765625 92.429688 45.066406 92.851562 C 50.160156 98.5625 57.753906 101.316406 66.523438 101.316406 C 85.941406 101.316406 102.421875 92.730469 109.714844 73.445312 C 114.886719 73.976562 119.851562 72.652344 122.113281 68.246094 C 118.507812 66.171875 113.878906 66.835938 111.210938 68.175781 L 118.28125 48.136719 L 90.675781 65.734375 L 81.859375 65.734375 L 81.859375 48.136719 Z M 55.40625 48.136719 " clip-rule="nonzero"/></clipPath><clipPath id="2b5c4e6cca"><path d="M 83 49 L 90 49 L 90 57 L 83 57 Z M 83 49 " clip-rule="nonzero"/></clipPath><clipPath id="5fa509de8b"><path d="M 55.40625 48.136719 L 55.40625 65.738281 L 46.972656 65.738281 L 46.972656 74.535156 L 39.910156 74.535156 L 39.832031 75.300781 C 39.390625 80.09375 40.226562 84.515625 42.15625 88.296875 L 42.800781 89.457031 C 43.183594 90.152344 43.644531 90.804688 44.121094 91.441406 C 44.59375 92.078125 44.765625 92.429688 45.066406 92.851562 C 50.160156 98.5625 57.753906 101.316406 66.523438 101.316406 C 85.941406 101.316406 102.421875 92.730469 109.714844 73.445312 C 114.886719 73.976562 119.851562 72.652344 122.113281 68.246094 C 118.507812 66.171875 113.878906 66.835938 111.210938 68.175781 L 118.28125 48.136719 L 90.675781 65.734375 L 81.859375 65.734375 L 81.859375 48.136719 Z M 55.40625 48.136719 " clip-rule="nonzero"/></clipPath><clipPath id="729d2ac55d"><path d="M 39.6875 57 L 47 57 L 47 66 L 39.6875 66 Z M 39.6875 57 " clip-rule="nonzero"/></clipPath><clipPath id="54eefe29d0"><path d="M 55.40625 48.136719 L 55.40625 65.738281 L 46.972656 65.738281 L 46.972656 74.535156 L 39.910156 74.535156 L 39.832031 75.300781 C 39.390625 80.09375 40.226562 84.515625 42.15625 88.296875 L 42.800781 89.457031 C 43.183594 90.152344 43.644531 90.804688 44.121094 91.441406 C 44.59375 92.078125 44.765625 92.429688 45.066406 92.851562 C 50.160156 98.5625 57.753906 101.316406 66.523438 101.316406 C 85.941406 101.316406 102.421875 92.730469 109.714844 73.445312 C 114.886719 73.976562 119.851562 72.652344 122.113281 68.246094 C 118.507812 66.171875 113.878906 66.835938 111.210938 68.175781 L 118.28125 48.136719 L 90.675781 65.734375 L 81.859375 65.734375 L 81.859375 48.136719 Z M 55.40625 48.136719 " clip-rule="nonzero"/></clipPath><clipPath id="c11cb0240e"><path d="M 39.6875 66 L 47 66 L 47 74 L 39.6875 74 Z M 39.6875 66 " clip-rule="nonzero"/></clipPath><clipPath id="a825f0b4ec"><path d="M 55.40625 48.136719 L 55.40625 65.738281 L 46.972656 65.738281 L 46.972656 74.535156 L 39.910156 74.535156 L 39.832031 75.300781 C 39.390625 80.09375 40.226562 84.515625 42.15625 88.296875 L 42.800781 89.457031 C 43.183594 90.152344 43.644531 90.804688 44.121094 91.441406 C 44.59375 92.078125 44.765625 92.429688 45.066406 92.851562 C 50.160156 98.5625 57.753906 101.316406 66.523438 101.316406 C 85.941406 101.316406 102.421875 92.730469 109.714844 73.445312 C 114.886719 73.976562 119.851562 72.652344 122.113281 68.246094 C 118.507812 66.171875 113.878906 66.835938 111.210938 68.175781 L 118.28125 48.136719 L 90.675781 65.734375 L 81.859375 65.734375 L 81.859375 48.136719 Z M 55.40625 48.136719 " clip-rule="nonzero"/></clipPath><clipPath id="50fc86f7f6"><path d="M 39.6875 58 L 46 58 L 46 65 L 39.6875 65 Z M 39.6875 58 " clip-rule="nonzero"/></clipPath><clipPath id="34f84d6012"><path d="M 55.40625 48.136719 L 55.40625 65.738281 L 46.972656 65.738281 L 46.972656 74.535156 L 39.910156 74.535156 L 39.832031 75.300781 C 39.390625 80.09375 40.226562 84.515625 42.15625 88.296875 L 42.800781 89.457031 C 43.183594 90.152344 43.644531 90.804688 44.121094 91.441406 C 44.59375 92.078125 44.765625 92.429688 45.066406 92.851562 C 50.160156 98.5625 57.753906 101.316406 66.523438 101.316406 C 85.941406 101.316406 102.421875 92.730469 109.714844 73.445312 C 114.886719 73.976562 119.851562 72.652344 122.113281 68.246094 C 118.507812 66.171875 113.878906 66.835938 111.210938 68.175781 L 118.28125 48.136719 L 90.675781 65.734375 L 81.859375 65.734375 L 81.859375 48.136719 Z M 55.40625 48.136719 " clip-rule="nonzero"/></clipPath><clipPath id="2df0992f22"><path d="M 39.6875 57 L 46 57 L 46 65 L 39.6875 65 Z M 39.6875 57 " clip-rule="nonzero"/></clipPath><clipPath id="b6676ef347"><path d="M 55.40625 48.136719 L 55.40625 65.738281 L 46.972656 65.738281 L 46.972656 74.535156 L 39.910156 74.535156 L 39.832031 75.300781 C 39.390625 80.09375 40.226562 84.515625 42.15625 88.296875 L 42.800781 89.457031 C 43.183594 90.152344 43.644531 90.804688 44.121094 91.441406 C 44.59375 92.078125 44.765625 92.429688 45.066406 92.851562 C 50.160156 98.5625 57.753906 101.316406 66.523438 101.316406 C 85.941406 101.316406 102.421875 92.730469 109.714844 73.445312 C 114.886719 73.976562 119.851562 72.652344 122.113281 68.246094 C 118.507812 66.171875 113.878906 66.835938 111.210938 68.175781 L 118.28125 48.136719 L 90.675781 65.734375 L 81.859375 65.734375 L 81.859375 48.136719 Z M 55.40625 48.136719 " clip-rule="nonzero"/></clipPath><clipPath id="ba49a60bae"><path d="M 39.6875 66 L 46 66 L 46 74 L 39.6875 74 Z M 39.6875 66 " clip-rule="nonzero"/></clipPath><clipPath id="2b91f75c86"><path d="M 55.40625 48.136719 L 55.40625 65.738281 L 46.972656 65.738281 L 46.972656 74.535156 L 39.910156 74.535156 L 39.832031 75.300781 C 39.390625 80.09375 40.226562 84.515625 42.15625 88.296875 L 42.800781 89.457031 C 43.183594 90.152344 43.644531 90.804688 44.121094 91.441406 C 44.59375 92.078125 44.765625 92.429688 45.066406 92.851562 C 50.160156 98.5625 57.753906 101.316406 66.523438 101.316406 C 85.941406 101.316406 102.421875 92.730469 109.714844 73.445312 C 114.886719 73.976562 119.851562 72.652344 122.113281 68.246094 C 118.507812 66.171875 113.878906 66.835938 111.210938 68.175781 L 118.28125 48.136719 L 90.675781 65.734375 L 81.859375 65.734375 L 81.859375 48.136719 Z M 55.40625 48.136719 " clip-rule="nonzero"/></clipPath><clipPath id="2e6b48a18b"><path d="M 47 66 L 56 66 L 56 74 L 47 74 Z M 47 66 " clip-rule="nonzero"/></clipPath><clipPath id="159bf267bb"><path d="M 55.40625 48.136719 L 55.40625 65.738281 L 46.972656 65.738281 L 46.972656 74.535156 L 39.910156 74.535156 L 39.832031 75.300781 C 39.390625 80.09375 40.226562 84.515625 42.15625 88.296875 L 42.800781 89.457031 C 43.183594 90.152344 43.644531 90.804688 44.121094 91.441406 C 44.59375 92.078125 44.765625 92.429688 45.066406 92.851562 C 50.160156 98.5625 57.753906 101.316406 66.523438 101.316406 C 85.941406 101.316406 102.421875 92.730469 109.714844 73.445312 C 114.886719 73.976562 119.851562 72.652344 122.113281 68.246094 C 118.507812 66.171875 113.878906 66.835938 111.210938 68.175781 L 118.28125 48.136719 L 90.675781 65.734375 L 81.859375 65.734375 L 81.859375 48.136719 Z M 55.40625 48.136719 " clip-rule="nonzero"/></clipPath><clipPath id="dbb2fbbd99"><path d="M 47 57 L 56 57 L 56 66 L 47 66 Z M 47 57 " clip-rule="nonzero"/></clipPath><clipPath id="2346ee0d44"><path d="M 55.40625 48.136719 L 55.40625 65.738281 L 46.972656 65.738281 L 46.972656 74.535156 L 39.910156 74.535156 L 39.832031 75.300781 C 39.390625 80.09375 40.226562 84.515625 42.15625 88.296875 L 42.800781 89.457031 C 43.183594 90.152344 43.644531 90.804688 44.121094 91.441406 C 44.59375 92.078125 44.765625 92.429688 45.066406 92.851562 C 50.160156 98.5625 57.753906 101.316406 66.523438 101.316406 C 85.941406 101.316406 102.421875 92.730469 109.714844 73.445312 C 114.886719 73.976562 119.851562 72.652344 122.113281 68.246094 C 118.507812 66.171875 113.878906 66.835938 111.210938 68.175781 L 118.28125 48.136719 L 90.675781 65.734375 L 81.859375 65.734375 L 81.859375 48.136719 Z M 55.40625 48.136719 " clip-rule="nonzero"/></clipPath><clipPath id="9d18cd8e8a"><path d="M 48 66 L 55 66 L 55 74 L 48 74 Z M 48 66 " clip-rule="nonzero"/></clipPath><clipPath id="9bb950e4e9"><path d="M 55.40625 48.136719 L 55.40625 65.738281 L 46.972656 65.738281 L 46.972656 74.535156 L 39.910156 74.535156 L 39.832031 75.300781 C 39.390625 80.09375 40.226562 84.515625 42.15625 88.296875 L 42.800781 89.457031 C 43.183594 90.152344 43.644531 90.804688 44.121094 91.441406 C 44.59375 92.078125 44.765625 92.429688 45.066406 92.851562 C 50.160156 98.5625 57.753906 101.316406 66.523438 101.316406 C 85.941406 101.316406 102.421875 92.730469 109.714844 73.445312 C 114.886719 73.976562 119.851562 72.652344 122.113281 68.246094 C 118.507812 66.171875 113.878906 66.835938 111.210938 68.175781 L 118.28125 48.136719 L 90.675781 65.734375 L 81.859375 65.734375 L 81.859375 48.136719 Z M 55.40625 48.136719 " clip-rule="nonzero"/></clipPath><clipPath id="0514877b0f"><path d="M 48 58 L 55 58 L 55 65 L 48 65 Z M 48 58 " clip-rule="nonzero"/></clipPath><clipPath id="1ec7aeef05"><path d="M 55.40625 48.136719 L 55.40625 65.738281 L 46.972656 65.738281 L 46.972656 74.535156 L 39.910156 74.535156 L 39.832031 75.300781 C 39.390625 80.09375 40.226562 84.515625 42.15625 88.296875 L 42.800781 89.457031 C 43.183594 90.152344 43.644531 90.804688 44.121094 91.441406 C 44.59375 92.078125 44.765625 92.429688 45.066406 92.851562 C 50.160156 98.5625 57.753906 101.316406 66.523438 101.316406 C 85.941406 101.316406 102.421875 92.730469 109.714844 73.445312 C 114.886719 73.976562 119.851562 72.652344 122.113281 68.246094 C 118.507812 66.171875 113.878906 66.835938 111.210938 68.175781 L 118.28125 48.136719 L 90.675781 65.734375 L 81.859375 65.734375 L 81.859375 48.136719 Z M 55.40625 48.136719 " clip-rule="nonzero"/></clipPath><clipPath id="8e8ba47b7c"><path d="M 48 57 L 55 57 L 55 65 L 48 65 Z M 48 57 " clip-rule="nonzero"/></clipPath><clipPath id="b5df4c93b1"><path d="M 55.40625 48.136719 L 55.40625 65.738281 L 46.972656 65.738281 L 46.972656 74.535156 L 39.910156 74.535156 L 39.832031 75.300781 C 39.390625 80.09375 40.226562 84.515625 42.15625 88.296875 L 42.800781 89.457031 C 43.183594 90.152344 43.644531 90.804688 44.121094 91.441406 C 44.59375 92.078125 44.765625 92.429688 45.066406 92.851562 C 50.160156 98.5625 57.753906 101.316406 66.523438 101.316406 C 85.941406 101.316406 102.421875 92.730469 109.714844 73.445312 C 114.886719 73.976562 119.851562 72.652344 122.113281 68.246094 C 118.507812 66.171875 113.878906 66.835938 111.210938 68.175781 L 118.28125 48.136719 L 90.675781 65.734375 L 81.859375 65.734375 L 81.859375 48.136719 Z M 55.40625 48.136719 " clip-rule="nonzero"/></clipPath><clipPath id="ebe0f24bb3"><path d="M 56 57 L 64 57 L 64 66 L 56 66 Z M 56 57 " clip-rule="nonzero"/></clipPath><clipPath id="3600b1a8b8"><path d="M 55.40625 48.136719 L 55.40625 65.738281 L 46.972656 65.738281 L 46.972656 74.535156 L 39.910156 74.535156 L 39.832031 75.300781 C 39.390625 80.09375 40.226562 84.515625 42.15625 88.296875 L 42.800781 89.457031 C 43.183594 90.152344 43.644531 90.804688 44.121094 91.441406 C 44.59375 92.078125 44.765625 92.429688 45.066406 92.851562 C 50.160156 98.5625 57.753906 101.316406 66.523438 101.316406 C 85.941406 101.316406 102.421875 92.730469 109.714844 73.445312 C 114.886719 73.976562 119.851562 72.652344 122.113281 68.246094 C 118.507812 66.171875 113.878906 66.835938 111.210938 68.175781 L 118.28125 48.136719 L 90.675781 65.734375 L 81.859375 65.734375 L 81.859375 48.136719 Z M 55.40625 48.136719 " clip-rule="nonzero"/></clipPath><clipPath id="4ae54a4682"><path d="M 56 66 L 64 66 L 64 74 L 56 74 Z M 56 66 " clip-rule="nonzero"/></clipPath><clipPath id="265e2154a0"><path d="M 55.40625 48.136719 L 55.40625 65.738281 L 46.972656 65.738281 L 46.972656 74.535156 L 39.910156 74.535156 L 39.832031 75.300781 C 39.390625 80.09375 40.226562 84.515625 42.15625 88.296875 L 42.800781 89.457031 C 43.183594 90.152344 43.644531 90.804688 44.121094 91.441406 C 44.59375 92.078125 44.765625 92.429688 45.066406 92.851562 C 50.160156 98.5625 57.753906 101.316406 66.523438 101.316406 C 85.941406 101.316406 102.421875 92.730469 109.714844 73.445312 C 114.886719 73.976562 119.851562 72.652344 122.113281 68.246094 C 118.507812 66.171875 113.878906 66.835938 111.210938 68.175781 L 118.28125 48.136719 L 90.675781 65.734375 L 81.859375 65.734375 L 81.859375 48.136719 Z M 55.40625 48.136719 " clip-rule="nonzero"/></clipPath><clipPath id="a63eb05e94"><path d="M 57 58 L 63 58 L 63 65 L 57 65 Z M 57 58 " clip-rule="nonzero"/></clipPath><clipPath id="9ab4b0d8b9"><path d="M 55.40625 48.136719 L 55.40625 65.738281 L 46.972656 65.738281 L 46.972656 74.535156 L 39.910156 74.535156 L 39.832031 75.300781 C 39.390625 80.09375 40.226562 84.515625 42.15625 88.296875 L 42.800781 89.457031 C 43.183594 90.152344 43.644531 90.804688 44.121094 91.441406 C 44.59375 92.078125 44.765625 92.429688 45.066406 92.851562 C 50.160156 98.5625 57.753906 101.316406 66.523438 101.316406 C 85.941406 101.316406 102.421875 92.730469 109.714844 73.445312 C 114.886719 73.976562 119.851562 72.652344 122.113281 68.246094 C 118.507812 66.171875 113.878906 66.835938 111.210938 68.175781 L 118.28125 48.136719 L 90.675781 65.734375 L 81.859375 65.734375 L 81.859375 48.136719 Z M 55.40625 48.136719 " clip-rule="nonzero"/></clipPath><clipPath id="fcc90fca14"><path d="M 56 57 L 64 57 L 64 65 L 56 65 Z M 56 57 " clip-rule="nonzero"/></clipPath><clipPath id="18a775819a"><path d="M 55.40625 48.136719 L 55.40625 65.738281 L 46.972656 65.738281 L 46.972656 74.535156 L 39.910156 74.535156 L 39.832031 75.300781 C 39.390625 80.09375 40.226562 84.515625 42.15625 88.296875 L 42.800781 89.457031 C 43.183594 90.152344 43.644531 90.804688 44.121094 91.441406 C 44.59375 92.078125 44.765625 92.429688 45.066406 92.851562 C 50.160156 98.5625 57.753906 101.316406 66.523438 101.316406 C 85.941406 101.316406 102.421875 92.730469 109.714844 73.445312 C 114.886719 73.976562 119.851562 72.652344 122.113281 68.246094 C 118.507812 66.171875 113.878906 66.835938 111.210938 68.175781 L 118.28125 48.136719 L 90.675781 65.734375 L 81.859375 65.734375 L 81.859375 48.136719 Z M 55.40625 48.136719 " clip-rule="nonzero"/></clipPath><clipPath id="ed6bd4aab9"><path d="M 57 66 L 63 66 L 63 74 L 57 74 Z M 57 66 " clip-rule="nonzero"/></clipPath><clipPath id="f41567d130"><path d="M 55.40625 48.136719 L 55.40625 65.738281 L 46.972656 65.738281 L 46.972656 74.535156 L 39.910156 74.535156 L 39.832031 75.300781 C 39.390625 80.09375 40.226562 84.515625 42.15625 88.296875 L 42.800781 89.457031 C 43.183594 90.152344 43.644531 90.804688 44.121094 91.441406 C 44.59375 92.078125 44.765625 92.429688 45.066406 92.851562 C 50.160156 98.5625 57.753906 101.316406 66.523438 101.316406 C 85.941406 101.316406 102.421875 92.730469 109.714844 73.445312 C 114.886719 73.976562 119.851562 72.652344 122.113281 68.246094 C 118.507812 66.171875 113.878906 66.835938 111.210938 68.175781 L 118.28125 48.136719 L 90.675781 65.734375 L 81.859375 65.734375 L 81.859375 48.136719 Z M 55.40625 48.136719 " clip-rule="nonzero"/></clipPath><clipPath id="61480637a2"><path d="M 56 66 L 64 66 L 64 74 L 56 74 Z M 56 66 " clip-rule="nonzero"/></clipPath><clipPath id="e393ef18eb"><path d="M 55.40625 48.136719 L 55.40625 65.738281 L 46.972656 65.738281 L 46.972656 74.535156 L 39.910156 74.535156 L 39.832031 75.300781 C 39.390625 80.09375 40.226562 84.515625 42.15625 88.296875 L 42.800781 89.457031 C 43.183594 90.152344 43.644531 90.804688 44.121094 91.441406 C 44.59375 92.078125 44.765625 92.429688 45.066406 92.851562 C 50.160156 98.5625 57.753906 101.316406 66.523438 101.316406 C 85.941406 101.316406 102.421875 92.730469 109.714844 73.445312 C 114.886719 73.976562 119.851562 72.652344 122.113281 68.246094 C 118.507812 66.171875 113.878906 66.835938 111.210938 68.175781 L 118.28125 48.136719 L 90.675781 65.734375 L 81.859375 65.734375 L 81.859375 48.136719 Z M 55.40625 48.136719 " clip-rule="nonzero"/></clipPath><clipPath id="c2f0941086"><path d="M 64 66 L 73 66 L 73 74 L 64 74 Z M 64 66 " clip-rule="nonzero"/></clipPath><clipPath id="222485767d"><path d="M 55.40625 48.136719 L 55.40625 65.738281 L 46.972656 65.738281 L 46.972656 74.535156 L 39.910156 74.535156 L 39.832031 75.300781 C 39.390625 80.09375 40.226562 84.515625 42.15625 88.296875 L 42.800781 89.457031 C 43.183594 90.152344 43.644531 90.804688 44.121094 91.441406 C 44.59375 92.078125 44.765625 92.429688 45.066406 92.851562 C 50.160156 98.5625 57.753906 101.316406 66.523438 101.316406 C 85.941406 101.316406 102.421875 92.730469 109.714844 73.445312 C 114.886719 73.976562 119.851562 72.652344 122.113281 68.246094 C 118.507812 66.171875 113.878906 66.835938 111.210938 68.175781 L 118.28125 48.136719 L 90.675781 65.734375 L 81.859375 65.734375 L 81.859375 48.136719 Z M 55.40625 48.136719 " clip-rule="nonzero"/></clipPath><clipPath id="e1b5b09cbe"><path d="M 64 57 L 73 57 L 73 66 L 64 66 Z M 64 57 " clip-rule="nonzero"/></clipPath><clipPath id="c200f52116"><path d="M 55.40625 48.136719 L 55.40625 65.738281 L 46.972656 65.738281 L 46.972656 74.535156 L 39.910156 74.535156 L 39.832031 75.300781 C 39.390625 80.09375 40.226562 84.515625 42.15625 88.296875 L 42.800781 89.457031 C 43.183594 90.152344 43.644531 90.804688 44.121094 91.441406 C 44.59375 92.078125 44.765625 92.429688 45.066406 92.851562 C 50.160156 98.5625 57.753906 101.316406 66.523438 101.316406 C 85.941406 101.316406 102.421875 92.730469 109.714844 73.445312 C 114.886719 73.976562 119.851562 72.652344 122.113281 68.246094 C 118.507812 66.171875 113.878906 66.835938 111.210938 68.175781 L 118.28125 48.136719 L 90.675781 65.734375 L 81.859375 65.734375 L 81.859375 48.136719 Z M 55.40625 48.136719 " clip-rule="nonzero"/></clipPath><clipPath id="7c85579f4f"><path d="M 65 66 L 72 66 L 72 74 L 65 74 Z M 65 66 " clip-rule="nonzero"/></clipPath><clipPath id="b36abbacdc"><path d="M 55.40625 48.136719 L 55.40625 65.738281 L 46.972656 65.738281 L 46.972656 74.535156 L 39.910156 74.535156 L 39.832031 75.300781 C 39.390625 80.09375 40.226562 84.515625 42.15625 88.296875 L 42.800781 89.457031 C 43.183594 90.152344 43.644531 90.804688 44.121094 91.441406 C 44.59375 92.078125 44.765625 92.429688 45.066406 92.851562 C 50.160156 98.5625 57.753906 101.316406 66.523438 101.316406 C 85.941406 101.316406 102.421875 92.730469 109.714844 73.445312 C 114.886719 73.976562 119.851562 72.652344 122.113281 68.246094 C 118.507812 66.171875 113.878906 66.835938 111.210938 68.175781 L 118.28125 48.136719 L 90.675781 65.734375 L 81.859375 65.734375 L 81.859375 48.136719 Z M 55.40625 48.136719 " clip-rule="nonzero"/></clipPath><clipPath id="dc7093f2d0"><path d="M 65 58 L 72 58 L 72 65 L 65 65 Z M 65 58 " clip-rule="nonzero"/></clipPath><clipPath id="6bb5a98ee8"><path d="M 55.40625 48.136719 L 55.40625 65.738281 L 46.972656 65.738281 L 46.972656 74.535156 L 39.910156 74.535156 L 39.832031 75.300781 C 39.390625 80.09375 40.226562 84.515625 42.15625 88.296875 L 42.800781 89.457031 C 43.183594 90.152344 43.644531 90.804688 44.121094 91.441406 C 44.59375 92.078125 44.765625 92.429688 45.066406 92.851562 C 50.160156 98.5625 57.753906 101.316406 66.523438 101.316406 C 85.941406 101.316406 102.421875 92.730469 109.714844 73.445312 C 114.886719 73.976562 119.851562 72.652344 122.113281 68.246094 C 118.507812 66.171875 113.878906 66.835938 111.210938 68.175781 L 118.28125 48.136719 L 90.675781 65.734375 L 81.859375 65.734375 L 81.859375 48.136719 Z M 55.40625 48.136719 " clip-rule="nonzero"/></clipPath><clipPath id="5a274cbb24"><path d="M 65 57 L 72 57 L 72 65 L 65 65 Z M 65 57 " clip-rule="nonzero"/></clipPath><clipPath id="3a49651470"><path d="M 55.40625 48.136719 L 55.40625 65.738281 L 46.972656 65.738281 L 46.972656 74.535156 L 39.910156 74.535156 L 39.832031 75.300781 C 39.390625 80.09375 40.226562 84.515625 42.15625 88.296875 L 42.800781 89.457031 C 43.183594 90.152344 43.644531 90.804688 44.121094 91.441406 C 44.59375 92.078125 44.765625 92.429688 45.066406 92.851562 C 50.160156 98.5625 57.753906 101.316406 66.523438 101.316406 C 85.941406 101.316406 102.421875 92.730469 109.714844 73.445312 C 114.886719 73.976562 119.851562 72.652344 122.113281 68.246094 C 118.507812 66.171875 113.878906 66.835938 111.210938 68.175781 L 118.28125 48.136719 L 90.675781 65.734375 L 81.859375 65.734375 L 81.859375 48.136719 Z M 55.40625 48.136719 " clip-rule="nonzero"/></clipPath><clipPath id="eea6a781d0"><path d="M 73 57 L 82 57 L 82 66 L 73 66 Z M 73 57 " clip-rule="nonzero"/></clipPath><clipPath id="f9171faaae"><path d="M 55.40625 48.136719 L 55.40625 65.738281 L 46.972656 65.738281 L 46.972656 74.535156 L 39.910156 74.535156 L 39.832031 75.300781 C 39.390625 80.09375 40.226562 84.515625 42.15625 88.296875 L 42.800781 89.457031 C 43.183594 90.152344 43.644531 90.804688 44.121094 91.441406 C 44.59375 92.078125 44.765625 92.429688 45.066406 92.851562 C 50.160156 98.5625 57.753906 101.316406 66.523438 101.316406 C 85.941406 101.316406 102.421875 92.730469 109.714844 73.445312 C 114.886719 73.976562 119.851562 72.652344 122.113281 68.246094 C 118.507812 66.171875 113.878906 66.835938 111.210938 68.175781 L 118.28125 48.136719 L 90.675781 65.734375 L 81.859375 65.734375 L 81.859375 48.136719 Z M 55.40625 48.136719 " clip-rule="nonzero"/></clipPath><clipPath id="ce179cf5b7"><path d="M 73 66 L 82 66 L 82 74 L 73 74 Z M 73 66 " clip-rule="nonzero"/></clipPath><clipPath id="e8b00ecc39"><path d="M 55.40625 48.136719 L 55.40625 65.738281 L 46.972656 65.738281 L 46.972656 74.535156 L 39.910156 74.535156 L 39.832031 75.300781 C 39.390625 80.09375 40.226562 84.515625 42.15625 88.296875 L 42.800781 89.457031 C 43.183594 90.152344 43.644531 90.804688 44.121094 91.441406 C 44.59375 92.078125 44.765625 92.429688 45.066406 92.851562 C 50.160156 98.5625 57.753906 101.316406 66.523438 101.316406 C 85.941406 101.316406 102.421875 92.730469 109.714844 73.445312 C 114.886719 73.976562 119.851562 72.652344 122.113281 68.246094 C 118.507812 66.171875 113.878906 66.835938 111.210938 68.175781 L 118.28125 48.136719 L 90.675781 65.734375 L 81.859375 65.734375 L 81.859375 48.136719 Z M 55.40625 48.136719 " clip-rule="nonzero"/></clipPath><clipPath id="5f4b1eee9a"><path d="M 74 58 L 81 58 L 81 65 L 74 65 Z M 74 58 " clip-rule="nonzero"/></clipPath><clipPath id="c220e14180"><path d="M 55.40625 48.136719 L 55.40625 65.738281 L 46.972656 65.738281 L 46.972656 74.535156 L 39.910156 74.535156 L 39.832031 75.300781 C 39.390625 80.09375 40.226562 84.515625 42.15625 88.296875 L 42.800781 89.457031 C 43.183594 90.152344 43.644531 90.804688 44.121094 91.441406 C 44.59375 92.078125 44.765625 92.429688 45.066406 92.851562 C 50.160156 98.5625 57.753906 101.316406 66.523438 101.316406 C 85.941406 101.316406 102.421875 92.730469 109.714844 73.445312 C 114.886719 73.976562 119.851562 72.652344 122.113281 68.246094 C 118.507812 66.171875 113.878906 66.835938 111.210938 68.175781 L 118.28125 48.136719 L 90.675781 65.734375 L 81.859375 65.734375 L 81.859375 48.136719 Z M 55.40625 48.136719 " clip-rule="nonzero"/></clipPath><clipPath id="eb509170f0"><path d="M 74 57 L 81 57 L 81 65 L 74 65 Z M 74 57 " clip-rule="nonzero"/></clipPath><clipPath id="1cadfa7eff"><path d="M 55.40625 48.136719 L 55.40625 65.738281 L 46.972656 65.738281 L 46.972656 74.535156 L 39.910156 74.535156 L 39.832031 75.300781 C 39.390625 80.09375 40.226562 84.515625 42.15625 88.296875 L 42.800781 89.457031 C 43.183594 90.152344 43.644531 90.804688 44.121094 91.441406 C 44.59375 92.078125 44.765625 92.429688 45.066406 92.851562 C 50.160156 98.5625 57.753906 101.316406 66.523438 101.316406 C 85.941406 101.316406 102.421875 92.730469 109.714844 73.445312 C 114.886719 73.976562 119.851562 72.652344 122.113281 68.246094 C 118.507812 66.171875 113.878906 66.835938 111.210938 68.175781 L 118.28125 48.136719 L 90.675781 65.734375 L 81.859375 65.734375 L 81.859375 48.136719 Z M 55.40625 48.136719 " clip-rule="nonzero"/></clipPath><clipPath id="f0ca0b3c84"><path d="M 74 66 L 81 66 L 81 74 L 74 74 Z M 74 66 " clip-rule="nonzero"/></clipPath><clipPath id="a09c837efc"><path d="M 55.40625 48.136719 L 55.40625 65.738281 L 46.972656 65.738281 L 46.972656 74.535156 L 39.910156 74.535156 L 39.832031 75.300781 C 39.390625 80.09375 40.226562 84.515625 42.15625 88.296875 L 42.800781 89.457031 C 43.183594 90.152344 43.644531 90.804688 44.121094 91.441406 C 44.59375 92.078125 44.765625 92.429688 45.066406 92.851562 C 50.160156 98.5625 57.753906 101.316406 66.523438 101.316406 C 85.941406 101.316406 102.421875 92.730469 109.714844 73.445312 C 114.886719 73.976562 119.851562 72.652344 122.113281 68.246094 C 118.507812 66.171875 113.878906 66.835938 111.210938 68.175781 L 118.28125 48.136719 L 90.675781 65.734375 L 81.859375 65.734375 L 81.859375 48.136719 Z M 55.40625 48.136719 " clip-rule="nonzero"/></clipPath><clipPath id="0134c74a0b"><path d="M 82 66 L 91 66 L 91 74 L 82 74 Z M 82 66 " clip-rule="nonzero"/></clipPath><clipPath id="0036c33227"><path d="M 55.40625 48.136719 L 55.40625 65.738281 L 46.972656 65.738281 L 46.972656 74.535156 L 39.910156 74.535156 L 39.832031 75.300781 C 39.390625 80.09375 40.226562 84.515625 42.15625 88.296875 L 42.800781 89.457031 C 43.183594 90.152344 43.644531 90.804688 44.121094 91.441406 C 44.59375 92.078125 44.765625 92.429688 45.066406 92.851562 C 50.160156 98.5625 57.753906 101.316406 66.523438 101.316406 C 85.941406 101.316406 102.421875 92.730469 109.714844 73.445312 C 114.886719 73.976562 119.851562 72.652344 122.113281 68.246094 C 118.507812 66.171875 113.878906 66.835938 111.210938 68.175781 L 118.28125 48.136719 L 90.675781 65.734375 L 81.859375 65.734375 L 81.859375 48.136719 Z M 55.40625 48.136719 " clip-rule="nonzero"/></clipPath><clipPath id="95d8684621"><path d="M 82 57 L 91 57 L 91 66 L 82 66 Z M 82 57 " clip-rule="nonzero"/></clipPath><clipPath id="60ebd6d89d"><path d="M 55.40625 48.136719 L 55.40625 65.738281 L 46.972656 65.738281 L 46.972656 74.535156 L 39.910156 74.535156 L 39.832031 75.300781 C 39.390625 80.09375 40.226562 84.515625 42.15625 88.296875 L 42.800781 89.457031 C 43.183594 90.152344 43.644531 90.804688 44.121094 91.441406 C 44.59375 92.078125 44.765625 92.429688 45.066406 92.851562 C 50.160156 98.5625 57.753906 101.316406 66.523438 101.316406 C 85.941406 101.316406 102.421875 92.730469 109.714844 73.445312 C 114.886719 73.976562 119.851562 72.652344 122.113281 68.246094 C 118.507812 66.171875 113.878906 66.835938 111.210938 68.175781 L 118.28125 48.136719 L 90.675781 65.734375 L 81.859375 65.734375 L 81.859375 48.136719 Z M 55.40625 48.136719 " clip-rule="nonzero"/></clipPath><clipPath id="dcd8e47e17"><path d="M 83 66 L 90 66 L 90 74 L 83 74 Z M 83 66 " clip-rule="nonzero"/></clipPath><clipPath id="9fb5599747"><path d="M 55.40625 48.136719 L 55.40625 65.738281 L 46.972656 65.738281 L 46.972656 74.535156 L 39.910156 74.535156 L 39.832031 75.300781 C 39.390625 80.09375 40.226562 84.515625 42.15625 88.296875 L 42.800781 89.457031 C 43.183594 90.152344 43.644531 90.804688 44.121094 91.441406 C 44.59375 92.078125 44.765625 92.429688 45.066406 92.851562 C 50.160156 98.5625 57.753906 101.316406 66.523438 101.316406 C 85.941406 101.316406 102.421875 92.730469 109.714844 73.445312 C 114.886719 73.976562 119.851562 72.652344 122.113281 68.246094 C 118.507812 66.171875 113.878906 66.835938 111.210938 68.175781 L 118.28125 48.136719 L 90.675781 65.734375 L 81.859375 65.734375 L 81.859375 48.136719 Z M 55.40625 48.136719 " clip-rule="nonzero"/></clipPath><clipPath id="5cf1c1620a"><path d="M 83 58 L 90 58 L 90 65 L 83 65 Z M 83 58 " clip-rule="nonzero"/></clipPath><clipPath id="6552095c90"><path d="M 55.40625 48.136719 L 55.40625 65.738281 L 46.972656 65.738281 L 46.972656 74.535156 L 39.910156 74.535156 L 39.832031 75.300781 C 39.390625 80.09375 40.226562 84.515625 42.15625 88.296875 L 42.800781 89.457031 C 43.183594 90.152344 43.644531 90.804688 44.121094 91.441406 C 44.59375 92.078125 44.765625 92.429688 45.066406 92.851562 C 50.160156 98.5625 57.753906 101.316406 66.523438 101.316406 C 85.941406 101.316406 102.421875 92.730469 109.714844 73.445312 C 114.886719 73.976562 119.851562 72.652344 122.113281 68.246094 C 118.507812 66.171875 113.878906 66.835938 111.210938 68.175781 L 118.28125 48.136719 L 90.675781 65.734375 L 81.859375 65.734375 L 81.859375 48.136719 Z M 55.40625 48.136719 " clip-rule="nonzero"/></clipPath><clipPath id="d841a10f5f"><path d="M 83 57 L 90 57 L 90 65 L 83 65 Z M 83 57 " clip-rule="nonzero"/></clipPath><clipPath id="c5b0ba3adc"><path d="M 55.40625 48.136719 L 55.40625 65.738281 L 46.972656 65.738281 L 46.972656 74.535156 L 39.910156 74.535156 L 39.832031 75.300781 C 39.390625 80.09375 40.226562 84.515625 42.15625 88.296875 L 42.800781 89.457031 C 43.183594 90.152344 43.644531 90.804688 44.121094 91.441406 C 44.59375 92.078125 44.765625 92.429688 45.066406 92.851562 C 50.160156 98.5625 57.753906 101.316406 66.523438 101.316406 C 85.941406 101.316406 102.421875 92.730469 109.714844 73.445312 C 114.886719 73.976562 119.851562 72.652344 122.113281 68.246094 C 118.507812 66.171875 113.878906 66.835938 111.210938 68.175781 L 118.28125 48.136719 L 90.675781 65.734375 L 81.859375 65.734375 L 81.859375 48.136719 Z M 55.40625 48.136719 " clip-rule="nonzero"/></clipPath><clipPath id="cce339ff0a"><path d="M 39.6875 58 L 122.113281 58 L 122.113281 101.316406 L 39.6875 101.316406 Z M 39.6875 58 " clip-rule="nonzero"/></clipPath><clipPath id="c757a55b07"><path d="M 55.40625 48.136719 L 55.40625 65.738281 L 46.972656 65.738281 L 46.972656 74.535156 L 39.910156 74.535156 L 39.832031 75.300781 C 39.390625 80.09375 40.226562 84.515625 42.15625 88.296875 L 42.800781 89.457031 C 43.183594 90.152344 43.644531 90.804688 44.121094 91.441406 C 44.59375 92.078125 44.765625 92.429688 45.066406 92.851562 C 50.160156 98.5625 57.753906 101.316406 66.523438 101.316406 C 85.941406 101.316406 102.421875 92.730469 109.714844 73.445312 C 114.886719 73.976562 119.851562 72.652344 122.113281 68.246094 C 118.507812 66.171875 113.878906 66.835938 111.210938 68.175781 L 118.28125 48.136719 L 90.675781 65.734375 L 81.859375 65.734375 L 81.859375 48.136719 Z M 55.40625 48.136719 " clip-rule="nonzero"/></clipPath><clipPath id="2224f2dd39"><path d="M 39.6875 81 L 122.113281 81 L 122.113281 101.316406 L 39.6875 101.316406 Z M 39.6875 81 " clip-rule="nonzero"/></clipPath><clipPath id="9ad554be88"><path d="M 55.40625 48.136719 L 55.40625 65.738281 L 46.972656 65.738281 L 46.972656 74.535156 L 39.910156 74.535156 L 39.832031 75.300781 C 39.390625 80.09375 40.226562 84.515625 42.15625 88.296875 L 42.800781 89.457031 C 43.183594 90.152344 43.644531 90.804688 44.121094 91.441406 C 44.59375 92.078125 44.765625 92.429688 45.066406 92.851562 C 50.160156 98.5625 57.753906 101.316406 66.523438 101.316406 C 85.941406 101.316406 102.421875 92.730469 109.714844 73.445312 C 114.886719 73.976562 119.851562 72.652344 122.113281 68.246094 C 118.507812 66.171875 113.878906 66.835938 111.210938 68.175781 L 118.28125 48.136719 L 90.675781 65.734375 L 81.859375 65.734375 L 81.859375 48.136719 Z M 55.40625 48.136719 " clip-rule="nonzero"/></clipPath><clipPath id="4b3fbab478"><path d="M 43 91 L 69 91 L 69 101.316406 L 43 101.316406 Z M 43 91 " clip-rule="nonzero"/></clipPath><clipPath id="37093a7ded"><path d="M 55.40625 48.136719 L 55.40625 65.738281 L 46.972656 65.738281 L 46.972656 74.535156 L 39.910156 74.535156 L 39.832031 75.300781 C 39.390625 80.09375 40.226562 84.515625 42.15625 88.296875 L 42.800781 89.457031 C 43.183594 90.152344 43.644531 90.804688 44.121094 91.441406 C 44.59375 92.078125 44.765625 92.429688 45.066406 92.851562 C 50.160156 98.5625 57.753906 101.316406 66.523438 101.316406 C 85.941406 101.316406 102.421875 92.730469 109.714844 73.445312 C 114.886719 73.976562 119.851562 72.652344 122.113281 68.246094 C 118.507812 66.171875 113.878906 66.835938 111.210938 68.175781 L 118.28125 48.136719 L 90.675781 65.734375 L 81.859375 65.734375 L 81.859375 48.136719 Z M 55.40625 48.136719 " clip-rule="nonzero"/></clipPath><clipPath id="986be67ac2"><path d="M 39.6875 66 L 122.113281 66 L 122.113281 101.316406 L 39.6875 101.316406 Z M 39.6875 66 " clip-rule="nonzero"/></clipPath><clipPath id="968c012d40"><path d="M 55.40625 48.136719 L 55.40625 65.738281 L 46.972656 65.738281 L 46.972656 74.535156 L 39.910156 74.535156 L 39.832031 75.300781 C 39.390625 80.09375 40.226562 84.515625 42.15625 88.296875 L 42.800781 89.457031 C 43.183594 90.152344 43.644531 90.804688 44.121094 91.441406 C 44.59375 92.078125 44.765625 92.429688 45.066406 92.851562 C 50.160156 98.5625 57.753906 101.316406 66.523438 101.316406 C 85.941406 101.316406 102.421875 92.730469 109.714844 73.445312 C 114.886719 73.976562 119.851562 72.652344 122.113281 68.246094 C 118.507812 66.171875 113.878906 66.835938 111.210938 68.175781 L 118.28125 48.136719 L 90.675781 65.734375 L 81.859375 65.734375 L 81.859375 48.136719 Z M 55.40625 48.136719 " clip-rule="nonzero"/></clipPath></defs><g clip-path="url(#572f80bc11)"><path fill="#394d54" d="M 82.8125 64.871094 L 91.578125 64.871094 L 91.578125 73.8125 L 96.007812 73.8125 C 98.09375 73.800781 100.125 73.460938 102.101562 72.792969 C 103.054688 72.46875 104.121094 72.019531 105.0625 71.457031 C 103.824219 69.847656 103.191406 67.8125 102.984375 65.800781 C 102.730469 63.074219 103.285156 59.519531 105.136719 57.382812 L 106.058594 56.320312 L 107.15625 57.203125 C 109.921875 59.417969 112.25 62.515625 112.660156 66.046875 C 115.988281 65.070312 119.898438 65.300781 122.832031 66.992188 L 124.035156 67.6875 L 123.402344 68.921875 C 120.9375 73.75 115.75 75.246094 110.675781 74.980469 C 103.085938 93.847656 86.5625 102.777344 66.527344 102.777344 C 56.175781 102.777344 46.679688 98.917969 41.273438 89.753906 C 40.957031 89.183594 40.6875 88.589844 40.398438 88.003906 C 38.570312 83.96875 37.960938 79.550781 38.375 75.160156 L 38.5 73.835938 L 45.972656 73.835938 L 45.972656 64.875 L 54.738281 64.875 L 54.738281 56.128906 L 72.269531 56.128906 L 72.269531 47.378906 L 82.789062 47.378906 L 82.789062 64.878906 " fill-opacity="1" fill-rule="nonzero"/></g><g clip-path="url(#fd86d3fd15)"><g clip-path="url(#2f79231464)"><path fill="#20c2ef" d="M 73.753906 48.832031 L 81.351562 48.832031 L 81.351562 56.414062 L 73.753906 56.414062 Z M 73.753906 48.832031 " fill-opacity="1" fill-rule="nonzero"/></g></g><g clip-path="url(#7de2b22465)"><g clip-path="url(#34863754c8)"><path fill="#000000" d="M 74.683594 55.78125 L 74.683594 49.460938 M 75.824219 55.78125 L 75.824219 49.460938 M 76.976562 55.78125 L 76.976562 49.460938 M 78.128906 55.78125 L 78.128906 49.460938 M 79.277344 55.78125 L 79.277344 49.460938 M 80.417969 55.78125 L 80.417969 49.460938 " fill-opacity="1" fill-rule="nonzero"/></g></g><g clip-path="url(#11a69b334a)"><g clip-path="url(#a52c0e9c2d)"><path stroke-linecap="butt" transform="matrix(0.383375, 0, 0, 0.382589, 26.269046, 47.372541)" fill="none" stroke-linejoin="miter" d="M 126.28502 21.978426 L 126.28502 5.458587 M 129.260238 21.978426 L 129.260238 5.458587 M 132.266024 21.978426 L 132.266024 5.458587 M 135.271809 21.978426 L 135.271809 5.458587 M 138.267406 21.978426 L 138.267406 5.458587 M 141.242624 21.978426 L 141.242624 5.458587 " stroke="#394d54" stroke-width="1.56" stroke-opacity="1" stroke-miterlimit="4"/></g></g><g clip-path="url(#b7eac6c31f)"><g clip-path="url(#5995220bb5)"><path fill="#00acd3" d="M 82.519531 56.417969 L 90.117188 56.417969 L 90.117188 48.835938 L 82.519531 48.835938 Z M 82.519531 56.417969 " fill-opacity="1" fill-rule="nonzero"/></g></g><g clip-path="url(#214174c886)"><g clip-path="url(#c77d9eb66c)"><path fill="#000000" d="M 83.453125 49.460938 L 83.453125 55.78125 M 84.589844 49.460938 L 84.589844 55.78125 M 85.742188 49.460938 L 85.742188 55.78125 M 86.894531 49.460938 L 86.894531 55.78125 M 88.042969 49.460938 L 88.042969 55.78125 M 89.183594 49.460938 L 89.183594 55.78125 " fill-opacity="1" fill-rule="nonzero"/></g></g><g clip-path="url(#2b5c4e6cca)"><g clip-path="url(#5fa509de8b)"><path stroke-linecap="butt" transform="matrix(0.383375, 0, 0, -0.382589, 35.035304, 57.870291)" fill="none" stroke-linejoin="miter" d="M 126.293558 21.980111 L 126.293558 5.460272 M 129.258587 21.980111 L 129.258587 5.460272 M 132.264373 21.980111 L 132.264373 5.460272 M 135.270158 21.980111 L 135.270158 5.460272 M 138.265755 21.980111 L 138.265755 5.460272 M 141.240973 21.980111 L 141.240973 5.460272 " stroke="#394d54" stroke-width="1.56" stroke-opacity="1" stroke-miterlimit="4"/></g></g><g clip-path="url(#729d2ac55d)"><g clip-path="url(#54eefe29d0)"><path fill="#00acd3" d="M 38.6875 57.574219 L 46.285156 57.574219 L 46.285156 65.15625 L 38.6875 65.15625 Z M 38.6875 57.574219 " fill-opacity="1" fill-rule="nonzero"/></g></g><g clip-path="url(#c11cb0240e)"><g clip-path="url(#a825f0b4ec)"><path fill="#20c2ef" d="M 38.6875 66.328125 L 46.285156 66.328125 L 46.285156 73.910156 L 38.6875 73.910156 Z M 38.6875 66.328125 " fill-opacity="1" fill-rule="nonzero"/></g></g><g clip-path="url(#50fc86f7f6)"><g clip-path="url(#34f84d6012)"><path fill="#000000" d="M 39.621094 64.527344 L 39.621094 58.210938 M 40.761719 64.527344 L 40.761719 58.210938 M 41.910156 64.527344 L 41.910156 58.210938 M 43.0625 64.527344 L 43.0625 58.210938 M 44.214844 64.527344 L 44.214844 58.210938 M 45.351562 64.527344 L 45.351562 58.210938 " fill-opacity="1" fill-rule="nonzero"/></g></g><g clip-path="url(#2df0992f22)"><g clip-path="url(#b6676ef347)"><path stroke-linecap="butt" transform="matrix(0.383375, 0, 0, 0.382589, -8.795982, 56.120826)" fill="none" stroke-linejoin="miter" d="M 126.291615 21.972698 L 126.291615 5.463069 M 129.266833 21.972698 L 129.266833 5.463069 M 132.26243 21.972698 L 132.26243 5.463069 M 135.268216 21.972698 L 135.268216 5.463069 M 138.274001 21.972698 L 138.274001 5.463069 M 141.239031 21.972698 L 141.239031 5.463069 " stroke="#394d54" stroke-width="1.56" stroke-opacity="1" stroke-miterlimit="4"/></g></g><g clip-path="url(#ba49a60bae)"><g clip-path="url(#2b91f75c86)"><path stroke-linecap="butt" transform="matrix(0.383375, 0, 0, 0.382589, -8.795982, 64.869109)" fill-opacity="1" fill="#000000" fill-rule="nonzero" stroke-linejoin="miter" d="M 126.291615 21.977187 L 126.291615 5.457348 M 129.266833 21.977187 L 129.266833 5.457348 M 132.26243 21.977187 L 132.26243 5.457348 M 135.268216 21.977187 L 135.268216 5.457348 M 138.274001 21.977187 L 138.274001 5.457348 M 141.239031 21.977187 L 141.239031 5.457348 " stroke="#394d54" stroke-width="1.56" stroke-opacity="1" stroke-miterlimit="4"/></g></g><g clip-path="url(#2e6b48a18b)"><g clip-path="url(#159bf267bb)"><path fill="#00acd3" d="M 47.457031 73.914062 L 55.054688 73.914062 L 55.054688 66.332031 L 47.453125 66.332031 Z M 47.457031 73.914062 " fill-opacity="1" fill-rule="nonzero"/></g></g><g clip-path="url(#dbb2fbbd99)"><g clip-path="url(#2346ee0d44)"><path fill="#20c2ef" d="M 47.457031 65.160156 L 55.054688 65.160156 L 55.054688 57.578125 L 47.453125 57.578125 Z M 47.457031 65.160156 " fill-opacity="1" fill-rule="nonzero"/></g></g><g clip-path="url(#9d18cd8e8a)"><g clip-path="url(#9bb950e4e9)"><path stroke-linecap="butt" transform="matrix(0.383375, 0, 0, -0.382589, -0.0297278, 75.366869)" fill-opacity="1" fill="#000000" fill-rule="nonzero" stroke-linejoin="miter" d="M 126.289973 21.981375 L 126.289973 5.461536 M 129.265192 21.971165 L 129.265192 5.461536 M 132.260788 21.971165 L 132.260788 5.461536 M 135.266574 21.971165 L 135.266574 5.461536 M 138.27236 21.971165 L 138.27236 5.461536 M 141.237389 21.971165 L 141.237389 5.461536 " stroke="#394d54" stroke-width="1.56" stroke-opacity="1" stroke-miterlimit="4"/></g></g><g clip-path="url(#0514877b0f)"><g clip-path="url(#1ec7aeef05)"><path fill="#000000" d="M 48.386719 58.210938 L 48.386719 64.53125 M 49.527344 58.210938 L 49.527344 64.53125 M 50.675781 58.210938 L 50.675781 64.53125 M 51.828125 58.210938 L 51.828125 64.53125 M 52.980469 58.210938 L 52.980469 64.53125 M 54.117188 58.210938 L 54.117188 64.53125 " fill-opacity="1" fill-rule="nonzero"/></g></g><g clip-path="url(#8e8ba47b7c)"><g clip-path="url(#b5df4c93b1)"><path stroke-linecap="butt" transform="matrix(0.383375, 0, 0, -0.382589, -0.0297278, 66.618579)" fill="none" stroke-linejoin="miter" d="M 126.289973 21.975635 L 126.289973 5.455796 M 129.265192 21.975635 L 129.265192 5.455796 M 132.260788 21.975635 L 132.260788 5.455796 M 135.266574 21.975635 L 135.266574 5.455796 M 138.27236 21.975635 L 138.27236 5.455796 M 141.237389 21.975635 L 141.237389 5.455796 " stroke="#394d54" stroke-width="1.56" stroke-opacity="1" stroke-miterlimit="4"/></g></g><g clip-path="url(#ebe0f24bb3)"><g clip-path="url(#3600b1a8b8)"><path fill="#00acd3" d="M 56.222656 57.574219 L 63.820312 57.574219 L 63.820312 65.15625 L 56.21875 65.15625 Z M 56.222656 57.574219 " fill-opacity="1" fill-rule="nonzero"/></g></g><g clip-path="url(#4ae54a4682)"><g clip-path="url(#265e2154a0)"><path fill="#20c2ef" d="M 56.222656 66.328125 L 63.820312 66.328125 L 63.820312 73.910156 L 56.21875 73.910156 Z M 56.222656 66.328125 " fill-opacity="1" fill-rule="nonzero"/></g></g><g clip-path="url(#a63eb05e94)"><g clip-path="url(#9ab4b0d8b9)"><path fill="#000000" d="M 57.152344 64.527344 L 57.152344 58.210938 M 58.292969 64.527344 L 58.292969 58.210938 M 59.441406 64.527344 L 59.441406 58.210938 M 60.59375 64.527344 L 60.59375 58.210938 M 61.746094 64.527344 L 61.746094 58.210938 M 62.882812 64.527344 L 62.882812 58.210938 " fill-opacity="1" fill-rule="nonzero"/></g></g><g clip-path="url(#fcc90fca14)"><g clip-path="url(#18a775819a)"><path stroke-linecap="butt" transform="matrix(0.383375, 0, 0, 0.382589, 8.736532, 56.120826)" fill="none" stroke-linejoin="miter" d="M 126.288317 21.972698 L 126.288317 5.463069 M 129.263536 21.972698 L 129.263536 5.463069 M 132.259132 21.972698 L 132.259132 5.463069 M 135.264918 21.972698 L 135.264918 5.463069 M 138.270704 21.972698 L 138.270704 5.463069 M 141.235733 21.972698 L 141.235733 5.463069 " stroke="#394d54" stroke-width="1.56" stroke-opacity="1" stroke-miterlimit="4"/></g></g><g clip-path="url(#ed6bd4aab9)"><g clip-path="url(#f41567d130)"><path fill="#000000" d="M 57.152344 73.277344 L 57.152344 66.957031 M 58.292969 73.277344 L 58.292969 66.957031 M 59.441406 73.277344 L 59.441406 66.957031 M 60.59375 73.277344 L 60.59375 66.957031 M 61.746094 73.277344 L 61.746094 66.957031 M 62.882812 73.277344 L 62.882812 66.957031 " fill-opacity="1" fill-rule="nonzero"/></g></g><g clip-path="url(#61480637a2)"><g clip-path="url(#e393ef18eb)"><path stroke-linecap="butt" transform="matrix(0.383375, 0, 0, 0.382589, 8.736532, 64.869109)" fill="none" stroke-linejoin="miter" d="M 126.288317 21.977187 L 126.288317 5.457348 M 129.263536 21.977187 L 129.263536 5.457348 M 132.259132 21.977187 L 132.259132 5.457348 M 135.264918 21.977187 L 135.264918 5.457348 M 138.270704 21.977187 L 138.270704 5.457348 M 141.235733 21.977187 L 141.235733 5.457348 " stroke="#394d54" stroke-width="1.56" stroke-opacity="1" stroke-miterlimit="4"/></g></g><g clip-path="url(#c2f0941086)"><g clip-path="url(#222485767d)"><path fill="#00acd3" d="M 64.988281 73.914062 L 72.585938 73.914062 L 72.585938 66.332031 L 64.988281 66.332031 Z M 64.988281 73.914062 " fill-opacity="1" fill-rule="nonzero"/></g></g><g clip-path="url(#e1b5b09cbe)"><g clip-path="url(#c200f52116)"><path fill="#20c2ef" d="M 64.988281 65.160156 L 72.585938 65.160156 L 72.585938 57.578125 L 64.988281 57.578125 Z M 64.988281 65.160156 " fill-opacity="1" fill-rule="nonzero"/></g></g><g clip-path="url(#7c85579f4f)"><g clip-path="url(#b36abbacdc)"><path stroke-linecap="butt" transform="matrix(0.383375, 0, 0, -0.382589, 17.502788, 75.366869)" fill-opacity="1" fill="#000000" fill-rule="nonzero" stroke-linejoin="miter" d="M 126.286671 21.981375 L 126.286671 5.461536 M 129.261889 21.971165 L 129.261889 5.461536 M 132.267675 21.971165 L 132.267675 5.461536 M 135.263271 21.971165 L 135.263271 5.461536 M 138.269057 21.971165 L 138.269057 5.461536 M 141.244275 21.971165 L 141.244275 5.461536 " stroke="#394d54" stroke-width="1.56" stroke-opacity="1" stroke-miterlimit="4"/></g></g><g clip-path="url(#dc7093f2d0)"><g clip-path="url(#6bb5a98ee8)"><path fill="#000000" d="M 65.917969 58.210938 L 65.917969 64.53125 M 67.058594 58.210938 L 67.058594 64.53125 M 68.210938 58.210938 L 68.210938 64.53125 M 69.359375 58.210938 L 69.359375 64.53125 M 70.511719 58.210938 L 70.511719 64.53125 M 71.652344 58.210938 L 71.652344 64.53125 " fill-opacity="1" fill-rule="nonzero"/></g></g><g clip-path="url(#5a274cbb24)"><g clip-path="url(#3a49651470)"><path stroke-linecap="butt" transform="matrix(0.383375, 0, 0, -0.382589, 17.502788, 66.618579)" fill="none" stroke-linejoin="miter" d="M 126.286671 21.975635 L 126.286671 5.455796 M 129.261889 21.975635 L 129.261889 5.455796 M 132.267675 21.975635 L 132.267675 5.455796 M 135.263271 21.975635 L 135.263271 5.455796 M 138.269057 21.975635 L 138.269057 5.455796 M 141.244275 21.975635 L 141.244275 5.455796 " stroke="#394d54" stroke-width="1.56" stroke-opacity="1" stroke-miterlimit="4"/></g></g><g clip-path="url(#eea6a781d0)"><g clip-path="url(#f9171faaae)"><path fill="#00acd3" d="M 73.753906 57.574219 L 81.351562 57.574219 L 81.351562 65.15625 L 73.753906 65.15625 Z M 73.753906 57.574219 " fill-opacity="1" fill-rule="nonzero"/></g></g><g clip-path="url(#ce179cf5b7)"><g clip-path="url(#e8b00ecc39)"><path fill="#20c2ef" d="M 73.753906 66.328125 L 81.351562 66.328125 L 81.351562 73.910156 L 73.753906 73.910156 Z M 73.753906 66.328125 " fill-opacity="1" fill-rule="nonzero"/></g></g><g clip-path="url(#5f4b1eee9a)"><g clip-path="url(#c220e14180)"><path fill="#000000" d="M 74.683594 64.527344 L 74.683594 58.210938 M 75.824219 64.527344 L 75.824219 58.210938 M 76.976562 64.527344 L 76.976562 58.210938 M 78.128906 64.527344 L 78.128906 58.210938 M 79.277344 64.527344 L 79.277344 58.210938 M 80.417969 64.527344 L 80.417969 58.210938 " fill-opacity="1" fill-rule="nonzero"/></g></g><g clip-path="url(#eb509170f0)"><g clip-path="url(#1cadfa7eff)"><path stroke-linecap="butt" transform="matrix(0.383375, 0, 0, 0.382589, 26.269046, 56.120826)" fill="none" stroke-linejoin="miter" d="M 126.28502 21.972698 L 126.28502 5.463069 M 129.260238 21.972698 L 129.260238 5.463069 M 132.266024 21.972698 L 132.266024 5.463069 M 135.271809 21.972698 L 135.271809 5.463069 M 138.267406 21.972698 L 138.267406 5.463069 M 141.242624 21.972698 L 141.242624 5.463069 " stroke="#394d54" stroke-width="1.56" stroke-opacity="1" stroke-miterlimit="4"/></g></g><g clip-path="url(#f0ca0b3c84)"><g clip-path="url(#a09c837efc)"><path stroke-linecap="butt" transform="matrix(0.383375, 0, 0, 0.382589, 26.269046, 64.869109)" fill-opacity="1" fill="#000000" fill-rule="nonzero" stroke-linejoin="miter" d="M 126.28502 21.977187 L 126.28502 5.457348 M 129.260238 21.977187 L 129.260238 5.457348 M 132.266024 21.977187 L 132.266024 5.457348 M 135.271809 21.977187 L 135.271809 5.457348 M 138.267406 21.977187 L 138.267406 5.457348 M 141.242624 21.977187 L 141.242624 5.457348 " stroke="#394d54" stroke-width="1.56" stroke-opacity="1" stroke-miterlimit="4"/></g></g><g clip-path="url(#0134c74a0b)"><g clip-path="url(#0036c33227)"><path fill="#00acd3" d="M 82.519531 73.914062 L 90.117188 73.914062 L 90.117188 66.332031 L 82.519531 66.332031 Z M 82.519531 73.914062 " fill-opacity="1" fill-rule="nonzero"/></g></g><g clip-path="url(#95d8684621)"><g clip-path="url(#60ebd6d89d)"><path fill="#20c2ef" d="M 82.519531 65.160156 L 90.117188 65.160156 L 90.117188 57.578125 L 82.519531 57.578125 Z M 82.519531 65.160156 " fill-opacity="1" fill-rule="nonzero"/></g></g><g clip-path="url(#dcd8e47e17)"><g clip-path="url(#9fb5599747)"><path stroke-linecap="butt" transform="matrix(0.383375, 0, 0, -0.382589, 35.035304, 75.366869)" fill-opacity="1" fill="#000000" fill-rule="nonzero" stroke-linejoin="miter" d="M 126.293558 21.981375 L 126.293558 5.461536 M 129.258587 21.971165 L 129.258587 5.461536 M 132.264373 21.971165 L 132.264373 5.461536 M 135.270158 21.971165 L 135.270158 5.461536 M 138.265755 21.971165 L 138.265755 5.461536 M 141.240973 21.971165 L 141.240973 5.461536 " stroke="#394d54" stroke-width="1.56" stroke-opacity="1" stroke-miterlimit="4"/></g></g><g clip-path="url(#5cf1c1620a)"><g clip-path="url(#6552095c90)"><path fill="#000000" d="M 83.453125 58.210938 L 83.453125 64.53125 M 84.589844 58.210938 L 84.589844 64.53125 M 85.742188 58.210938 L 85.742188 64.53125 M 86.894531 58.210938 L 86.894531 64.53125 M 88.042969 58.210938 L 88.042969 64.53125 M 89.183594 58.210938 L 89.183594 64.53125 " fill-opacity="1" fill-rule="nonzero"/></g></g><g clip-path="url(#d841a10f5f)"><g clip-path="url(#c5b0ba3adc)"><path stroke-linecap="butt" transform="matrix(0.383375, 0, 0, -0.382589, 35.035304, 66.618579)" fill="none" stroke-linejoin="miter" d="M 126.293558 21.975635 L 126.293558 5.455796 M 129.258587 21.975635 L 129.258587 5.455796 M 132.264373 21.975635 L 132.264373 5.455796 M 135.270158 21.975635 L 135.270158 5.455796 M 138.265755 21.975635 L 138.265755 5.455796 M 141.240973 21.975635 L 141.240973 5.455796 " stroke="#394d54" stroke-width="1.56" stroke-opacity="1" stroke-miterlimit="4"/></g></g><g clip-path="url(#cce339ff0a)"><g clip-path="url(#c757a55b07)"><path fill="#17b5eb" d="M 111.214844 68.179688 C 111.800781 63.621094 108.382812 60.039062 106.261719 58.339844 C 103.820312 61.15625 103.441406 68.546875 107.273438 71.65625 C 105.132812 73.550781 100.625 75.269531 96.011719 75.269531 L 39.300781 75.269531 C 38.851562 80.078125 39.300781 103.230469 39.300781 103.230469 L 122.496094 103.230469 L 122.117188 68.253906 C 118.511719 66.175781 113.878906 66.839844 111.210938 68.175781 " fill-opacity="1" fill-rule="nonzero"/></g></g><g clip-path="url(#2224f2dd39)"><g clip-path="url(#9ad554be88)"><path fill="#000000" d="M 39.304688 81.421875 L 39.304688 103.230469 L 122.496094 103.230469 L 122.496094 81.421875 " fill-opacity="0.17" fill-rule="nonzero"/></g></g><g clip-path="url(#4b3fbab478)"><g clip-path="url(#37093a7ded)"><path fill="#d4edf1" d="M 68.914062 101.28125 C 63.726562 98.820312 60.875 95.480469 59.289062 91.832031 L 43.519531 92.515625 L 51.570312 103.230469 L 68.914062 101.277344 " fill-opacity="1" fill-rule="nonzero"/></g></g><g clip-path="url(#986be67ac2)"><g clip-path="url(#968c012d40)"><path fill="#000000" d="M 111.570312 68.007812 L 111.570312 68.019531 C 103.574219 78.3125 92.101562 87.296875 79.785156 92.015625 C 68.800781 96.226562 59.222656 96.246094 52.613281 92.867188 C 51.902344 92.464844 51.203125 92.019531 50.503906 91.597656 C 45.660156 88.21875 42.933594 82.628906 43.160156 75.265625 L 39.304688 75.265625 L 39.304688 103.230469 L 122.496094 103.230469 L 122.496094 66.503906 L 112.914062 66.503906 Z M 111.570312 68.007812 " fill-opacity="0.085" fill-rule="nonzero"/></g></g><path stroke-linecap="round" transform="matrix(2.076114, 0, 0, 2.071858, 19.89434, 72.230688)" fill="none" stroke-linejoin="miter" d="M 11.496179 9.613474 C 14.111492 9.756763 16.903668 9.783158 19.338355 9.019577 " stroke="#394d54" stroke-width="0.628" stroke-opacity="1" stroke-miterlimit="4"/><path fill="#d4edf1" d="M 65.4375 88.292969 C 65.4375 88.570312 65.382812 88.835938 65.277344 89.09375 C 65.171875 89.347656 65.019531 89.574219 64.824219 89.769531 C 64.628906 89.96875 64.402344 90.117188 64.144531 90.226562 C 63.886719 90.332031 63.621094 90.382812 63.34375 90.382812 C 63.066406 90.382812 62.796875 90.332031 62.542969 90.226562 C 62.285156 90.121094 62.058594 89.96875 61.859375 89.773438 C 61.664062 89.574219 61.511719 89.351562 61.40625 89.09375 C 61.300781 88.835938 61.246094 88.570312 61.246094 88.292969 C 61.246094 88.015625 61.300781 87.75 61.40625 87.492188 C 61.511719 87.238281 61.664062 87.011719 61.859375 86.8125 C 62.058594 86.617188 62.285156 86.464844 62.539062 86.359375 C 62.796875 86.253906 63.066406 86.203125 63.34375 86.203125 C 63.621094 86.203125 63.886719 86.253906 64.144531 86.359375 C 64.402344 86.46875 64.628906 86.617188 64.824219 86.816406 C 65.019531 87.011719 65.171875 87.238281 65.277344 87.492188 C 65.386719 87.75 65.4375 88.015625 65.4375 88.292969 Z M 65.4375 88.292969 " fill-opacity="1" fill-rule="nonzero"/><path fill="#394d54" d="M 63.90625 86.898438 C 63.726562 87.003906 63.601562 87.203125 63.601562 87.429688 C 63.601562 87.765625 63.875 88.042969 64.214844 88.042969 C 64.445312 88.042969 64.628906 87.914062 64.753906 87.722656 C 64.828125 87.90625 64.867188 88.097656 64.867188 88.296875 C 64.867188 89.125 64.195312 89.792969 63.367188 89.792969 C 62.539062 89.792969 61.863281 89.121094 61.863281 88.296875 C 61.863281 87.46875 62.539062 86.796875 63.367188 86.796875 C 63.554688 86.796875 63.734375 86.832031 63.910156 86.898438 Z M 26.269531 81.863281 L 123.769531 81.863281 C 121.648438 81.324219 117.054688 80.621094 117.8125 77.824219 C 113.949219 82.285156 104.640625 80.933594 102.292969 78.753906 C 99.675781 82.539062 84.445312 81.101562 83.382812 78.132812 C 80.105469 81.972656 69.941406 81.972656 66.660156 78.132812 C 65.597656 81.082031 50.367188 82.523438 47.769531 78.753906 C 45.398438 80.933594 36.089844 82.285156 32.226562 77.824219 C 32.984375 80.601562 28.390625 81.347656 26.269531 81.863281 " fill-opacity="1" fill-rule="nonzero"/></svg>