<svg xmlns="http://www.w3.org/2000/svg" xmlns:xlink="http://www.w3.org/1999/xlink" width="200" zoomAndPan="magnify" viewBox="0 0 150 149.999998" height="200" preserveAspectRatio="xMidYMid meet" version="1.0"><defs><clipPath id="dc1d097286"><path d="M 33.335938 28 L 116.585938 28 L 116.585938 122 L 33.335938 122 Z M 33.335938 28 " clip-rule="nonzero"/></clipPath><clipPath id="fc04c8d719"><path d="M 75 51 L 116.585938 51 L 116.585938 99 L 75 99 Z M 75 51 " clip-rule="nonzero"/></clipPath></defs><g clip-path="url(#dc1d097286)"><path fill="#5c8dbc" d="M 116.457031 55.835938 C 116.457031 54.265625 116.121094 52.875 115.441406 51.679688 C 114.777344 50.507812 113.777344 49.523438 112.441406 48.746094 C 101.386719 42.355469 90.328125 35.984375 79.28125 29.585938 C 76.300781 27.863281 73.414062 27.925781 70.457031 29.675781 C 66.0625 32.277344 44.039062 44.929688 37.472656 48.742188 C 34.773438 50.3125 33.457031 52.710938 33.457031 55.835938 C 33.453125 68.6875 33.457031 81.539062 33.453125 94.394531 C 33.453125 95.929688 33.773438 97.292969 34.421875 98.46875 C 35.089844 99.675781 36.101562 100.691406 37.472656 101.484375 C 44.035156 105.296875 66.058594 117.949219 70.457031 120.550781 C 73.414062 122.304688 76.304688 122.367188 79.28125 120.640625 C 90.332031 114.242188 101.394531 107.871094 112.445312 101.480469 C 113.816406 100.6875 114.828125 99.671875 115.496094 98.464844 C 116.140625 97.292969 116.464844 95.925781 116.464844 94.386719 C 116.464844 94.386719 116.464844 68.691406 116.460938 55.835938 " fill-opacity="1" fill-rule="nonzero"/></g><path fill="#1a4674" d="M 75.082031 74.988281 L 34.421875 98.46875 C 35.089844 99.675781 36.101562 100.691406 37.472656 101.484375 C 44.035156 105.296875 66.058594 117.949219 70.457031 120.550781 C 73.414062 122.304688 76.304688 122.363281 79.28125 120.636719 C 90.332031 114.242188 101.394531 107.867188 112.445312 101.480469 C 113.816406 100.6875 114.828125 99.671875 115.496094 98.464844 L 75.085938 74.988281 " fill-opacity="1" fill-rule="nonzero"/><path fill="#1a4674" d="M 63.039062 81.941406 C 65.40625 86.085938 69.855469 88.882812 74.957031 88.882812 C 80.09375 88.882812 84.5625 86.050781 86.917969 81.863281 L 75.082031 74.988281 L 63.039062 81.941406 " fill-opacity="1" fill-rule="nonzero"/><g clip-path="url(#fc04c8d719)"><path fill="#1b598e" d="M 116.457031 55.835938 C 116.457031 54.265625 116.121094 52.875 115.441406 51.679688 L 75.082031 74.988281 L 115.492188 98.464844 C 116.140625 97.292969 116.460938 95.925781 116.460938 94.386719 C 116.460938 94.386719 116.460938 68.691406 116.457031 55.835938 " fill-opacity="1" fill-rule="nonzero"/></g><path fill="#ffffff" d="M 114.238281 76.664062 L 111.082031 76.664062 L 111.082031 79.832031 L 107.917969 79.832031 L 107.917969 76.664062 L 104.761719 76.664062 L 104.761719 73.5 L 107.917969 73.5 L 107.917969 70.332031 L 111.082031 70.332031 L 111.082031 73.5 L 114.238281 73.5 L 114.238281 76.664062 " fill-opacity="1" fill-rule="nonzero"/><path fill="#ffffff" d="M 102.714844 76.664062 L 99.554688 76.664062 L 99.554688 79.832031 L 96.398438 79.832031 L 96.398438 76.664062 L 93.242188 76.664062 L 93.242188 73.5 L 96.398438 73.5 L 96.398438 70.332031 L 99.554688 70.332031 L 99.554688 73.5 L 102.714844 73.5 L 102.714844 76.664062 " fill-opacity="1" fill-rule="nonzero"/><path fill="#ffffff" d="M 86.917969 81.863281 C 84.5625 86.050781 80.09375 88.882812 74.957031 88.882812 C 69.855469 88.882812 65.40625 86.085938 63.039062 81.941406 C 61.890625 79.929688 61.230469 77.601562 61.230469 75.113281 C 61.230469 67.507812 67.375 61.34375 74.957031 61.34375 C 80.027344 61.34375 84.449219 64.105469 86.828125 68.207031 L 98.824219 61.277344 C 94.058594 53.019531 85.15625 47.464844 74.957031 47.464844 C 59.734375 47.464844 47.390625 59.84375 47.390625 75.113281 C 47.390625 80.121094 48.71875 84.820312 51.042969 88.871094 C 55.796875 97.171875 64.726562 102.761719 74.957031 102.761719 C 85.207031 102.761719 94.148438 97.148438 98.898438 88.824219 L 86.917969 81.863281 " fill-opacity="1" fill-rule="nonzero"/></svg>