<svg xmlns="http://www.w3.org/2000/svg" xmlns:xlink="http://www.w3.org/1999/xlink" width="200" zoomAndPan="magnify" viewBox="0 0 150 149.999998" height="200" preserveAspectRatio="xMidYMid meet" version="1.0"><defs><clipPath id="fbe24f50cf"><path d="M 31.339844 37 L 118.339844 37 L 118.339844 113 L 31.339844 113 Z M 31.339844 37 " clip-rule="nonzero"/></clipPath><clipPath id="6eabe370d9"><path d="M 31.339844 34.117188 L 118.339844 34.117188 L 118.339844 115.867188 L 31.339844 115.867188 Z M 31.339844 34.117188 " clip-rule="nonzero"/></clipPath></defs><path fill="#00d8ff" d="M 82.609375 74.921875 C 82.609375 75.433594 82.558594 75.941406 82.460938 76.441406 C 82.359375 76.945312 82.214844 77.433594 82.019531 77.90625 C 81.824219 78.378906 81.582031 78.828125 81.300781 79.253906 C 81.015625 79.679688 80.695312 80.074219 80.335938 80.433594 C 79.972656 80.796875 79.582031 81.121094 79.15625 81.402344 C 78.734375 81.6875 78.285156 81.929688 77.8125 82.125 C 77.34375 82.320312 76.855469 82.46875 76.355469 82.566406 C 75.855469 82.667969 75.351562 82.71875 74.839844 82.71875 C 74.332031 82.71875 73.824219 82.667969 73.324219 82.566406 C 72.824219 82.46875 72.339844 82.320312 71.867188 82.125 C 71.394531 81.929688 70.949219 81.6875 70.523438 81.402344 C 70.101562 81.121094 69.707031 80.796875 69.347656 80.433594 C 68.988281 80.074219 68.664062 79.679688 68.382812 79.253906 C 68.097656 78.828125 67.859375 78.378906 67.664062 77.90625 C 67.46875 77.433594 67.320312 76.945312 67.222656 76.441406 C 67.121094 75.941406 67.070312 75.433594 67.070312 74.921875 C 67.070312 74.410156 67.121094 73.902344 67.222656 73.402344 C 67.320312 72.898438 67.46875 72.410156 67.664062 71.9375 C 67.859375 71.464844 68.097656 71.015625 68.382812 70.589844 C 68.664062 70.164062 68.988281 69.769531 69.347656 69.410156 C 69.707031 69.046875 70.101562 68.722656 70.523438 68.441406 C 70.949219 68.15625 71.394531 67.914062 71.867188 67.71875 C 72.339844 67.523438 72.824219 67.375 73.324219 67.277344 C 73.824219 67.175781 74.332031 67.125 74.839844 67.125 C 75.351562 67.125 75.855469 67.175781 76.355469 67.277344 C 76.855469 67.375 77.34375 67.523438 77.8125 67.71875 C 78.285156 67.914062 78.734375 68.15625 79.15625 68.441406 C 79.582031 68.722656 79.972656 69.046875 80.335938 69.410156 C 80.695312 69.769531 81.015625 70.164062 81.300781 70.589844 C 81.582031 71.015625 81.824219 71.464844 82.019531 71.9375 C 82.214844 72.410156 82.359375 72.898438 82.460938 73.402344 C 82.558594 73.902344 82.609375 74.410156 82.609375 74.921875 Z M 82.609375 74.921875 " fill-opacity="1" fill-rule="nonzero"/><g clip-path="url(#fbe24f50cf)"><path stroke-linecap="butt" transform="matrix(0.15486, 0, 0, 0.155401, 33.10126, 37.993909)" fill="none" stroke-linejoin="miter" d="M 269.524607 135.625984 C 336.873741 135.625984 399.455464 145.303573 446.650306 161.541812 C 503.480867 181.098082 538.441878 210.759262 538.441878 237.630281 C 538.441878 265.632446 501.387242 297.128598 440.344207 317.363556 C 394.208789 332.646605 333.468447 340.640041 269.524607 340.640041 C 203.966406 340.640041 141.889171 333.149336 95.224041 317.1876 C 36.173733 297.002915 0.632561 265.079441 0.632561 237.630281 C 0.632561 210.985492 33.979211 181.550541 90.027815 162.019408 C 137.399228 145.504666 201.494415 135.625984 269.524607 135.625984 Z M 269.524607 135.625984 " stroke="#00d8ff" stroke-width="24" stroke-opacity="1" stroke-miterlimit="4"/></g><g clip-path="url(#6eabe370d9)"><path stroke-linecap="butt" transform="matrix(0.15486, 0, 0, 0.155401, 33.10126, 37.993909)" fill="none" stroke-linejoin="miter" d="M 180.734738 186.929772 C 214.384081 128.562601 254.011604 79.194332 291.671626 46.44135 C 336.999863 6.976898 380.158802 -8.482107 403.440918 4.940834 C 427.681561 18.91678 436.45965 66.751718 423.494312 129.744021 C 413.707246 177.35273 390.273784 233.935202 358.314476 289.336254 C 325.573212 346.119819 288.064537 396.166777 250.934228 428.618119 C 203.966406 469.666176 158.537271 484.54704 134.750667 470.822459 C 111.670346 457.525201 102.867032 413.888075 113.915317 355.596315 C 123.273567 306.328591 146.757479 245.849947 180.734738 186.929772 Z M 180.734738 186.929772 " stroke="#00d8ff" stroke-width="24" stroke-opacity="1" stroke-miterlimit="4"/><path stroke-linecap="butt" transform="matrix(0.15486, 0, 0, 0.155401, 33.10126, 37.993909)" fill="none" stroke-linejoin="miter" d="M 180.810411 289.487073 C 147.085396 231.195313 124.105972 172.199728 114.520702 123.233644 C 102.96793 64.238059 111.115409 19.117873 134.372301 5.669796 C 158.58772 -8.356424 204.420445 7.906952 252.523365 50.588888 C 288.871718 82.889411 326.203822 131.428173 358.238803 186.778952 C 391.080965 243.512244 415.699974 300.974497 425.260019 349.362439 C 437.392953 410.570045 427.580663 457.324109 403.819284 471.098962 C 380.764187 484.446493 338.563775 470.294591 293.588679 431.584237 C 255.575517 398.881529 214.888568 348.331839 180.810411 289.461937 Z M 180.810411 289.487073 " stroke="#00d8ff" stroke-width="24" stroke-opacity="1" stroke-miterlimit="4"/></g></svg>